<svg width="42" height="42" viewBox="0 0 42 42" fill="none" xmlns="http://www.w3.org/2000/svg">
<rect width="42" height="42" rx="8" fill="#ECF0FF"/>
<path d="M21 9.75C17.9019 9.75 15.375 12.2769 15.375 15.375C15.375 18.4731 17.9019 21 21 21C24.0981 21 26.625 18.4731 26.625 15.375C26.625 12.2769 24.0981 9.75 21 9.75ZM21 21C15.8364 21 11.625 25.2114 11.625 30.375H13.5C13.5 26.2222 16.8472 22.875 21 22.875C25.1528 22.875 28.5 26.2222 28.5 30.375H30.375C30.375 25.2114 26.1636 21 21 21ZM21 11.625C23.0801 11.625 24.75 13.2949 24.75 15.375C24.75 17.4551 23.0801 19.125 21 19.125C18.9199 19.125 17.25 17.4551 17.25 15.375C17.25 13.2949 18.9199 11.625 21 11.625Z" fill="#3662FF"/>
</svg>
