<svg width="22" height="22" viewBox="0 0 22 22" fill="none" xmlns="http://www.w3.org/2000/svg">
<g clip-path="url(#clip0_124_30026)">
<path d="M6.93945 4.125C6.23671 4.125 5.5804 4.48531 5.2019 5.07568L2.92993 8.46216C1.31329 8.74016 0 9.99468 0 11.6875V13.0625C0 14.1937 0.925302 15.1275 2.05713 15.1357L2.75269 15.1411C2.76172 16.6442 3.9949 17.875 5.5 17.875C7.01064 17.875 8.25 16.6356 8.25 15.125H13.75C13.75 16.6356 14.9894 17.875 16.5 17.875C18.0106 17.875 19.25 16.6356 19.25 15.125H20.625C21.3765 15.125 22 14.5015 22 13.75V11.8674C22 10.6425 21.1819 9.56121 20.0046 9.22485L16.8921 8.33594L14.2092 5.11597C13.6872 4.48956 12.9142 4.125 12.0984 4.125H6.93945ZM6.93945 5.5H8.25V8.25H4.72656L6.35669 5.82227L6.35938 5.81689C6.48688 5.61802 6.70445 5.5 6.93945 5.5ZM9.625 5.5H12.0984C12.5063 5.5 12.8921 5.68004 13.1538 5.99414L15.0337 8.25H9.625V5.5ZM3.4375 9.625H3.60938H3.80273H16.4087L19.6287 10.5461C20.2224 10.7158 20.625 11.2499 20.625 11.8674V13.75H18.8633C18.3845 12.9339 17.5081 12.375 16.5 12.375C15.4919 12.375 14.6155 12.9339 14.1367 13.75H7.86328C7.38449 12.9339 6.50808 12.375 5.5 12.375C4.48424 12.375 3.60212 12.9424 3.12598 13.7688L2.06787 13.7607C1.6872 13.758 1.375 13.4438 1.375 13.0625V11.6875C1.375 10.5394 2.28935 9.625 3.4375 9.625ZM5.5 13.75C6.26753 13.75 6.875 14.3575 6.875 15.125C6.875 15.8925 6.26753 16.5 5.5 16.5C4.73247 16.5 4.125 15.8925 4.125 15.125C4.125 14.3575 4.73247 13.75 5.5 13.75ZM16.5 13.75C17.2675 13.75 17.875 14.3575 17.875 15.125C17.875 15.8925 17.2675 16.5 16.5 16.5C15.7325 16.5 15.125 15.8925 15.125 15.125C15.125 14.3575 15.7325 13.75 16.5 13.75Z" fill="#636E95"/>
</g>
<defs>
<clipPath id="clip0_124_30026">
<rect width="22" height="22" fill="white"/>
</clipPath>
</defs>
</svg>
