<svg width="30" height="30" viewBox="0 0 30 30" fill="none" xmlns="http://www.w3.org/2000/svg">
<path opacity="0.35" d="M22.5 26.25H7.5C5.42875 26.25 3.75 24.5712 3.75 22.5V7.5H22.5C24.5712 7.5 26.25 9.17875 26.25 11.25V22.5C26.25 24.5712 24.5712 26.25 22.5 26.25Z" fill="#3662FF"/>
<path d="M21.875 18.75C22.9105 18.75 23.75 17.9105 23.75 16.875C23.75 15.8395 22.9105 15 21.875 15C20.8395 15 20 15.8395 20 16.875C20 17.9105 20.8395 18.75 21.875 18.75Z" fill="#3662FF"/>
<path d="M3.75 7.5C3.75 5.42875 5.42875 3.75 7.5 3.75H18.75C20.8212 3.75 22.5 5.42875 22.5 7.5H3.75Z" fill="#3662FF"/>
</svg>
