<svg width="42" height="42" viewBox="0 0 42 42" fill="none" xmlns="http://www.w3.org/2000/svg">
<rect width="42" height="42" rx="8" fill="#3662FF" fill-opacity="0.1"/>
<path opacity="0.35" d="M28.5 32.25H13.5C11.4288 32.25 9.75 30.5712 9.75 28.5V13.5H28.5C30.5712 13.5 32.25 15.1788 32.25 17.25V28.5C32.25 30.5712 30.5712 32.25 28.5 32.25Z" fill="#3662FF"/>
<path d="M27.875 24.75C28.9105 24.75 29.75 23.9105 29.75 22.875C29.75 21.8395 28.9105 21 27.875 21C26.8395 21 26 21.8395 26 22.875C26 23.9105 26.8395 24.75 27.875 24.75Z" fill="#3662FF"/>
<path d="M9.75 13.5C9.75 11.4288 11.4288 9.75 13.5 9.75H24.75C26.8212 9.75 28.5 11.4288 28.5 13.5H9.75Z" fill="#3662FF"/>
</svg>
