<svg width="42" height="42" viewBox="0 0 42 42" fill="none" xmlns="http://www.w3.org/2000/svg">
<rect width="42" height="42" rx="8" fill="#ECF0FF"/>
<path d="M10.6875 7.875C9.14209 7.875 7.875 9.14209 7.875 10.6875V25.6875C7.875 27.2329 9.14209 28.5 10.6875 28.5H13.5V33.063L20.3481 28.5H29.4375C30.9829 28.5 32.25 27.2329 32.25 25.6875V10.6875C32.25 9.14209 30.9829 7.875 29.4375 7.875H10.6875ZM10.6875 9.75H29.4375C29.9648 9.75 30.375 10.1602 30.375 10.6875V25.6875C30.375 26.2148 29.9648 26.625 29.4375 26.625H19.7769L15.375 29.562V26.625H10.6875C10.1602 26.625 9.75 26.2148 9.75 25.6875V10.6875C9.75 10.1602 10.1602 9.75 10.6875 9.75ZM14.4375 17.25C13.9175 17.25 13.5 17.6675 13.5 18.1875C13.5 18.7075 13.9175 19.125 14.4375 19.125C14.9575 19.125 15.375 18.7075 15.375 18.1875C15.375 17.6675 14.9575 17.25 14.4375 17.25ZM20.0625 17.25C19.5425 17.25 19.125 17.6675 19.125 18.1875C19.125 18.7075 19.5425 19.125 20.0625 19.125C20.5825 19.125 21 18.7075 21 18.1875C21 17.6675 20.5825 17.25 20.0625 17.25ZM25.6875 17.25C25.1675 17.25 24.75 17.6675 24.75 18.1875C24.75 18.7075 25.1675 19.125 25.6875 19.125C26.2075 19.125 26.625 18.7075 26.625 18.1875C26.625 17.6675 26.2075 17.25 25.6875 17.25Z" fill="#3662FF"/>
</svg>
