<svg width="30" height="30" viewBox="0 0 30 30" fill="none" xmlns="http://www.w3.org/2000/svg">
<path opacity="0.35" d="M5 24.25V6.75C5 4.67875 6.67875 3 8.75 3H17.5L25 10.5V24.25C25 26.3212 23.3212 28 21.25 28H8.75C6.67875 28 5 26.3212 5 24.25Z" fill="#00C874"/>
<path d="M17.5 8V3L25 10.5H20C18.6187 10.5 17.5 9.38125 17.5 8Z" fill="#00C874"/>
<path d="M12.211 22.1641H11.2777C11.2607 22.0433 11.2259 21.9361 11.1733 21.8423C11.1208 21.7472 11.0533 21.6662 10.9709 21.5994C10.8885 21.5327 10.7933 21.4815 10.6854 21.446C10.5788 21.4105 10.4631 21.3928 10.3381 21.3928C10.1122 21.3928 9.9155 21.4489 9.74788 21.5611C9.58027 21.6719 9.4503 21.8338 9.35797 22.0469C9.26564 22.2585 9.21947 22.5156 9.21947 22.8182C9.21947 23.1293 9.26564 23.3906 9.35797 23.6023C9.45172 23.8139 9.5824 23.9737 9.75001 24.0817C9.91763 24.1896 10.1115 24.2436 10.3317 24.2436C10.4553 24.2436 10.5696 24.2273 10.6747 24.1946C10.7813 24.1619 10.8757 24.1143 10.9581 24.0518C11.0405 23.9879 11.1087 23.9105 11.1627 23.8196C11.2181 23.7287 11.2564 23.625 11.2777 23.5085L12.211 23.5128C12.1868 23.7131 12.1264 23.9062 12.0298 24.0923C11.9347 24.277 11.8061 24.4425 11.6442 24.5888C11.4837 24.7337 11.2919 24.8487 11.0689 24.9339C10.8473 25.0178 10.5966 25.0597 10.3168 25.0597C9.92757 25.0597 9.57956 24.9716 9.27274 24.7955C8.96734 24.6193 8.72587 24.3643 8.54831 24.0305C8.37217 23.6967 8.28411 23.2926 8.28411 22.8182C8.28411 22.3423 8.37359 21.9375 8.55257 21.6037C8.73155 21.2699 8.97445 21.0156 9.28126 20.8409C9.58808 20.6648 9.93325 20.5767 10.3168 20.5767C10.5696 20.5767 10.804 20.6122 11.0199 20.6832C11.2372 20.7543 11.4297 20.858 11.5973 20.9943C11.7649 21.1293 11.9013 21.2947 12.0064 21.4908C12.1129 21.6868 12.1811 21.9112 12.211 22.1641ZM15.7923 21.8913C15.7753 21.7195 15.7021 21.5859 15.5729 21.4908C15.4436 21.3956 15.2682 21.348 15.0466 21.348C14.896 21.348 14.7689 21.3693 14.6652 21.4119C14.5615 21.4531 14.482 21.5107 14.4266 21.5845C14.3726 21.6584 14.3456 21.7422 14.3456 21.8359C14.3428 21.9141 14.3591 21.9822 14.3946 22.0405C14.4316 22.0987 14.482 22.1491 14.5459 22.1918C14.6098 22.233 14.6837 22.2692 14.7675 22.3004C14.8513 22.3303 14.9408 22.3558 15.036 22.3771L15.428 22.4709C15.6183 22.5135 15.7931 22.5703 15.9521 22.6413C16.1112 22.7124 16.249 22.7997 16.3655 22.9034C16.482 23.0071 16.5722 23.1293 16.6361 23.2699C16.7014 23.4105 16.7348 23.5717 16.7362 23.7536C16.7348 24.0206 16.6666 24.2521 16.5317 24.4482C16.3982 24.6428 16.205 24.794 15.9521 24.902C15.7007 25.0085 15.3975 25.0618 15.0423 25.0618C14.6901 25.0618 14.3833 25.0078 14.1219 24.8999C13.8619 24.7919 13.6588 24.6321 13.5125 24.4205C13.3676 24.2074 13.2916 23.9439 13.2845 23.63H14.1773C14.1872 23.7763 14.2291 23.8984 14.303 23.9964C14.3783 24.093 14.4784 24.1662 14.6034 24.2159C14.7298 24.2642 14.8726 24.2884 15.0317 24.2884C15.1879 24.2884 15.3236 24.2656 15.4387 24.2202C15.5551 24.1747 15.6453 24.1115 15.7093 24.0305C15.7732 23.9496 15.8051 23.8565 15.8051 23.7514C15.8051 23.6534 15.776 23.571 15.7178 23.5043C15.661 23.4375 15.5771 23.3807 15.4664 23.3338C15.357 23.2869 15.2227 23.2443 15.0637 23.206L14.5885 23.0866C14.2206 22.9972 13.9301 22.8572 13.7171 22.6669C13.504 22.4766 13.3982 22.2202 13.3996 21.8977C13.3982 21.6335 13.4685 21.4027 13.6105 21.2053C13.754 21.0078 13.9507 20.8537 14.2007 20.7429C14.4507 20.6321 14.7348 20.5767 15.053 20.5767C15.3769 20.5767 15.6595 20.6321 15.901 20.7429C16.1439 20.8537 16.3328 21.0078 16.4678 21.2053C16.6027 21.4027 16.6723 21.6314 16.6766 21.8913H15.7923ZM18.6978 20.6364L19.7525 23.9517H19.793L20.8498 20.6364H21.8725L20.3682 25H19.1793L17.6729 20.6364H18.6978Z" fill="#007C26"/>
</svg>
