<svg width="42" height="42" viewBox="0 0 42 42" fill="none" xmlns="http://www.w3.org/2000/svg">
<rect width="42" height="42" rx="8" fill="#ECF0FF"/>
<path d="M10.6875 9.75C9.14209 9.75 7.875 11.0171 7.875 12.5625V29.4375C7.875 30.9829 9.14209 32.25 10.6875 32.25H31.3125C32.8579 32.25 34.125 30.9829 34.125 29.4375V16.3125C34.125 14.7671 32.8579 13.5 31.3125 13.5H18.7441L17.521 11.2295C17.0303 10.314 16.0781 9.75 15.0454 9.75H10.6875ZM10.6875 11.625H15.0454C15.3896 11.625 15.7046 11.8154 15.873 12.1157L16.6201 13.5H9.75V12.5625C9.75 12.0352 10.1602 11.625 10.6875 11.625ZM9.75 15.375H31.3125C31.8398 15.375 32.25 15.7852 32.25 16.3125V29.4375C32.25 29.9648 31.8398 30.375 31.3125 30.375H10.6875C10.1602 30.375 9.75 29.9648 9.75 29.4375V15.375Z" fill="#3662FF"/>
</svg>
