<svg width="42" height="42" viewBox="0 0 42 42" fill="none" xmlns="http://www.w3.org/2000/svg">
<rect width="42" height="42" rx="8" fill="#FFF7E7"/>
<path opacity="0.35" d="M28.5 32.2501H13.5C11.4288 32.2501 9.75 30.5713 9.75 28.5001V16.9563C9.75 15.5938 10.4888 14.3401 11.6788 13.6788L19.1788 9.51258C20.3113 8.88383 21.6887 8.88383 22.8212 9.51258L30.3213 13.6788C31.5113 14.3401 32.25 15.5951 32.25 16.9563V28.5001C32.25 30.5713 30.5712 32.2501 28.5 32.2501Z" fill="#FFB800"/>
<path d="M24.75 32.25H17.25V24.75C17.25 23.3687 18.3687 22.25 19.75 22.25H22.25C23.6312 22.25 24.75 23.3687 24.75 24.75V32.25Z" fill="#FFB800"/>
<path d="M31.6235 17.5377C31.3147 17.5377 31.0035 17.4614 30.7147 17.3014L22.166 12.5514C21.436 12.1464 20.566 12.1464 19.836 12.5514L11.2872 17.3014C10.381 17.8039 9.24099 17.4789 8.73724 16.5727C8.23474 15.6677 8.55974 14.5264 9.46599 14.0227L18.0147 9.2727C19.8847 8.2327 22.1172 8.23395 23.9872 9.2727L32.536 14.0227C33.441 14.5252 33.7672 15.6664 33.2647 16.5727C32.921 17.1902 32.2822 17.5377 31.6235 17.5377Z" fill="#FFB800"/>
</svg>
