<?xml version="1.0" encoding="UTF-8"?> <svg xmlns="http://www.w3.org/2000/svg" width="16" height="16" viewBox="0 0 16 16" fill="none"><g clip-path="url(#clip0_53_2997)"><path d="M9.41329 9.41317C9.23019 9.60967 9.00939 9.76728 8.76406 9.87659C8.51873 9.9859 8.25389 10.0447 7.98535 10.0494C7.71681 10.0542 7.45007 10.0048 7.20103 9.90417C6.952 9.80358 6.72577 9.65386 6.53586 9.46394C6.34594 9.27402 6.19622 9.0478 6.09563 8.79876C5.99504 8.54973 5.94564 8.28299 5.95038 8.01444C5.95512 7.7459 6.0139 7.48107 6.12321 7.23574C6.23252 6.9904 6.39013 6.7696 6.58663 6.58651M0.666626 0.666504L15.3333 15.3332M6.66663 2.66642C11 2.33424 14 5.32385 15.3333 7.98129C14.9676 8.76007 14.6721 9.19731 14 9.97436M11.96 11.9598C10.8204 12.8285 9.4327 13.3097 7.99996 13.3332C5.27403 13.3332 3.23051 11.5134 2.00228 9.99984C1.12783 8.92224 0.666626 7.99984 0.666626 7.99984C1.04686 7.29124 1.49455 6.62369 2.00228 6.00591C2.60187 5.27635 3.28518 4.6162 4.03996 4.03984L11.96 11.9598Z" stroke="#7C88B1" stroke-width="2" stroke-linecap="round" stroke-linejoin="round"></path></g><defs><clipPath id="clip0_53_2997"><rect width="16" height="16" fill="white"></rect></clipPath></defs></svg> 