<svg width="30" height="30" viewBox="0 0 30 30" fill="none" xmlns="http://www.w3.org/2000/svg">
<path opacity="0.35" d="M5 24.25V6.75C5 4.67875 6.67875 3 8.75 3H17.5L25 10.5V24.25C25 26.3212 23.3212 28 21.25 28H8.75C6.67875 28 5 26.3212 5 24.25Z" fill="#369FFF"/>
<path d="M17.5 8V3L25 10.5H20C18.6187 10.5 17.5 9.38125 17.5 8Z" fill="#369FFF"/>
<path d="M20.6875 13H10.0625C9.89 13 9.75 12.86 9.75 12.6875V12.0625C9.75 11.89 9.89 11.75 10.0625 11.75H20.6875C20.86 11.75 21 11.89 21 12.0625V12.6875C21 12.86 20.86 13 20.6875 13Z" fill="#369FFF"/>
<path d="M19.4375 15.5H10.0625C9.89 15.5 9.75 15.36 9.75 15.1875V14.5625C9.75 14.39 9.89 14.25 10.0625 14.25H19.4375C19.61 14.25 19.75 14.39 19.75 14.5625V15.1875C19.75 15.36 19.61 15.5 19.4375 15.5Z" fill="#369FFF"/>
<path d="M20.6875 18H10.0625C9.89 18 9.75 17.86 9.75 17.6875V17.0625C9.75 16.89 9.89 16.75 10.0625 16.75H20.6875C20.86 16.75 21 16.89 21 17.0625V17.6875C21 17.86 20.86 18 20.6875 18Z" fill="#369FFF"/>
<path d="M17.5625 20.5H10.0625C9.89 20.5 9.75 20.36 9.75 20.1875V19.5625C9.75 19.39 9.89 19.25 10.0625 19.25H17.5625C17.735 19.25 17.875 19.39 17.875 19.5625V20.1875C17.875 20.36 17.735 20.5 17.5625 20.5Z" fill="#369FFF"/>
</svg>
