<svg width="22" height="22" viewBox="0 0 22 22" fill="none" xmlns="http://www.w3.org/2000/svg">
<path d="M9.625 1.375C8.87305 1.375 8.25 1.99805 8.25 2.75V4.125H3.4375C2.3042 4.125 1.375 5.0542 1.375 6.1875V15.8125C1.375 16.9458 2.3042 17.875 3.4375 17.875H18.5625C19.6958 17.875 20.625 16.9458 20.625 15.8125V6.1875C20.625 5.0542 19.6958 4.125 18.5625 4.125H13.75V2.75C13.75 1.99805 13.127 1.375 12.375 1.375H9.625ZM9.625 2.75H12.375V4.125H9.625V2.75ZM3.4375 5.5H5.5V15.125H6.875V5.5H15.125V15.125H16.5V5.5H18.5625C18.9492 5.5 19.25 5.80078 19.25 6.1875V15.8125C19.25 16.1992 18.9492 16.5 18.5625 16.5H3.4375C3.05078 16.5 2.75 16.1992 2.75 15.8125V6.1875C2.75 5.80078 3.05078 5.5 3.4375 5.5Z" fill="#636E95"/>
</svg>
