<svg width="131" height="37" viewBox="0 0 131 37" fill="none" xmlns="http://www.w3.org/2000/svg">
<g clip-path="url(#clip0_25_83898)">
<path fill-rule="evenodd" clip-rule="evenodd" d="M16.9776 0H16.6282C16.3388 0 16.1042 0.23665 16.1042 0.528571V0.880952C16.1042 1.17287 16.3388 1.40952 16.6282 1.40952H16.9776C17.267 1.40952 17.5016 1.17287 17.5016 0.880952V0.528571C17.5016 0.23665 17.267 0 16.9776 0ZM22.8814 2.81905H23.2307C23.5201 2.81905 23.7547 3.0557 23.7547 3.34762V3.7C23.7547 3.99192 23.5201 4.22857 23.2307 4.22857H22.8814C22.592 4.22857 22.3574 3.99192 22.3574 3.7V3.34762C22.3574 3.0557 22.592 2.81905 22.8814 2.81905ZM30.5492 16.9143H34.06C34.5491 16.9143 34.9333 16.5267 34.9333 16.0333V12.1571C34.9333 11.6638 34.5491 11.2762 34.06 11.2762H30.2173C29.7283 11.2762 29.344 11.6638 29.344 12.1571V15.399C29.344 15.6281 29.2567 15.8571 29.082 16.0157L26.0952 19.0286C25.8681 19.2576 25.5013 19.099 25.5013 18.7819V13.549C25.5013 13.0557 25.8856 12.6681 26.3747 12.6681C26.8637 12.6681 27.248 12.2805 27.248 11.7871V8.61571C27.248 8.12238 26.8637 7.73476 26.3747 7.73476H23.2307C22.7416 7.73476 22.3573 8.12238 22.3573 8.61571V11.7871C22.3573 12.2805 22.7416 12.6681 23.2307 12.6681C23.7197 12.6681 24.104 13.0557 24.104 13.549V20.6671C24.104 20.8962 24.0167 21.1252 23.842 21.2838L18.7592 26.411C18.5321 26.64 18.1653 26.4814 18.1653 26.1643V10.0429C18.1653 9.54952 18.5496 9.1619 19.0387 9.1619H19.388C19.8771 9.1619 20.2613 8.77429 20.2613 8.28095V4.40476C20.2613 3.91143 19.8771 3.52381 19.388 3.52381H15.5453C15.0563 3.52381 14.672 3.91143 14.672 4.40476V8.28095C14.672 8.77429 15.0563 9.1619 15.5453 9.1619H15.8947C16.3837 9.1619 16.768 9.54952 16.768 10.0429V17.8833C16.768 18.2005 16.3837 18.359 16.1741 18.13L12.1393 14.06C11.9821 13.9014 11.8773 13.6724 11.8773 13.4433V10.0429C11.8773 9.54952 11.4931 9.1619 11.004 9.1619H7.16133C6.67227 9.1619 6.288 9.54952 6.288 10.0429V13.919C6.288 14.4124 6.67227 14.8 7.16133 14.8H10.5324C10.7595 14.8 10.9865 14.8881 11.1437 15.0643L16.506 20.4733C16.6632 20.6319 16.768 20.861 16.768 21.09V31.2738C16.768 31.591 16.3837 31.7495 16.1741 31.5205L5.15267 20.4029C4.99547 20.2443 4.89067 20.0152 4.89067 19.7862V17.0905C4.89067 16.5971 4.5064 16.2095 4.01733 16.2095H0.873333C0.384267 16.2095 0 16.5971 0 17.0905V20.2619C0 20.7552 0.384267 21.1429 0.873333 21.1429H3.54573C3.7728 21.1429 3.99987 21.231 4.15707 21.4071L15.8772 33.2295C16.1043 33.4586 15.9471 33.8286 15.6327 33.8286H5.22253C5.0304 33.8286 4.8732 33.9871 4.8732 34.181V34.8857C4.8732 35.0795 5.0304 35.2381 5.22253 35.2381H29.7108C29.9029 35.2381 30.0601 35.0795 30.0601 34.8857V34.181C30.0601 33.9871 29.9029 33.8286 29.7108 33.8286H19.0387C18.5496 33.8286 18.1653 33.441 18.1653 32.9476V29.4062C18.1653 29.1771 18.2527 28.9481 18.4273 28.7895L21.5539 25.6357C21.7111 25.4771 21.9381 25.3714 22.1652 25.3714H28.4707C28.9597 25.3714 29.344 25.759 29.344 26.2524V26.6048C29.344 27.0981 29.7283 27.4857 30.2173 27.4857H34.06C34.5491 27.4857 34.9333 27.0981 34.9333 26.6048V22.7286C34.9333 22.2352 34.5491 21.8476 34.06 21.8476H30.2173C29.7283 21.8476 29.344 22.2352 29.344 22.7286V23.081C29.344 23.5743 28.9597 23.9619 28.4707 23.9619H24.0341C23.7197 23.9619 23.5625 23.5743 23.7896 23.3629L29.9204 17.1786H29.9379C30.0951 17.02 30.3221 16.9143 30.5492 16.9143ZM11.004 3.52381H9.25733C8.775 3.52381 8.384 3.91823 8.384 4.40476V6.16667C8.384 6.6532 8.775 7.04762 9.25733 7.04762H11.004C11.4863 7.04762 11.8773 6.6532 11.8773 6.16667V4.40476C11.8773 3.91823 11.4863 3.52381 11.004 3.52381ZM30.2173 4.93333H31.964C32.4463 4.93333 32.8373 5.32775 32.8373 5.81429V7.57619C32.8373 8.06273 32.4463 8.45714 31.964 8.45714H30.2173C29.735 8.45714 29.344 8.06273 29.344 7.57619V5.81429C29.344 5.32775 29.735 4.93333 30.2173 4.93333ZM4.716 26.0762H2.96933C2.487 26.0762 2.096 26.4706 2.096 26.9571V28.719C2.096 29.2056 2.487 29.6 2.96933 29.6H4.716C5.19833 29.6 5.58933 29.2056 5.58933 28.719V26.9571C5.58933 26.4706 5.19833 26.0762 4.716 26.0762ZM9.25733 16.9143H8.90799C8.6186 16.9143 8.384 17.1509 8.384 17.4429V17.7952C8.384 18.0872 8.6186 18.3238 8.90799 18.3238H9.25733C9.54673 18.3238 9.78133 18.0872 9.78133 17.7952V17.4429C9.78133 17.1509 9.54673 16.9143 9.25733 16.9143ZM25.676 26.781H26.0253C26.3147 26.781 26.5493 27.0176 26.5493 27.3095V27.6619C26.5493 27.9538 26.3147 28.1905 26.0253 28.1905H25.676C25.3866 28.1905 25.152 27.9538 25.152 27.6619V27.3095C25.152 27.0176 25.3866 26.781 25.676 26.781ZM13.1 21.1429H12.052C11.5697 21.1429 11.1787 21.5373 11.1787 22.0238V23.081C11.1787 23.5675 11.5697 23.9619 12.052 23.9619H13.1C13.5823 23.9619 13.9733 23.5675 13.9733 23.081V22.0238C13.9733 21.5373 13.5823 21.1429 13.1 21.1429ZM21.8333 28.1905H22.8813C23.3636 28.1905 23.7547 28.5849 23.7547 29.0714V30.1286C23.7547 30.6151 23.3636 31.0095 22.8813 31.0095H21.8333C21.351 31.0095 20.96 30.6151 20.96 30.1286V29.0714C20.96 28.5849 21.351 28.1905 21.8333 28.1905ZM3.16145 6.3781H3.80771C4.29004 6.3781 4.68105 6.77251 4.68105 7.25905V7.91095C4.68105 8.39749 4.29004 8.7919 3.80771 8.7919H3.16145C2.67912 8.7919 2.28811 8.39749 2.28811 7.91095V7.25905C2.28811 6.77251 2.67912 6.3781 3.16145 6.3781Z" fill="#0437F2"/>
<path fill-rule="evenodd" clip-rule="evenodd" d="M49.6402 17.5662H49.6926V17.6014L49.6402 17.5662ZM49.6926 17.5662H53.8846V17.8833C53.8846 18.5881 53.7449 19.1519 53.4829 19.5924C53.2209 20.0328 52.8017 20.3324 52.2777 20.5086C51.7362 20.6847 51.055 20.7728 50.2166 20.7728C49.221 20.7728 48.4001 20.6143 47.7887 20.2795C47.1599 19.9447 46.7233 19.4338 46.4263 18.7114C46.1294 17.989 46.0071 17.0376 46.0071 15.8571C46.0071 14.6767 46.1469 13.7076 46.4089 12.9852C46.6709 12.2628 47.1075 11.7519 47.7189 11.4171C48.3302 11.0824 49.0987 10.9238 50.0419 10.9238C51.3345 10.9238 52.2602 11.1528 52.8191 11.6286C53.3781 12.1043 53.6401 12.8619 53.6401 13.9014V14.0247H55.9632V13.8838C55.9632 12.8443 55.7361 11.9457 55.2645 11.1881C54.7929 10.4305 54.1291 9.83141 53.2558 9.42618C52.3825 9.02094 51.3345 8.80951 50.1118 8.80951C48.7843 8.80951 47.649 9.09141 46.6883 9.67284C45.7277 10.2543 44.9766 11.0647 44.4701 12.1219C43.9461 13.179 43.6841 14.4124 43.6841 15.8571C43.6841 17.3019 43.9286 18.5528 44.4002 19.61C44.8718 20.6671 45.5705 21.4776 46.4613 22.059C47.3521 22.6405 48.435 22.9224 49.7275 22.9224C50.4786 22.9224 51.1424 22.8167 51.7188 22.5876C52.2952 22.3586 52.7493 22.0767 53.1335 21.7243C53.5003 21.3719 53.7798 20.9843 53.9545 20.579H54.0418V22.7286H56.0505V15.6986H49.6926V17.5662ZM67.4387 17.3371C67.4387 18.1476 67.3165 18.8171 67.0894 19.3105C66.8623 19.8214 66.4781 20.1914 65.9541 20.4205C65.4301 20.6495 64.7139 20.7728 63.8231 20.7728C62.9323 20.7728 62.2337 20.6495 61.7097 20.4205C61.1857 20.1914 60.8189 19.8214 60.5743 19.3105C60.3473 18.8171 60.225 18.1476 60.225 17.3371V9.00332H58.0591V17.3371C58.0591 18.5 58.2862 19.4867 58.7403 20.3147C59.1945 21.1428 59.8582 21.7771 60.7141 22.2176C61.5699 22.6581 62.6179 22.8871 63.8231 22.8871C65.0283 22.8871 66.0938 22.6581 66.9497 22.2176C67.8055 21.7771 68.4518 21.1428 68.9059 20.3147C69.3601 19.4867 69.5871 18.4824 69.5871 17.3371V9.00332H67.4213V17.3371H67.4387ZM78.8445 17.0024C79.3335 17.1609 79.7528 17.4076 80.0672 17.7071L80.1021 17.6543C80.4165 17.9714 80.6959 18.359 80.958 18.8347L83.0016 22.6405H80.4514L78.5301 19.1167C78.3205 18.729 78.1109 18.3943 77.8838 18.13C77.6393 17.8657 77.3598 17.6895 77.0279 17.5662C76.6961 17.4428 76.2594 17.39 75.7179 17.39H74.111V22.6581H71.9451V8.9857H77.7441C78.7397 8.9857 79.5956 9.14427 80.3292 9.46141C81.0628 9.77855 81.6217 10.2543 82.0234 10.8533C82.4077 11.47 82.6173 12.1924 82.6173 13.0733C82.6173 13.8133 82.4776 14.4476 82.1806 15.0114C81.8837 15.5752 81.4645 16.0157 80.9056 16.3152C80.3466 16.6324 79.6479 16.8086 78.8445 16.8438V17.0024ZM74.0761 15.5928H77.9886C78.862 15.5928 79.4908 15.4167 79.875 15.0643C80.2418 14.7119 80.434 14.1128 80.434 13.2671C80.434 12.4567 80.2593 11.8752 79.875 11.5228C79.4908 11.1528 78.862 10.9767 77.9886 10.9767H74.0761V15.5928ZM92.6606 9.83141C91.6301 9.28522 90.4249 9.00332 89.0101 9.00332H84.2067V22.6757H89.0101C90.4074 22.6757 91.6301 22.3938 92.6606 21.83C93.6911 21.2662 94.4771 20.4909 95.0361 19.469C95.595 18.4471 95.8745 17.2314 95.8745 15.8395C95.8745 14.4476 95.595 13.1967 95.0361 12.1924C94.4771 11.1881 93.6911 10.3776 92.6606 9.83141ZM93.0973 18.6762C92.8003 19.3986 92.3113 19.9095 91.6475 20.2267C90.9838 20.5438 90.1105 20.7024 89.0275 20.7024H86.3901V11.0119H89.0275C90.1105 11.0119 90.9838 11.1705 91.6475 11.4876C92.3113 11.8047 92.8003 12.3157 93.0973 13.0205C93.3942 13.7428 93.5514 14.6767 93.5514 15.8747C93.5514 17.0728 93.3942 17.989 93.0973 18.6938V18.6762ZM95.9967 22.6757L101.254 9.00332H101.289H104.433L109.708 22.6757H107.333L105.935 19.099H99.6647L98.2674 22.6757H95.9967ZM101.831 13.5314L100.416 17.1433H100.433H105.167L103.752 13.5314L102.879 10.9943H102.721L101.831 13.5314ZM119.158 10.9943V9.00332H114.546H112.38H107.769V10.9943H112.38V22.6933H114.546V10.9943H119.158ZM130.948 22.6933H128.59L127.192 19.1167H120.922L119.524 22.6933H117.254L122.511 9.02094H125.655L130.948 22.6933ZM123.088 13.549L121.673 17.1609H121.69H126.424L125.009 13.549L124.136 11.0119H123.978L123.088 13.549Z" fill="#231F20"/>
<path fill-rule="evenodd" clip-rule="evenodd" d="M110.389 29.7938H109.708V35.3614H110.389V29.7938ZM102.704 34.8857C102.25 34.8857 101.796 34.7272 101.499 34.5333L101.516 34.5686L101.342 35.1324C101.621 35.3262 102.162 35.4672 102.669 35.4672C103.909 35.4672 104.503 34.7624 104.503 33.9519C104.503 33.1767 104.066 32.7538 103.176 32.4014C102.442 32.1195 102.128 31.8729 102.128 31.3795C102.128 31.0095 102.39 30.5867 103.106 30.5867C103.577 30.5867 103.927 30.7453 104.101 30.8333L104.293 30.2695C104.066 30.1286 103.682 30.0053 103.141 30.0053C102.128 30.0053 101.446 30.6043 101.446 31.4324C101.446 32.1724 101.97 32.6305 102.826 32.93C103.525 33.2119 103.804 33.4938 103.804 33.9872C103.804 34.5157 103.403 34.8857 102.704 34.8857ZM45.0989 30.0405C44.5749 30.0405 44.0858 30.0757 43.6666 30.1462H43.6492V35.3438C43.981 35.3967 44.3828 35.4143 44.8718 35.4143C45.9024 35.4143 46.7058 35.15 47.1949 34.6567C47.684 34.1633 47.946 33.4586 47.946 32.5953C47.946 31.7319 47.684 31.1153 47.2124 30.6924C46.7582 30.2695 46.077 30.0405 45.0989 30.0405ZM45.029 34.8505C44.767 34.8505 44.5225 34.8505 44.3478 34.8153H44.3653V30.6395C44.54 30.6043 44.802 30.5691 45.1513 30.5691C46.5661 30.5691 47.2648 31.3619 47.2648 32.6129C47.2648 34.04 46.4788 34.8505 45.029 34.8505ZM50.8454 34.8857L50.8978 35.3614V35.3791H51.5266C51.4567 35.1148 51.4567 34.7976 51.4567 34.4629V33.0357C51.4567 32.2781 51.1773 31.4853 50.0245 31.4853C49.5529 31.4853 49.0987 31.6086 48.7843 31.82L48.9415 32.2781C49.2035 32.1019 49.5703 31.9962 49.9197 31.9962C50.6882 31.9962 50.7755 32.56 50.7755 32.8772V32.9476C49.3258 32.93 48.5223 33.441 48.5223 34.3572C48.5223 34.9033 48.9066 35.4495 49.6751 35.4495C50.2166 35.4495 50.6183 35.1852 50.8279 34.8857H50.8454ZM49.2035 34.2691C49.2035 33.5467 50.0419 33.4233 50.793 33.4233V34.0753C50.793 34.1457 50.7755 34.2162 50.7581 34.2867L50.7581 34.2867C50.6533 34.6038 50.3389 34.921 49.8498 34.921C49.5005 34.921 49.2035 34.7095 49.2035 34.2691ZM53.3606 30.481V31.5733H54.3388V32.1019H53.3606V34.1457C53.3606 34.6214 53.5004 34.8857 53.8672 34.8857C54.0418 34.8857 54.1816 34.8681 54.2689 34.8329L54.3038 35.3438C54.1641 35.3967 53.9545 35.4319 53.6925 35.4319C53.3781 35.4319 53.1161 35.3262 52.9589 35.15C52.7668 34.9386 52.6969 34.6038 52.6969 34.1633V32.1019H52.1205V31.5733H52.6969V30.6572L53.3606 30.481ZM57.1334 34.8857L57.1858 35.3614V35.3791H57.8146C57.7448 35.1148 57.7448 34.7977 57.7448 34.4629V34.4629V33.0357C57.7448 32.2781 57.4653 31.4853 56.3125 31.4853C55.8409 31.4853 55.3868 31.6086 55.0724 31.82L55.2296 32.2781C55.4916 32.1019 55.8584 31.9962 56.2077 31.9962C56.9762 31.9962 57.0636 32.56 57.0636 32.8772V32.9476C55.6138 32.93 54.8104 33.441 54.8104 34.3572C54.8104 34.9033 55.1946 35.4495 55.9632 35.4495C56.5046 35.4495 56.9064 35.1852 57.116 34.8857H57.1334ZM55.4916 34.2691C55.4916 33.5467 56.33 33.4233 57.081 33.4233V34.0753C57.081 34.1457 57.0636 34.2162 57.0461 34.2867L57.0461 34.2867C56.9413 34.6038 56.6269 34.921 56.1378 34.921C55.7885 34.921 55.4916 34.7095 55.4916 34.2691ZM63.2468 32.8772H61.2032V34.78H63.4738V35.3438H60.522V30.0581H63.3516V30.6219H61.2032V32.2957H63.2468V32.8595V32.8772ZM64.2948 31.5733C64.3297 31.8905 64.3297 32.2076 64.3297 32.5953L64.3122 32.6129V35.3791H64.9934V33.1062C64.9934 33.0005 65.0109 32.8772 65.0458 32.7891C65.1506 32.4014 65.4999 32.0843 65.9541 32.0843C66.6003 32.0843 66.8274 32.5953 66.8274 33.2119V35.3967H67.5086V33.1238C67.5086 31.82 66.7052 31.5029 66.1812 31.5029C65.5698 31.5029 65.1332 31.8553 64.941 32.2076L64.9061 31.5733H64.2948ZM71.861 31.9673L71.861 31.9673V31.9673V31.9674V31.9674V31.9674V31.9674V31.9675V31.9675V31.9675V31.9675V31.9676V31.9676V31.9676V31.9677V31.9677V31.9677V31.9678V31.9678C71.8513 32.1496 71.8404 32.3564 71.8404 32.6129V34.8153C71.8404 35.6786 71.6657 36.2248 71.2989 36.5419C70.9321 36.8943 70.4081 37 69.9365 37C69.4649 37 68.9933 36.8943 68.6789 36.6829L68.8536 36.1543C69.0981 36.3129 69.4998 36.4538 69.954 36.4538C70.6526 36.4538 71.1592 36.0838 71.1592 35.1324V34.7095C70.9496 35.0619 70.5478 35.3438 69.954 35.3438C69.0282 35.3438 68.347 34.551 68.347 33.4938C68.347 32.2076 69.1854 31.4853 70.0413 31.4853C70.6876 31.4853 71.0544 31.8376 71.2116 32.1372L71.2465 31.5733H71.8404H71.8753C71.8753 31.6973 71.8686 31.8246 71.861 31.9673ZM71.1766 33.071C71.1766 32.9476 71.1766 32.8595 71.1417 32.7538C71.0194 32.3486 70.6876 32.0314 70.181 32.0314C69.5348 32.0314 69.0632 32.5953 69.0632 33.4586C69.0632 34.1986 69.43 34.8153 70.181 34.8153C70.6002 34.8153 70.9845 34.551 71.1242 34.1105C71.1592 33.9872 71.1766 33.8638 71.1766 33.7405V33.071ZM73.2726 30.9214C73.5521 30.9214 73.7093 30.7276 73.7093 30.4986H73.6918C73.6918 30.2695 73.5171 30.0757 73.2726 30.0757C73.0281 30.0757 72.8534 30.2695 72.8534 30.4986C72.8534 30.7276 73.0281 30.9214 73.2726 30.9214ZM72.9407 31.5733V35.3614H73.6219V31.5733H72.9407ZM74.7573 32.5953C74.7573 32.2076 74.7573 31.8905 74.7223 31.5733H75.3337L75.3686 32.2076C75.5607 31.8553 75.9974 31.5029 76.6087 31.5029C77.1327 31.5029 77.9362 31.82 77.9362 33.1238V35.3967H77.255V33.2119C77.255 32.5953 77.0279 32.0843 76.3817 32.0843C75.9275 32.0843 75.5782 32.4014 75.4734 32.7891C75.4385 32.8772 75.421 33.0005 75.421 33.1062V35.3791H74.7398V32.6129L74.7573 32.5953ZM80.7484 34.9033C80.0672 34.9033 79.4558 34.5157 79.4558 33.5819L79.4733 33.5643H82.1108C82.1282 33.4938 82.1282 33.3881 82.1282 33.2472C82.1282 32.56 81.7964 31.4676 80.5737 31.4676C79.4733 31.4676 78.8096 32.3662 78.8096 33.5114C78.8096 34.6567 79.5082 35.4319 80.661 35.4319C81.2724 35.4319 81.6741 35.3086 81.9186 35.2029L81.7964 34.7095C81.5344 34.8153 81.2374 34.9033 80.7484 34.9033ZM80.5213 31.961C81.2898 31.961 81.4645 32.6481 81.4645 33.0886H79.4733C79.5257 32.6129 79.8226 31.961 80.5213 31.961ZM83.3509 33.5819C83.3509 34.5157 83.9622 34.9033 84.6434 34.9033C85.1325 34.9033 85.4294 34.8153 85.6914 34.7095L85.8137 35.2029C85.5692 35.3086 85.1674 35.4319 84.5561 35.4319C83.4033 35.4319 82.7046 34.6567 82.7046 33.5114C82.7046 32.3662 83.3684 31.4676 84.4688 31.4676C85.6914 31.4676 86.0233 32.56 86.0233 33.2472V33.2473C86.0233 33.3882 86.0233 33.4938 86.0058 33.5643H83.3684L83.3509 33.5819ZM85.3596 33.0886C85.3596 32.6481 85.1849 31.961 84.4164 31.961C83.7177 31.961 83.4208 32.6129 83.3684 33.0886H85.3596ZM86.8268 31.5733C86.8617 31.9257 86.8617 32.3133 86.8617 32.7538V35.3614H87.5429V33.3353C87.5429 33.28 87.5524 33.2199 87.5615 33.1626C87.5699 33.1102 87.5778 33.0601 87.5778 33.0181C87.6652 32.5072 87.997 32.1372 88.4861 32.1372C88.5734 32.1372 88.7132 32.1548 88.7132 32.1548V31.5029C88.6608 31.4853 88.5909 31.4853 88.5211 31.4853H88.521C88.0494 31.4853 87.6477 31.8024 87.473 32.3133H87.4206V31.5733H86.8268ZM90.1978 30.4986C90.1978 30.7276 90.0406 30.9214 89.7612 30.9214C89.5166 30.9214 89.342 30.7276 89.342 30.4986C89.342 30.2695 89.5166 30.0757 89.7612 30.0757C90.0057 30.0757 90.1804 30.2695 90.1804 30.4986H90.1978ZM89.4293 35.3614V31.5733H90.1105V35.3614H89.4293ZM91.2283 31.5733C91.2633 31.8905 91.2633 32.2076 91.2633 32.5953L91.2458 32.6129V35.3791H91.927V33.1062C91.927 33.0005 91.9445 32.8772 91.9794 32.7891C92.0842 32.4014 92.4335 32.0843 92.8877 32.0843C93.5339 32.0843 93.761 32.5953 93.761 33.2119V35.3967H94.4422V33.1238C94.4422 31.82 93.6387 31.5029 93.1147 31.5029C92.5034 31.5029 92.0667 31.8553 91.8746 32.2076L91.8397 31.5733H91.2283ZM98.8089 31.5733C98.8089 31.6973 98.8021 31.8246 98.7946 31.9673L98.7946 31.9674C98.7849 32.1493 98.774 32.3562 98.774 32.6129V34.8153C98.774 35.6786 98.5993 36.2248 98.2325 36.5419C97.8657 36.8943 97.3417 37 96.8701 37C96.3985 37 95.9269 36.8943 95.6125 36.6829L95.7872 36.1543C96.0317 36.3129 96.4334 36.4538 96.8876 36.4538C97.5862 36.4538 98.0928 36.0838 98.0928 35.1324V34.7095C97.8832 35.0619 97.4814 35.3438 96.8876 35.3438C95.9618 35.3438 95.2806 34.551 95.2806 33.4938C95.2806 32.2076 96.119 31.4853 96.9749 31.4853C97.6212 31.4853 97.988 31.8376 98.1452 32.1372L98.1801 31.5733H98.774H98.8089ZM98.1102 33.071V33.0709C98.1102 32.9476 98.1102 32.8595 98.0753 32.7538C97.953 32.3486 97.6212 32.0314 97.1146 32.0314C96.4684 32.0314 95.9968 32.5953 95.9968 33.4586C95.9968 34.1986 96.3636 34.8153 97.1146 34.8153C97.5338 34.8153 97.9181 34.551 98.0578 34.1105C98.0928 33.9872 98.1102 33.8638 98.1102 33.7405V33.071ZM108.852 33.441C108.852 34.8505 107.892 35.4495 106.983 35.4495C105.97 35.4495 105.184 34.6919 105.184 33.4938C105.184 32.2253 106.005 31.4853 107.053 31.4853C108.101 31.4853 108.87 32.2781 108.87 33.441H108.852ZM105.865 33.4762C105.865 34.3043 106.337 34.9386 107.001 34.9386C107.664 34.9386 108.136 34.3219 108.136 33.4586C108.136 32.8243 107.822 31.9962 107.018 31.9962C106.215 31.9962 105.865 32.7538 105.865 33.4762ZM114.686 34.3219V34.3222C114.686 34.7097 114.686 35.062 114.721 35.3614H114.11L114.075 34.7448C113.9 35.0443 113.498 35.4495 112.835 35.4495C112.241 35.4495 111.542 35.1148 111.542 33.7933V31.5733H112.223V33.67C112.223 34.3924 112.433 34.8857 113.062 34.8857C113.516 34.8857 113.83 34.5686 113.97 34.2514C114.005 34.1457 114.04 34.0224 114.04 33.8991V31.5733H114.721V34.3395L114.686 34.3219ZM116.642 31.5733V30.481L115.979 30.6572V31.5733H115.402V32.1019H115.979V34.1633C115.979 34.6038 116.049 34.9386 116.241 35.15C116.398 35.3262 116.66 35.4319 116.974 35.4319C117.236 35.4319 117.446 35.3967 117.586 35.3438L117.551 34.8329C117.463 34.8681 117.324 34.8857 117.149 34.8857C116.782 34.8857 116.642 34.6214 116.642 34.1457V32.1019H117.62V31.5733H116.642ZM119.158 30.4986C119.158 30.7276 119 30.9214 118.721 30.9214C118.476 30.9214 118.302 30.7276 118.302 30.4986C118.302 30.2695 118.476 30.0757 118.721 30.0757C118.965 30.0757 119.14 30.2695 119.14 30.4986H119.158ZM118.389 35.3614V31.5733H119.07V35.3614H118.389ZM121.76 35.4495C122.668 35.4495 123.629 34.8505 123.629 33.441H123.646C123.646 32.2781 122.878 31.4853 121.83 31.4853C120.782 31.4853 119.961 32.2253 119.961 33.4938C119.961 34.6919 120.747 35.4495 121.76 35.4495ZM121.778 34.9386C121.114 34.9386 120.642 34.3043 120.642 33.4762C120.642 32.7538 120.992 31.9962 121.795 31.9962C122.599 31.9962 122.913 32.8243 122.913 33.4586C122.913 34.3219 122.441 34.9386 121.778 34.9386ZM124.485 32.5953V32.595C124.485 32.2075 124.485 31.8904 124.45 31.5733H125.061L125.096 32.2076C125.288 31.8553 125.725 31.5029 126.336 31.5029C126.86 31.5029 127.664 31.82 127.664 33.1238V35.3967H126.983V33.2119C126.983 32.5953 126.756 32.0843 126.109 32.0843C125.655 32.0843 125.306 32.4014 125.184 32.7891C125.149 32.8772 125.131 33.0005 125.131 33.1062V35.3791H124.45V32.6129L124.485 32.5953ZM129.62 34.9386C129.271 34.9386 128.921 34.7976 128.712 34.6567V34.6391L128.537 35.1676C128.799 35.3262 129.166 35.4319 129.585 35.4319C130.493 35.4319 131 34.9562 131 34.2867C131 33.7229 130.668 33.3881 130.022 33.1414C129.533 32.9653 129.306 32.8243 129.306 32.5072C129.306 32.2253 129.533 31.9962 129.934 31.9962C130.284 31.9962 130.563 32.1195 130.703 32.2076L130.878 31.7143C130.668 31.591 130.336 31.4853 129.952 31.4853C129.148 31.4853 128.659 31.9786 128.659 32.5953C128.659 33.0533 128.974 33.4233 129.655 33.67C130.162 33.8638 130.354 34.0576 130.354 34.3748C130.354 34.6919 130.109 34.9386 129.62 34.9386Z" fill="#231F20"/>
</g>
<defs>
<clipPath id="clip0_25_83898">
<rect width="131" height="37" fill="white"/>
</clipPath>
</defs>
</svg>
