<svg width="22" height="22" viewBox="0 0 22 22" fill="none" xmlns="http://www.w3.org/2000/svg">
<path d="M11 2.75C8.48096 2.75 6.28955 4.50098 5.68262 6.90723C4.2002 7.12744 3.02393 8.30908 2.79297 9.84521C1.14941 10.4038 0 11.9722 0 13.75C0 16.022 1.85303 17.875 4.125 17.875H8.25V16.5H4.125C2.61035 16.5 1.375 15.2646 1.375 13.75C1.375 12.4448 2.3042 11.3115 3.57715 11.0537L4.14111 10.8926L4.125 10.3125C4.125 9.17383 5.04883 8.25 6.11768 8.24463L6.85352 8.26074L6.93945 7.66455C7.22412 5.64502 8.96973 4.125 11 4.125C12.6597 4.125 14.1528 5.11328 14.8027 6.63867L15.0444 7.22949L15.646 7.02539C15.9575 6.92334 16.2368 6.875 16.5 6.875C18.0146 6.875 19.25 8.11035 19.25 9.625C19.25 9.94727 19.1855 10.2749 19.0566 10.6025L18.8633 11.1289L19.3359 11.4297C20.1416 11.9399 20.625 12.8047 20.625 13.75C20.625 15.0552 19.7065 16.1509 18.4819 16.4302C18.7773 16.79 18.9922 17.2036 19.1157 17.6602C20.7808 17.1338 22 15.5923 22 13.75C22 12.5146 21.4522 11.3599 20.5068 10.5811C20.5874 10.2642 20.625 9.9419 20.625 9.625C20.625 7.12207 18.4121 5.08106 15.8018 5.56445C14.835 3.84033 13.0142 2.75 11 2.75ZM13.0625 11C12.1655 11 11.4082 11.5747 11.1289 12.375H13.0625C13.4438 12.375 13.75 12.6812 13.75 13.0625C13.75 13.4438 13.4438 13.75 13.0625 13.75H6.875V15.125H13.0625C14.2012 15.125 15.125 14.2012 15.125 13.0625C15.125 11.9238 14.2012 11 13.0625 11ZM9.625 16.5V17.875H15.8125C16.1938 17.875 16.5 18.1812 16.5 18.5625C16.5 18.9438 16.1938 19.25 15.8125 19.25H13.8789C14.1582 20.0503 14.9155 20.625 15.8125 20.625C16.9512 20.625 17.875 19.7012 17.875 18.5625C17.875 17.4238 16.9512 16.5 15.8125 16.5H9.625Z" fill="#636E95"/>
</svg>
