<svg width="22" height="22" viewBox="0 0 22 22" fill="none" xmlns="http://www.w3.org/2000/svg">
<path d="M3.4375 1.375C2.3042 1.375 1.375 2.3042 1.375 3.4375V14.4375C1.375 15.5708 2.3042 16.5 3.4375 16.5H5.5V19.8462L10.522 16.5H17.1875C18.3208 16.5 19.25 15.5708 19.25 14.4375V3.4375C19.25 2.3042 18.3208 1.375 17.1875 1.375H3.4375ZM3.4375 2.75H17.1875C17.5742 2.75 17.875 3.05078 17.875 3.4375V14.4375C17.875 14.8242 17.5742 15.125 17.1875 15.125H10.103L6.875 17.2788V15.125H3.4375C3.05078 15.125 2.75 14.8242 2.75 14.4375V3.4375C2.75 3.05078 3.05078 2.75 3.4375 2.75ZM6.1875 8.25C5.80615 8.25 5.5 8.55615 5.5 8.9375C5.5 9.31885 5.80615 9.625 6.1875 9.625C6.56885 9.625 6.875 9.31885 6.875 8.9375C6.875 8.55615 6.56885 8.25 6.1875 8.25ZM10.3125 8.25C9.93115 8.25 9.625 8.55615 9.625 8.9375C9.625 9.31885 9.93115 9.625 10.3125 9.625C10.6938 9.625 11 9.31885 11 8.9375C11 8.55615 10.6938 8.25 10.3125 8.25ZM14.4375 8.25C14.0562 8.25 13.75 8.55615 13.75 8.9375C13.75 9.31885 14.0562 9.625 14.4375 9.625C14.8188 9.625 15.125 9.31885 15.125 8.9375C15.125 8.55615 14.8188 8.25 14.4375 8.25Z" fill="#636E95"/>
</svg>
