<svg width="22" height="22" viewBox="0 0 22 22" fill="none" xmlns="http://www.w3.org/2000/svg">
<g id="icons8-layers 1">
<path id="Vector" d="M11.0004 1.375C10.885 1.37461 10.7714 1.40324 10.67 1.45826L3.10754 5.58326C2.99879 5.6423 2.90799 5.72961 2.84472 5.83595C2.78144 5.9423 2.74805 6.06376 2.74805 6.1875C2.74805 6.31125 2.78144 6.4327 2.84472 6.53905C2.90799 6.6454 2.99879 6.73271 3.10754 6.79175L5.77966 8.25L3.10754 9.70826C2.99879 9.7673 2.90799 9.85461 2.84472 9.96095C2.78144 10.0673 2.74805 10.1888 2.74805 10.3125C2.74805 10.4363 2.78144 10.5577 2.84472 10.6641C2.90799 10.7704 2.99879 10.8577 3.10754 10.9168L5.77966 12.375L3.10754 13.8333C2.99879 13.8923 2.90799 13.9796 2.84472 14.086C2.78144 14.1923 2.74805 14.3138 2.74805 14.4375C2.74805 14.5613 2.78144 14.6827 2.84472 14.7891C2.90799 14.8954 2.99879 14.9827 3.10754 15.0418L10.67 19.1668C10.7713 19.2222 10.8849 19.2513 11.0004 19.2513C11.1158 19.2513 11.2294 19.2222 11.3307 19.1668L18.8932 15.0418C19.0019 14.9827 19.0927 14.8954 19.156 14.7891C19.2193 14.6827 19.2527 14.5613 19.2527 14.4375C19.2527 14.3138 19.2193 14.1923 19.156 14.086C19.0927 13.9796 19.0019 13.8923 18.8932 13.8333L16.2211 12.375L18.8932 10.9168C19.0019 10.8577 19.0927 10.7704 19.156 10.6641C19.2193 10.5577 19.2527 10.4363 19.2527 10.3125C19.2527 10.1888 19.2193 10.0673 19.156 9.96095C19.0927 9.85461 19.0019 9.7673 18.8932 9.70826L16.2211 8.25L18.8932 6.79175C19.0019 6.73271 19.0927 6.6454 19.156 6.53905C19.2193 6.4327 19.2527 6.31125 19.2527 6.1875C19.2527 6.06376 19.2193 5.9423 19.156 5.83595C19.0927 5.72961 19.0019 5.6423 18.8932 5.58326L11.3307 1.45826C11.2293 1.40324 11.1157 1.37461 11.0004 1.375ZM11.0004 2.84668L17.1261 6.1875L14.4513 7.64576L11.0004 9.52832L4.87463 6.1875L11.0004 2.84668ZM7.21911 9.03418L10.67 10.9168C10.7713 10.9722 10.8849 11.0013 11.0004 11.0013C11.1158 11.0013 11.2294 10.9722 11.3307 10.9168L14.7816 9.03418L17.1261 10.3125L14.454 11.7708L11.0004 13.6533L7.54138 11.7681L4.87463 10.3125L7.21911 9.03418ZM7.21911 13.1592L10.67 15.0418C10.7713 15.0972 10.8849 15.1263 11.0004 15.1263C11.1158 15.1263 11.2294 15.0972 11.3307 15.0418L14.7816 13.1592L17.1261 14.4375L11.0004 17.7783L4.87463 14.4375L7.21911 13.1592Z" fill="#636E95"/>
</g>
</svg>
