<svg width="32" height="32" viewBox="0 0 32 32" fill="none" xmlns="http://www.w3.org/2000/svg">
<rect x="1" y="1" width="30" height="30" rx="15" fill="#E3F1FF"/>
<path d="M17.0812 21.625C16.9714 21.8144 16.8136 21.9717 16.6239 22.081C16.4341 22.1903 16.219 22.2478 16 22.2478C15.781 22.2478 15.5659 22.1903 15.3761 22.081C15.1863 21.9717 15.0286 21.8144 14.9187 21.625M19.75 13.5C19.75 12.5054 19.3549 11.5516 18.6517 10.8483C17.9484 10.1451 16.9946 9.75 16 9.75C15.0054 9.75 14.0516 10.1451 13.3483 10.8483C12.6451 11.5516 12.25 12.5054 12.25 13.5C12.25 17.875 10.375 19.125 10.375 19.125H21.625C21.625 19.125 19.75 17.875 19.75 13.5Z" stroke="#3662FF" stroke-width="1.5" stroke-linecap="round" stroke-linejoin="round"/>
<rect x="1" y="1" width="30" height="30" rx="15" stroke="#E3F1FF"/>
</svg>
