<svg width="22" height="22" viewBox="0 0 22 22" fill="none" xmlns="http://www.w3.org/2000/svg">
<path d="M7.5625 1.375C6.4292 1.375 5.5 2.3042 5.5 3.4375V4.125H3.4375C2.3042 4.125 1.375 5.0542 1.375 6.1875V14.4375C1.375 15.5708 2.3042 16.5 3.4375 16.5H17.1875C18.3208 16.5 19.25 15.5708 19.25 14.4375V6.1875C19.25 5.0542 18.3208 4.125 17.1875 4.125H15.125V3.4375C15.125 2.3042 14.1958 1.375 13.0625 1.375H7.5625ZM8.25 2.75H12.375C12.375 3.50195 12.998 4.125 13.75 4.125V9.625H12.2461C12.3213 9.41016 12.375 9.1792 12.375 8.9375C12.375 7.8042 11.4458 6.875 10.3125 6.875C9.1792 6.875 8.25 7.8042 8.25 8.9375C8.25 9.1792 8.30371 9.41016 8.37891 9.625H6.875V4.125C7.62695 4.125 8.25 3.50195 8.25 2.75ZM10.3125 4.125C9.93115 4.125 9.625 4.43115 9.625 4.8125C9.625 5.19385 9.93115 5.5 10.3125 5.5C10.6938 5.5 11 5.19385 11 4.8125C11 4.43115 10.6938 4.125 10.3125 4.125ZM3.4375 5.5H5.5V9.625H4.125V11H16.5V9.625H15.125V5.5H17.1875C17.5742 5.5 17.875 5.80078 17.875 6.1875V14.4375C17.875 14.8242 17.5742 15.125 17.1875 15.125H3.4375C3.05078 15.125 2.75 14.8242 2.75 14.4375V6.1875C2.75 5.80078 3.05078 5.5 3.4375 5.5ZM10.3125 8.25C10.6992 8.25 11 8.55078 11 8.9375C11 9.32422 10.6992 9.625 10.3125 9.625C9.92578 9.625 9.625 9.32422 9.625 8.9375C9.625 8.55078 9.92578 8.25 10.3125 8.25ZM5.5 17.875V19.25H15.125V17.875H5.5Z" fill="#636E95"/>
</svg>
