<svg width="42" height="42" viewBox="0 0 42 42" fill="none" xmlns="http://www.w3.org/2000/svg">
<rect width="42" height="42" rx="8" fill="#ECF0FF"/>
<path d="M17.4375 9C15.8921 9 14.625 10.2671 14.625 11.8125V12.75H11.8125C10.2671 12.75 9 14.0171 9 15.5625V26.8125C9 28.3579 10.2671 29.625 11.8125 29.625H30.5625C32.1079 29.625 33.375 28.3579 33.375 26.8125V15.5625C33.375 14.0171 32.1079 12.75 30.5625 12.75H27.75V11.8125C27.75 10.2671 26.4829 9 24.9375 9H17.4375ZM18.375 10.875H24C24 11.9004 24.8496 12.75 25.875 12.75V20.25H23.8242C23.9268 19.957 24 19.6421 24 19.3125C24 17.7671 22.7329 16.5 21.1875 16.5C19.6421 16.5 18.375 17.7671 18.375 19.3125C18.375 19.6421 18.4482 19.957 18.5508 20.25H16.5V12.75C17.5254 12.75 18.375 11.9004 18.375 10.875ZM21.1875 12.75C20.6675 12.75 20.25 13.1675 20.25 13.6875C20.25 14.2075 20.6675 14.625 21.1875 14.625C21.7075 14.625 22.125 14.2075 22.125 13.6875C22.125 13.1675 21.7075 12.75 21.1875 12.75ZM11.8125 14.625H14.625V20.25H12.75V22.125H29.625V20.25H27.75V14.625H30.5625C31.0898 14.625 31.5 15.0352 31.5 15.5625V26.8125C31.5 27.3398 31.0898 27.75 30.5625 27.75H11.8125C11.2852 27.75 10.875 27.3398 10.875 26.8125V15.5625C10.875 15.0352 11.2852 14.625 11.8125 14.625ZM21.1875 18.375C21.7148 18.375 22.125 18.7852 22.125 19.3125C22.125 19.8398 21.7148 20.25 21.1875 20.25C20.6602 20.25 20.25 19.8398 20.25 19.3125C20.25 18.7852 20.6602 18.375 21.1875 18.375ZM14.625 31.5V33.375H27.75V31.5H14.625Z" fill="#3662FF"/>
</svg>
