<svg width="22" height="22" viewBox="0 0 22 22" fill="none" xmlns="http://www.w3.org/2000/svg">
<path d="M11 2.75C8.72803 2.75 6.875 4.60303 6.875 6.875C6.875 9.14697 8.72803 11 11 11C13.272 11 15.125 9.14697 15.125 6.875C15.125 4.60303 13.272 2.75 11 2.75ZM11 11C7.21338 11 4.125 14.0884 4.125 17.875H5.5C5.5 14.8296 7.95459 12.375 11 12.375C14.0454 12.375 16.5 14.8296 16.5 17.875H17.875C17.875 14.0884 14.7866 11 11 11ZM11 4.125C12.5254 4.125 13.75 5.34961 13.75 6.875C13.75 8.40039 12.5254 9.625 11 9.625C9.47461 9.625 8.25 8.40039 8.25 6.875C8.25 5.34961 9.47461 4.125 11 4.125Z" fill="#636E95"/>
</svg>
