<svg width="16" height="16" viewBox="0 0 16 16" fill="none" xmlns="http://www.w3.org/2000/svg">
<g clip-path="url(#clip0_124_31227)">
<path d="M2.34033 10.0001C2.77259 11.227 3.59188 12.2802 4.67476 13.001C5.75764 13.7218 7.04545 14.0712 8.34414 13.9964C9.64282 13.9217 10.882 13.4269 11.8751 12.5866C12.8681 11.7464 13.5612 10.6061 13.8498 9.3377C14.1385 8.06929 14.0071 6.74143 13.4754 5.5542C12.9438 4.36696 12.0407 3.38466 10.9022 2.7553C9.76375 2.12595 8.45159 1.88364 7.16344 2.06487C5.87529 2.24611 4.68093 2.84108 3.76033 3.76013L0.666992 6.6668M0.666992 6.6668L4.66699 6.6668M0.666992 6.6668L0.666992 2.6668" stroke="white" stroke-width="1.5" stroke-linecap="round" stroke-linejoin="round"/>
</g>
<defs>
<clipPath id="clip0_124_31227">
<rect width="16" height="16" fill="white"/>
</clipPath>
</defs>
</svg>
