<svg width="42" height="42" viewBox="0 0 42 42" fill="none" xmlns="http://www.w3.org/2000/svg">
<rect width="42" height="42" rx="8" fill="#ECF0FF"/>
<path d="M20.0625 7.875C13.3462 7.875 7.875 13.3462 7.875 20.0625C7.875 26.7788 13.3462 32.25 20.0625 32.25C26.7788 32.25 32.25 26.7788 32.25 20.0625C32.25 13.3462 26.7788 7.875 20.0625 7.875ZM20.0625 9.75C25.7681 9.75 30.375 14.3569 30.375 20.0625C30.375 25.7681 25.7681 30.375 20.0625 30.375C14.3569 30.375 9.75 25.7681 9.75 20.0625C9.75 14.3569 14.3569 9.75 20.0625 9.75ZM20.1724 13.5C17.9019 13.6318 16.0488 15.5361 16.0488 17.8506H17.9238C17.9238 16.3271 19.2422 15.1333 20.8535 15.4116C22.0034 15.6094 22.9116 16.7373 22.875 17.9238C22.8457 18.9639 22.2378 19.623 21.3442 20.0186C20.7876 20.2676 20.2603 20.502 19.8135 20.9707C19.3667 21.4395 19.125 22.1353 19.125 22.875H21C21 22.4502 21.0586 22.3843 21.1758 22.2598C21.2856 22.1426 21.5933 21.9595 22.0986 21.7324C23.4976 21.1245 24.6987 19.7842 24.75 17.9824C24.8159 15.8511 23.2852 13.9248 21.1685 13.5586C20.8315 13.5073 20.4946 13.4854 20.1724 13.5ZM19.125 24.75V26.625H21V24.75H19.125Z" fill="#3662FF"/>
</svg>
