<svg width="24" height="24" viewBox="0 0 24 24" fill="none" xmlns="http://www.w3.org/2000/svg">
<path opacity="0.35" d="M17.3333 21.3333H4C1.79067 21.3333 0 19.5427 0 17.3333V4C0 1.79067 1.79067 0 4 0H17.3333C19.5427 0 21.3333 1.79067 21.3333 4V17.3333C21.3333 19.5427 19.5427 21.3333 17.3333 21.3333Z" fill="#1FD0A3"/>
<path d="M9.33366 15.9997C8.99233 15.9997 8.651 15.869 8.391 15.609L4.391 11.609C3.86967 11.0877 3.86967 10.245 4.391 9.72368C4.91233 9.20235 5.755 9.20235 6.27633 9.72368L9.33366 12.781L15.0577 7.05702C15.579 6.53568 16.4217 6.53568 16.943 7.05702C17.4643 7.57835 17.4643 8.42101 16.943 8.94235L10.2763 15.609C10.0163 15.869 9.675 15.9997 9.33366 15.9997Z" fill="#1FD0A3"/>
<path d="M21.1468 2.85352C21.2562 3.21885 21.3335 3.59885 21.3335 4.00018V17.3335C21.3335 19.5428 19.5428 21.3335 17.3335 21.3335H4.00018C3.59885 21.3335 3.21885 21.2562 2.85352 21.1468C3.34952 22.7935 4.85885 24.0002 6.66685 24.0002H20.0002C22.2095 24.0002 24.0002 22.2095 24.0002 20.0002V6.66685C24.0002 4.85885 22.7935 3.34952 21.1468 2.85352Z" fill="#1FD0A3"/>
</svg>
