<svg width="22" height="22" viewBox="0 0 22 22" fill="none" xmlns="http://www.w3.org/2000/svg">
<path d="M7.5625 1.375C6.43152 1.375 5.5 2.30652 5.5 3.4375V18.5625C5.5 19.6935 6.43152 20.625 7.5625 20.625H14.4375C15.5685 20.625 16.5 19.6935 16.5 18.5625V3.4375C16.5 2.30652 15.5685 1.375 14.4375 1.375H7.5625ZM7.5625 2.75H14.4375C14.8245 2.75 15.125 3.05048 15.125 3.4375V18.5625C15.125 18.9495 14.8245 19.25 14.4375 19.25H7.5625C7.17548 19.25 6.875 18.9495 6.875 18.5625V3.4375C6.875 3.05048 7.17548 2.75 7.5625 2.75ZM11 4.125C10.6353 4.125 10.2856 4.26987 10.0277 4.52773C9.76987 4.78559 9.625 5.13533 9.625 5.5C9.625 5.86467 9.76987 6.21441 10.0277 6.47227C10.2856 6.73013 10.6353 6.875 11 6.875C11.3647 6.875 11.7144 6.73013 11.9723 6.47227C12.2301 6.21441 12.375 5.86467 12.375 5.5C12.375 5.13533 12.2301 4.78559 11.9723 4.52773C11.7144 4.26987 11.3647 4.125 11 4.125ZM11 9.625C10.6353 9.625 10.2856 9.76987 10.0277 10.0277C9.76987 10.2856 9.625 10.6353 9.625 11C9.625 11.3647 9.76987 11.7144 10.0277 11.9723C10.2856 12.2301 10.6353 12.375 11 12.375C11.3647 12.375 11.7144 12.2301 11.9723 11.9723C12.2301 11.7144 12.375 11.3647 12.375 11C12.375 10.6353 12.2301 10.2856 11.9723 10.0277C11.7144 9.76987 11.3647 9.625 11 9.625ZM11 15.125C10.6353 15.125 10.2856 15.2699 10.0277 15.5277C9.76987 15.7856 9.625 16.1353 9.625 16.5C9.625 16.8647 9.76987 17.2144 10.0277 17.4723C10.2856 17.7301 10.6353 17.875 11 17.875C11.3647 17.875 11.7144 17.7301 11.9723 17.4723C12.2301 17.2144 12.375 16.8647 12.375 16.5C12.375 16.1353 12.2301 15.7856 11.9723 15.5277C11.7144 15.2699 11.3647 15.125 11 15.125Z" fill="#636E95"/>
</svg>
