<svg width="119" height="110" viewBox="0 0 119 110" fill="none" xmlns="http://www.w3.org/2000/svg">
<rect x="0.666992" width="117.667" height="110" rx="8" fill="#E6F2FF"/>
<g clip-path="url(#clip0_124_30265)">
<path opacity="0.35" d="M66.3575 39.6937L63.8775 36.595C62.69 35.1125 60.895 34.25 58.9975 34.25H52.74C50.9837 34.25 49.3562 35.1712 48.4525 36.6775L46.16 40.5C45.115 41.2875 44.5 42.52 44.5 43.8275V46.75C44.5 48.8212 46.1788 50.5 48.25 50.5H70.75C72.8212 50.5 74.5 48.8212 74.5 46.75V45.7413C74.5 43.74 73.32 41.915 71.4725 41.145C70.2512 40.635 68.5875 40.1087 66.3575 39.6937Z" fill="#0080FF"/>
<path d="M50.125 53C51.8509 53 53.25 51.6009 53.25 49.875C53.25 48.1491 51.8509 46.75 50.125 46.75C48.3991 46.75 47 48.1491 47 49.875C47 51.6009 48.3991 53 50.125 53Z" fill="#0080FF"/>
<path d="M68.875 53C70.6009 53 72 51.6009 72 49.875C72 48.1491 70.6009 46.75 68.875 46.75C67.1491 46.75 65.75 48.1491 65.75 49.875C65.75 51.6009 67.1491 53 68.875 53Z" fill="#0080FF"/>
</g>
<path d="M47.1612 76H45.1839L48.1967 67.2727H50.5746L53.5831 76H51.6058L49.4197 69.267H49.3516L47.1612 76ZM47.0376 72.5696H51.7081V74.0099H47.0376V72.5696ZM55.0994 76V69.4545H56.8594V70.5966H56.9276C57.0469 70.1903 57.2472 69.8835 57.5284 69.6761C57.8097 69.4659 58.1335 69.3608 58.5 69.3608C58.5909 69.3608 58.6889 69.3665 58.794 69.3778C58.8991 69.3892 58.9915 69.4048 59.071 69.4247V71.0355C58.9858 71.0099 58.8679 70.9872 58.7173 70.9673C58.5668 70.9474 58.429 70.9375 58.304 70.9375C58.0369 70.9375 57.7983 70.9957 57.5881 71.1122C57.3807 71.2259 57.2159 71.3849 57.0938 71.5895C56.9744 71.794 56.9148 72.0298 56.9148 72.2969V76H55.0994ZM62.1886 76.1236C61.771 76.1236 61.3988 76.0511 61.0721 75.9062C60.7454 75.7585 60.4869 75.5412 60.2965 75.2543C60.109 74.9645 60.0153 74.6037 60.0153 74.1719C60.0153 73.8082 60.082 73.5028 60.2156 73.2557C60.3491 73.0085 60.5309 72.8097 60.761 72.6591C60.9911 72.5085 61.2525 72.3949 61.5451 72.3182C61.8406 72.2415 62.1502 72.1875 62.4741 72.1562C62.8548 72.1165 63.1616 72.0795 63.3945 72.0455C63.6275 72.0085 63.7965 71.9545 63.9016 71.8835C64.0067 71.8125 64.0593 71.7074 64.0593 71.5682V71.5426C64.0593 71.2727 63.9741 71.0639 63.8036 70.9162C63.636 70.7685 63.3974 70.6946 63.0877 70.6946C62.761 70.6946 62.5011 70.767 62.3079 70.9119C62.1147 71.054 61.9869 71.233 61.9244 71.4489L60.2454 71.3125C60.3306 70.9148 60.4982 70.571 60.7482 70.2812C60.9982 69.9886 61.3207 69.7642 61.7156 69.608C62.1133 69.4489 62.5735 69.3693 63.0962 69.3693C63.4599 69.3693 63.8079 69.4119 64.1403 69.4972C64.4755 69.5824 64.7724 69.7145 65.0309 69.8935C65.2923 70.0724 65.4982 70.3026 65.6488 70.5838C65.7994 70.8622 65.8746 71.196 65.8746 71.5852V76H64.1531V75.0923H64.1019C63.9968 75.2969 63.8562 75.4773 63.68 75.6335C63.5039 75.7869 63.2923 75.9077 63.0451 75.9957C62.7979 76.081 62.5124 76.1236 62.1886 76.1236ZM62.7085 74.8707C62.9755 74.8707 63.2113 74.8182 63.4158 74.7131C63.6204 74.6051 63.7809 74.4602 63.8974 74.2784C64.0138 74.0966 64.0721 73.8906 64.0721 73.6605V72.9659C64.0153 73.0028 63.9371 73.0369 63.8377 73.0682C63.7411 73.0966 63.6317 73.1236 63.5096 73.1491C63.3874 73.1719 63.2653 73.1932 63.1431 73.2131C63.021 73.2301 62.9102 73.2457 62.8107 73.2599C62.5977 73.2912 62.4116 73.3409 62.2525 73.4091C62.0934 73.4773 61.9698 73.5696 61.8817 73.6861C61.7937 73.7997 61.7496 73.9418 61.7496 74.1122C61.7496 74.3594 61.8391 74.5483 62.0181 74.679C62.1999 74.8068 62.43 74.8707 62.7085 74.8707ZM70.7404 76.1278C70.07 76.1278 69.4933 75.9858 69.0103 75.7017C68.5302 75.4148 68.1609 75.017 67.9023 74.5085C67.6467 74 67.5188 73.4148 67.5188 72.7528C67.5188 72.0824 67.6481 71.4943 67.9066 70.9886C68.168 70.4801 68.5387 70.0838 69.0188 69.7997C69.4989 69.5128 70.07 69.3693 70.7319 69.3693C71.3029 69.3693 71.8029 69.473 72.2319 69.6804C72.6609 69.8878 73.0004 70.179 73.2504 70.554C73.5004 70.929 73.6381 71.3693 73.6637 71.875H71.9506C71.9023 71.5483 71.7745 71.2855 71.5671 71.0866C71.3626 70.8849 71.0941 70.7841 70.7617 70.7841C70.4805 70.7841 70.2347 70.8608 70.0245 71.0142C69.8171 71.1648 69.6552 71.3849 69.5387 71.6747C69.4222 71.9645 69.364 72.3153 69.364 72.7273C69.364 73.1449 69.4208 73.5 69.5344 73.7926C69.6509 74.0852 69.8143 74.3082 70.0245 74.4616C70.2347 74.6151 70.4805 74.6918 70.7617 74.6918C70.9691 74.6918 71.1552 74.6491 71.32 74.5639C71.4876 74.4787 71.6254 74.3551 71.7333 74.1932C71.8441 74.0284 71.9165 73.831 71.9506 73.6009H73.6637C73.6353 74.1009 73.4989 74.5412 73.2546 74.9219C73.0131 75.2997 72.6793 75.5952 72.2532 75.8082C71.8271 76.0213 71.3228 76.1278 70.7404 76.1278ZM70.3143 75.9659H71.1495L71.0813 76.3366C71.3739 76.3821 71.6126 76.4915 71.7972 76.6648C71.9847 76.8381 72.0799 77.0739 72.0827 77.3722C72.0856 77.7955 71.8896 78.1321 71.4947 78.3821C71.0998 78.6349 70.5458 78.7614 69.8327 78.7614L69.8157 77.9517C70.1737 77.9517 70.4535 77.9077 70.6552 77.8196C70.8597 77.7344 70.9663 77.6009 70.9748 77.419C70.9805 77.2457 70.9137 77.1136 70.7745 77.0227C70.6353 76.9318 70.418 76.8679 70.1225 76.831L70.3143 75.9659Z" fill="#0080FF"/>
<defs>
<clipPath id="clip0_124_30265">
<rect width="30" height="30" fill="white" transform="translate(44.5 28)"/>
</clipPath>
</defs>
</svg>
