<svg width="118" height="110" viewBox="0 0 118 110" fill="none" xmlns="http://www.w3.org/2000/svg">
<rect width="117.667" height="110" rx="8" fill="#FFF9ED"/>
<path opacity="0.35" d="M66.333 54.2501H51.333C49.2618 54.2501 47.583 52.5713 47.583 50.5001V38.9563C47.583 37.5938 48.3218 36.3401 49.5118 35.6788L57.0118 31.5126C58.1443 30.8838 59.5218 30.8838 60.6543 31.5126L68.1543 35.6788C69.3443 36.3401 70.083 37.5951 70.083 38.9563V50.5001C70.083 52.5713 68.4043 54.2501 66.333 54.2501Z" fill="#FFB800"/>
<path d="M62.583 54.25H55.083V46.75C55.083 45.3687 56.2018 44.25 57.583 44.25H60.083C61.4643 44.25 62.583 45.3687 62.583 46.75V54.25Z" fill="#FFB800"/>
<path d="M69.4565 39.5377C69.1478 39.5377 68.8365 39.4614 68.5477 39.3014L59.999 34.5514C59.269 34.1464 58.399 34.1464 57.669 34.5514L49.1202 39.3014C48.214 39.8039 47.074 39.4789 46.5702 38.5727C46.0677 37.6677 46.3927 36.5264 47.299 36.0227L55.8477 31.2727C57.7177 30.2327 59.9502 30.2339 61.8202 31.2727L70.369 36.0227C71.274 36.5252 71.6003 37.6664 71.0977 38.5727C70.754 39.1902 70.1152 39.5377 69.4565 39.5377Z" fill="#FFB800"/>
<path d="M40.8376 76V67.2727H46.7183V68.794H42.6828V70.8736H46.4157V72.3949H42.6828V74.4787H46.7354V76H40.8376ZM48.6512 76V69.4545H50.3813V70.6094H50.458C50.5944 70.2259 50.8216 69.9233 51.1398 69.7017C51.458 69.4801 51.8387 69.3693 52.2819 69.3693C52.7307 69.3693 53.1128 69.4815 53.4282 69.706C53.7435 69.9276 53.9537 70.2287 54.0589 70.6094H54.127C54.2606 70.2344 54.502 69.9347 54.8515 69.7102C55.2037 69.483 55.6199 69.3693 56.1001 69.3693C56.7108 69.3693 57.2066 69.5639 57.5873 69.9531C57.9708 70.3395 58.1626 70.8878 58.1626 71.598V76H56.3515V71.956C56.3515 71.5923 56.2549 71.3196 56.0617 71.1378C55.8685 70.956 55.627 70.8651 55.3373 70.8651C55.0077 70.8651 54.7506 70.9702 54.566 71.1804C54.3813 71.3878 54.289 71.6619 54.289 72.0028V76H52.529V71.9176C52.529 71.5966 52.4367 71.3409 52.252 71.1506C52.0702 70.9602 51.8302 70.8651 51.5319 70.8651C51.3302 70.8651 51.1483 70.9162 50.9864 71.0185C50.8273 71.1179 50.7009 71.2585 50.6072 71.4403C50.5134 71.6193 50.4665 71.8295 50.4665 72.071V76H48.6512ZM61.9118 67.2727V76H60.0965V67.2727H61.9118ZM65.7325 76.1236C65.3149 76.1236 64.9427 76.0511 64.616 75.9062C64.2893 75.7585 64.0308 75.5412 63.8405 75.2543C63.653 74.9645 63.5592 74.6037 63.5592 74.1719C63.5592 73.8082 63.626 73.5028 63.7595 73.2557C63.893 73.0085 64.0748 72.8097 64.305 72.6591C64.5351 72.5085 64.7964 72.3949 65.089 72.3182C65.3845 72.2415 65.6942 72.1875 66.018 72.1562C66.3987 72.1165 66.7055 72.0795 66.9385 72.0455C67.1714 72.0085 67.3405 71.9545 67.4456 71.8835C67.5507 71.8125 67.6032 71.7074 67.6032 71.5682V71.5426C67.6032 71.2727 67.518 71.0639 67.3476 70.9162C67.18 70.7685 66.9413 70.6946 66.6317 70.6946C66.305 70.6946 66.045 70.767 65.8518 70.9119C65.6586 71.054 65.5308 71.233 65.4683 71.4489L63.7893 71.3125C63.8746 70.9148 64.0422 70.571 64.2922 70.2812C64.5422 69.9886 64.8646 69.7642 65.2595 69.608C65.6572 69.4489 66.1175 69.3693 66.6402 69.3693C67.0038 69.3693 67.3518 69.4119 67.6842 69.4972C68.0194 69.5824 68.3163 69.7145 68.5748 69.8935C68.8362 70.0724 69.0422 70.3026 69.1927 70.5838C69.3433 70.8622 69.4186 71.196 69.4186 71.5852V76H67.697V75.0923H67.6459C67.5407 75.2969 67.4001 75.4773 67.224 75.6335C67.0479 75.7869 66.8362 75.9077 66.589 75.9957C66.3419 76.081 66.0564 76.1236 65.7325 76.1236ZM66.2524 74.8707C66.5194 74.8707 66.7552 74.8182 66.9598 74.7131C67.1643 74.6051 67.3248 74.4602 67.4413 74.2784C67.5578 74.0966 67.616 73.8906 67.616 73.6605V72.9659C67.5592 73.0028 67.4811 73.0369 67.3817 73.0682C67.2851 73.0966 67.1757 73.1236 67.0535 73.1491C66.9314 73.1719 66.8092 73.1932 66.6871 73.2131C66.5649 73.2301 66.4541 73.2457 66.3547 73.2599C66.1416 73.2912 65.9555 73.3409 65.7964 73.4091C65.6373 73.4773 65.5138 73.5696 65.4257 73.6861C65.3376 73.7997 65.2936 73.9418 65.2936 74.1122C65.2936 74.3594 65.3831 74.5483 65.5621 74.679C65.7439 74.8068 65.974 74.8707 66.2524 74.8707ZM72.9719 74.1165L72.9761 71.9389H73.2403L75.3369 69.4545H77.4207L74.604 72.7443H74.1736L72.9719 74.1165ZM71.327 76V67.2727H73.1423V76H71.327ZM75.4179 76L73.4917 73.1491L74.702 71.8665L77.5443 76H75.4179Z" fill="#FFB800"/>
</svg>
