<svg width="118" height="110" viewBox="0 0 118 110" fill="none" xmlns="http://www.w3.org/2000/svg">
<rect x="0.333008" width="117.667" height="110" rx="8" fill="#E9FFF9"/>
<g clip-path="url(#clip0_124_30250)">
<path opacity="0.35" fill-rule="evenodd" clip-rule="evenodd" d="M68.5198 38.24C67.0973 34.4513 63.4523 31.75 59.166 31.75C56.586 31.75 54.241 32.7363 52.4673 34.34C52.2085 34.2838 51.9423 34.25 51.666 34.25C49.5948 34.25 47.916 35.9288 47.916 38C47.916 39.0437 48.3435 39.9863 49.031 40.6663C46.2485 41.2975 44.166 43.7762 44.166 46.75C44.166 50.2013 46.9648 53 50.416 53H66.666C70.8085 53 74.166 49.6425 74.166 45.5C74.166 41.9987 71.7635 39.0675 68.5198 38.24Z" fill="#00D59F"/>
<path fill-rule="evenodd" clip-rule="evenodd" d="M58.7148 37.3L57.0335 36.5387C56.796 36.43 56.6073 36.2362 56.5073 35.995C56.4073 35.7537 56.4035 35.4837 56.4948 35.2387L57.1448 33.5113C57.251 33.2287 57.1823 32.91 56.9685 32.6962C56.7548 32.4825 56.436 32.4137 56.1535 32.52L54.426 33.17C54.181 33.2625 53.911 33.2575 53.6698 33.1575C53.4285 33.0575 53.2335 32.87 53.126 32.6312L52.3673 30.9525C52.2423 30.6762 51.9685 30.5 51.666 30.5C51.3635 30.5 51.0898 30.6762 50.9648 30.9525L50.2035 32.6337C50.0948 32.8712 49.901 33.06 49.6598 33.16C49.4185 33.26 49.1485 33.2638 48.9035 33.1713L47.176 32.5213C46.8935 32.415 46.5748 32.4837 46.361 32.6975C46.1485 32.91 46.0798 33.2287 46.186 33.5113L46.8373 35.2387C46.9298 35.4837 46.9248 35.7537 46.8248 35.995C46.7248 36.2362 46.5373 36.4312 46.2985 36.5387L44.6185 37.2987C44.3423 37.4238 44.166 37.6975 44.166 38C44.166 38.3025 44.3423 38.5763 44.6173 38.7L46.2985 39.4612C46.536 39.57 46.7248 39.7638 46.8248 40.005C46.9248 40.2463 46.9285 40.5162 46.8373 40.7612L46.1873 42.4887C46.081 42.7712 46.1498 43.09 46.3635 43.3038C46.5773 43.5175 46.896 43.5862 47.1785 43.48L48.906 42.83C49.151 42.7375 49.421 42.7425 49.6623 42.8425C49.9035 42.9425 50.0985 43.13 50.206 43.3687L50.9673 45.05C51.0898 45.3238 51.3635 45.5 51.666 45.5C51.9685 45.5 52.2423 45.3237 52.366 45.0487L53.1273 43.3675C53.236 43.13 53.4298 42.9412 53.671 42.8413C53.9123 42.7413 54.1823 42.7375 54.4273 42.8287L56.1548 43.4788C56.4373 43.585 56.756 43.5162 56.9698 43.3025C57.1835 43.0887 57.2523 42.77 57.146 42.4875L56.496 40.76C56.4035 40.515 56.4085 40.245 56.5085 40.0037C56.6085 39.7625 56.796 39.5675 57.0348 39.46L58.716 38.6987C58.9898 38.5763 59.166 38.3025 59.166 38C59.166 37.6975 58.9898 37.4237 58.7148 37.3ZM51.6698 41.2662C49.8685 41.2662 48.4085 39.8062 48.4085 38.005C48.4085 36.2037 49.8685 34.7438 51.6698 34.7438C53.471 34.7438 54.931 36.205 54.931 38.005C54.931 39.8062 53.471 41.2662 51.6698 41.2662Z" fill="#00D59F"/>
<path fill-rule="evenodd" clip-rule="evenodd" d="M60.416 53.6252C60.416 54.6602 59.576 55.5002 58.541 55.5002C57.506 55.5002 56.666 54.6602 56.666 53.6252C56.666 53.0027 57.3448 51.6952 57.8848 50.7527C58.176 50.2452 58.9048 50.2452 59.1973 50.7527C59.7373 51.6952 60.416 53.0027 60.416 53.6252Z" fill="#00D59F"/>
<path fill-rule="evenodd" clip-rule="evenodd" d="M66.666 48.6252C66.666 49.6602 65.826 50.5002 64.791 50.5002C63.756 50.5002 62.916 49.6602 62.916 48.6252C62.916 48.0027 63.5948 46.6952 64.1348 45.7527C64.426 45.2452 65.1548 45.2452 65.4473 45.7527C65.9873 46.6952 66.666 48.0027 66.666 48.6252Z" fill="#00D59F"/>
</g>
<path d="M17.7976 76V67.2727H19.6428V70.8736H23.3885V67.2727H25.2294V76H23.3885V72.3949H19.6428V76H17.7976ZM29.0831 76.1236C28.6655 76.1236 28.2933 76.0511 27.9666 75.9062C27.6399 75.7585 27.3814 75.5412 27.1911 75.2543C27.0036 74.9645 26.9098 74.6037 26.9098 74.1719C26.9098 73.8082 26.9766 73.5028 27.1101 73.2557C27.2436 73.0085 27.4254 72.8097 27.6555 72.6591C27.8857 72.5085 28.147 72.3949 28.4396 72.3182C28.7351 72.2415 29.0447 72.1875 29.3686 72.1562C29.7493 72.1165 30.0561 72.0795 30.2891 72.0455C30.522 72.0085 30.6911 71.9545 30.7962 71.8835C30.9013 71.8125 30.9538 71.7074 30.9538 71.5682V71.5426C30.9538 71.2727 30.8686 71.0639 30.6982 70.9162C30.5305 70.7685 30.2919 70.6946 29.9822 70.6946C29.6555 70.6946 29.3956 70.767 29.2024 70.9119C29.0092 71.054 28.8814 71.233 28.8189 71.4489L27.1399 71.3125C27.2251 70.9148 27.3928 70.571 27.6428 70.2812C27.8928 69.9886 28.2152 69.7642 28.6101 69.608C29.0078 69.4489 29.468 69.3693 29.9908 69.3693C30.3544 69.3693 30.7024 69.4119 31.0348 69.4972C31.37 69.5824 31.6669 69.7145 31.9254 69.8935C32.1868 70.0724 32.3928 70.3026 32.5433 70.5838C32.6939 70.8622 32.7692 71.196 32.7692 71.5852V76H31.0476V75.0923H30.9964C30.8913 75.2969 30.7507 75.4773 30.5746 75.6335C30.3984 75.7869 30.1868 75.9077 29.9396 75.9957C29.6925 76.081 29.407 76.1236 29.0831 76.1236ZM29.603 74.8707C29.87 74.8707 30.1058 74.8182 30.3104 74.7131C30.5149 74.6051 30.6754 74.4602 30.7919 74.2784C30.9084 74.0966 30.9666 73.8906 30.9666 73.6605V72.9659C30.9098 73.0028 30.8317 73.0369 30.7322 73.0682C30.6357 73.0966 30.5263 73.1236 30.4041 73.1491C30.282 73.1719 30.1598 73.1932 30.0376 73.2131C29.9155 73.2301 29.8047 73.2457 29.7053 73.2599C29.4922 73.2912 29.3061 73.3409 29.147 73.4091C28.9879 73.4773 28.8643 73.5696 28.7763 73.6861C28.6882 73.7997 28.6442 73.9418 28.6442 74.1122C28.6442 74.3594 28.7337 74.5483 28.9126 74.679C29.0945 74.8068 29.3246 74.8707 29.603 74.8707ZM40.5455 69.4545L38.2571 76H36.2116L33.9233 69.4545H35.8409L37.2003 74.1378H37.2685L38.6236 69.4545H40.5455ZM43.6651 76.1236C43.2475 76.1236 42.8754 76.0511 42.5487 75.9062C42.2219 75.7585 41.9634 75.5412 41.7731 75.2543C41.5856 74.9645 41.4918 74.6037 41.4918 74.1719C41.4918 73.8082 41.5586 73.5028 41.6921 73.2557C41.8256 73.0085 42.0075 72.8097 42.2376 72.6591C42.4677 72.5085 42.729 72.3949 43.0217 72.3182C43.3171 72.2415 43.6268 72.1875 43.9506 72.1562C44.3313 72.1165 44.6381 72.0795 44.8711 72.0455C45.104 72.0085 45.2731 71.9545 45.3782 71.8835C45.4833 71.8125 45.5359 71.7074 45.5359 71.5682V71.5426C45.5359 71.2727 45.4506 71.0639 45.2802 70.9162C45.1126 70.7685 44.8739 70.6946 44.5643 70.6946C44.2376 70.6946 43.9776 70.767 43.7844 70.9119C43.5913 71.054 43.4634 71.233 43.4009 71.4489L41.7219 71.3125C41.8072 70.9148 41.9748 70.571 42.2248 70.2812C42.4748 69.9886 42.7972 69.7642 43.1921 69.608C43.5898 69.4489 44.0501 69.3693 44.5728 69.3693C44.9364 69.3693 45.2844 69.4119 45.6168 69.4972C45.9521 69.5824 46.2489 69.7145 46.5075 69.8935C46.7688 70.0724 46.9748 70.3026 47.1254 70.5838C47.2759 70.8622 47.3512 71.196 47.3512 71.5852V76H45.6296V75.0923H45.5785C45.4734 75.2969 45.3327 75.4773 45.1566 75.6335C44.9805 75.7869 44.7688 75.9077 44.5217 75.9957C44.2745 76.081 43.989 76.1236 43.6651 76.1236ZM44.185 74.8707C44.4521 74.8707 44.6879 74.8182 44.8924 74.7131C45.0969 74.6051 45.2575 74.4602 45.3739 74.2784C45.4904 74.0966 45.5487 73.8906 45.5487 73.6605V72.9659C45.4918 73.0028 45.4137 73.0369 45.3143 73.0682C45.2177 73.0966 45.1083 73.1236 44.9862 73.1491C44.864 73.1719 44.7418 73.1932 44.6197 73.2131C44.4975 73.2301 44.3867 73.2457 44.2873 73.2599C44.0742 73.2912 43.8881 73.3409 43.729 73.4091C43.57 73.4773 43.4464 73.5696 43.3583 73.6861C43.2702 73.7997 43.2262 73.9418 43.2262 74.1122C43.2262 74.3594 43.3157 74.5483 43.4947 74.679C43.6765 74.8068 43.9066 74.8707 44.185 74.8707ZM55.6648 76H52.571V67.2727H55.6903C56.5682 67.2727 57.3239 67.4474 57.9574 67.7969C58.5909 68.1435 59.0781 68.642 59.419 69.2926C59.7628 69.9432 59.9347 70.7216 59.9347 71.6278C59.9347 72.5369 59.7628 73.3182 59.419 73.9716C59.0781 74.625 58.5881 75.1264 57.9489 75.4759C57.3125 75.8253 56.5511 76 55.6648 76ZM54.4162 74.419H55.5881C56.1335 74.419 56.5923 74.3224 56.9645 74.1293C57.3395 73.9332 57.6207 73.6307 57.8082 73.2216C57.9986 72.8097 58.0938 72.2784 58.0938 71.6278C58.0938 70.983 57.9986 70.456 57.8082 70.0469C57.6207 69.6378 57.3409 69.3366 56.9688 69.1435C56.5966 68.9503 56.1378 68.8537 55.5923 68.8537H54.4162V74.419ZM65.9648 73.2131V69.4545H67.7802V76H66.0373V74.8111H65.9691C65.8214 75.1946 65.5756 75.5028 65.2319 75.7358C64.891 75.9687 64.4748 76.0852 63.9833 76.0852C63.5458 76.0852 63.1609 75.9858 62.8285 75.7869C62.4961 75.5881 62.2362 75.3054 62.0487 74.9389C61.864 74.5724 61.7702 74.1335 61.7674 73.6222V69.4545H63.5827V73.2983C63.5856 73.6847 63.6893 73.9901 63.8938 74.2145C64.0984 74.4389 64.3725 74.5511 64.7163 74.5511C64.935 74.5511 65.1396 74.5014 65.3299 74.402C65.5202 74.2997 65.6737 74.1491 65.7901 73.9503C65.9094 73.7514 65.9677 73.5057 65.9648 73.2131ZM69.7322 76V69.4545H71.4922V70.5966H71.5604C71.6797 70.1903 71.88 69.8835 72.1612 69.6761C72.4425 69.4659 72.7663 69.3608 73.1328 69.3608C73.2237 69.3608 73.3217 69.3665 73.4268 69.3778C73.532 69.3892 73.6243 69.4048 73.7038 69.4247V71.0355C73.6186 71.0099 73.5007 70.9872 73.3501 70.9673C73.1996 70.9474 73.0618 70.9375 72.9368 70.9375C72.6697 70.9375 72.4311 70.9957 72.2209 71.1122C72.0135 71.2259 71.8487 71.3849 71.7266 71.5895C71.6072 71.794 71.5476 72.0298 71.5476 72.2969V76H69.7322ZM79.3398 73.2131V69.4545H81.1552V76H79.4123V74.8111H79.3441C79.1964 75.1946 78.9506 75.5028 78.6069 75.7358C78.266 75.9687 77.8498 76.0852 77.3583 76.0852C76.9208 76.0852 76.5359 75.9858 76.2035 75.7869C75.8711 75.5881 75.6112 75.3054 75.4237 74.9389C75.239 74.5724 75.1452 74.1335 75.1424 73.6222V69.4545H76.9577V73.2983C76.9606 73.6847 77.0643 73.9901 77.2688 74.2145C77.4734 74.4389 77.7475 74.5511 78.0913 74.5511C78.31 74.5511 78.5146 74.5014 78.7049 74.402C78.8952 74.2997 79.0487 74.1491 79.1651 73.9503C79.2844 73.7514 79.3427 73.5057 79.3398 73.2131ZM83.1072 76V69.4545H84.8374V70.6094H84.9141C85.0504 70.2259 85.2777 69.9233 85.5959 69.7017C85.9141 69.4801 86.2947 69.3693 86.7379 69.3693C87.1868 69.3693 87.5689 69.4815 87.8842 69.706C88.1996 69.9276 88.4098 70.2287 88.5149 70.6094H88.5831C88.7166 70.2344 88.9581 69.9347 89.3075 69.7102C89.6598 69.483 90.076 69.3693 90.5561 69.3693C91.1669 69.3693 91.6626 69.5639 92.0433 69.9531C92.4268 70.3395 92.6186 70.8878 92.6186 71.598V76H90.8075V71.956C90.8075 71.5923 90.7109 71.3196 90.5178 71.1378C90.3246 70.956 90.0831 70.8651 89.7933 70.8651C89.4638 70.8651 89.2067 70.9702 89.022 71.1804C88.8374 71.3878 88.745 71.6619 88.745 72.0028V76H86.9851V71.9176C86.9851 71.5966 86.8928 71.3409 86.7081 71.1506C86.5263 70.9602 86.2862 70.8651 85.9879 70.8651C85.7862 70.8651 85.6044 70.9162 85.4425 71.0185C85.2834 71.1179 85.157 71.2585 85.0632 71.4403C84.9695 71.6193 84.9226 71.8295 84.9226 72.071V76H83.1072ZM98.75 73.2131V69.4545H100.565V76H98.8224V74.8111H98.7543C98.6065 75.1946 98.3608 75.5028 98.017 75.7358C97.6761 75.9687 97.2599 76.0852 96.7685 76.0852C96.331 76.0852 95.946 75.9858 95.6136 75.7869C95.2813 75.5881 95.0213 75.3054 94.8338 74.9389C94.6491 74.5724 94.5554 74.1335 94.5526 73.6222V69.4545H96.3679V73.2983C96.3707 73.6847 96.4744 73.9901 96.679 74.2145C96.8835 74.4389 97.1577 74.5511 97.5014 74.5511C97.7202 74.5511 97.9247 74.5014 98.1151 74.402C98.3054 74.2997 98.4588 74.1491 98.5753 73.9503C98.6946 73.7514 98.7528 73.5057 98.75 73.2131Z" fill="#04B78A"/>
<defs>
<clipPath id="clip0_124_30250">
<rect width="30" height="30" fill="white" transform="translate(44.166 28)"/>
</clipPath>
</defs>
</svg>
