<svg width="118" height="110" viewBox="0 0 118 110" fill="none" xmlns="http://www.w3.org/2000/svg">
<rect x="0.333008" width="117.667" height="110" rx="8" fill="#FFEFE6"/>
<path d="M59.166 45.5C60.5467 45.5 61.666 44.3807 61.666 43C61.666 41.6193 60.5467 40.5 59.166 40.5C57.7853 40.5 56.666 41.6193 56.666 43C56.666 44.3807 57.7853 45.5 59.166 45.5Z" fill="#FF7A00"/>
<path d="M59.166 38C60.5467 38 61.666 36.8807 61.666 35.5C61.666 34.1193 60.5467 33 59.166 33C57.7853 33 56.666 34.1193 56.666 35.5C56.666 36.8807 57.7853 38 59.166 38Z" fill="#FF7A00"/>
<path d="M59.166 53C60.5467 53 61.666 51.8807 61.666 50.5C61.666 49.1193 60.5467 48 59.166 48C57.7853 48 56.666 49.1193 56.666 50.5C56.666 51.8807 57.7853 53 59.166 53Z" fill="#FF7A00"/>
<path opacity="0.35" d="M69.166 34.68V34.25C69.166 33.56 68.606 33 67.916 33H67.686C67.1698 31.5462 65.796 30.5 64.166 30.5H54.166C52.536 30.5 51.1623 31.5462 50.646 33H50.416C49.726 33 49.166 33.56 49.166 34.25V34.68C49.166 35.7262 49.6598 36.6488 50.416 37.2563V40.5C49.726 40.5 49.166 41.06 49.166 41.75V42.18C49.166 43.2262 49.6598 44.1487 50.416 44.7562V48C49.726 48 49.166 48.56 49.166 49.25V49.68C49.166 50.7525 49.6835 51.6962 50.4723 52.3025C50.741 54.11 52.2848 55.5 54.166 55.5H64.166C66.0473 55.5 67.591 54.11 67.8598 52.3025C68.6485 51.695 69.166 50.7525 69.166 49.68V49.25C69.166 48.56 68.606 48 67.916 48V44.7562C68.6723 44.1475 69.166 43.2262 69.166 42.18V41.75C69.166 41.06 68.606 40.5 67.916 40.5V37.2563C68.6723 36.6475 69.166 35.7262 69.166 34.68Z" fill="#FF7A00"/>
<path d="M41.391 68.794V67.2727H48.5586V68.794H45.8867V76H44.0629V68.794H41.391ZM49.5252 76V69.4545H51.2852V70.5966H51.3533C51.4727 70.1903 51.6729 69.8835 51.9542 69.6761C52.2354 69.4659 52.5593 69.3608 52.9258 69.3608C53.0167 69.3608 53.1147 69.3665 53.2198 69.3778C53.3249 69.3892 53.4173 69.4048 53.4968 69.4247V71.0355C53.4116 71.0099 53.2937 70.9872 53.1431 70.9673C52.9925 70.9474 52.8548 70.9375 52.7298 70.9375C52.4627 70.9375 52.2241 70.9957 52.0138 71.1122C51.8065 71.2259 51.6417 71.3849 51.5195 71.5895C51.4002 71.794 51.3406 72.0298 51.3406 72.2969V76H49.5252ZM56.6143 76.1236C56.1967 76.1236 55.8246 76.0511 55.4979 75.9062C55.1712 75.7585 54.9126 75.5412 54.7223 75.2543C54.5348 74.9645 54.4411 74.6037 54.4411 74.1719C54.4411 73.8082 54.5078 73.5028 54.6413 73.2557C54.7749 73.0085 54.9567 72.8097 55.1868 72.6591C55.4169 72.5085 55.6783 72.3949 55.9709 72.3182C56.2663 72.2415 56.576 72.1875 56.8999 72.1562C57.2805 72.1165 57.5874 72.0795 57.8203 72.0455C58.0533 72.0085 58.2223 71.9545 58.3274 71.8835C58.4325 71.8125 58.4851 71.7074 58.4851 71.5682V71.5426C58.4851 71.2727 58.3999 71.0639 58.2294 70.9162C58.0618 70.7685 57.8232 70.6946 57.5135 70.6946C57.1868 70.6946 56.9268 70.767 56.7337 70.9119C56.5405 71.054 56.4126 71.233 56.3501 71.4489L54.6712 71.3125C54.7564 70.9148 54.924 70.571 55.174 70.2812C55.424 69.9886 55.7464 69.7642 56.1413 69.608C56.5391 69.4489 56.9993 69.3693 57.522 69.3693C57.8857 69.3693 58.2337 69.4119 58.5661 69.4972C58.9013 69.5824 59.1982 69.7145 59.4567 69.8935C59.718 70.0724 59.924 70.3026 60.0746 70.5838C60.2251 70.8622 60.3004 71.196 60.3004 71.5852V76H58.5788V75.0923H58.5277C58.4226 75.2969 58.282 75.4773 58.1058 75.6335C57.9297 75.7869 57.718 75.9077 57.4709 75.9957C57.2237 76.081 56.9382 76.1236 56.6143 76.1236ZM57.1342 74.8707C57.4013 74.8707 57.6371 74.8182 57.8416 74.7131C58.0462 74.6051 58.2067 74.4602 58.3232 74.2784C58.4396 74.0966 58.4979 73.8906 58.4979 73.6605V72.9659C58.4411 73.0028 58.3629 73.0369 58.2635 73.0682C58.1669 73.0966 58.0575 73.1236 57.9354 73.1491C57.8132 73.1719 57.6911 73.1932 57.5689 73.2131C57.4467 73.2301 57.3359 73.2457 57.2365 73.2599C57.0234 73.2912 56.8374 73.3409 56.6783 73.4091C56.5192 73.4773 56.3956 73.5696 56.3075 73.6861C56.2195 73.7997 56.1754 73.9418 56.1754 74.1122C56.1754 74.3594 56.2649 74.5483 56.4439 74.679C56.6257 74.8068 56.8558 74.8707 57.1342 74.8707ZM65.7287 69.4545V70.8182H61.6889V69.4545H65.7287ZM62.6136 76V68.9815C62.6136 68.5071 62.706 68.1136 62.8906 67.8011C63.0781 67.4886 63.3338 67.2543 63.6577 67.098C63.9815 66.9418 64.3494 66.8636 64.7614 66.8636C65.0398 66.8636 65.294 66.8849 65.5241 66.9276C65.7571 66.9702 65.9304 67.0085 66.044 67.0426L65.7202 68.4062C65.6491 68.3835 65.5611 68.3622 65.456 68.3423C65.3537 68.3224 65.2486 68.3125 65.1406 68.3125C64.8736 68.3125 64.6875 68.375 64.5824 68.5C64.4773 68.6222 64.4247 68.794 64.4247 69.0156V76H62.6136ZM67.3377 76V69.4545H69.1531V76H67.3377ZM68.2496 68.6108C67.9798 68.6108 67.7482 68.5213 67.555 68.3423C67.3647 68.1605 67.2695 67.9432 67.2695 67.6903C67.2695 67.4403 67.3647 67.2259 67.555 67.0469C67.7482 66.8651 67.9798 66.7741 68.2496 66.7741C68.5195 66.7741 68.7496 66.8651 68.94 67.0469C69.1332 67.2259 69.2298 67.4403 69.2298 67.6903C69.2298 67.9432 69.1332 68.1605 68.94 68.3423C68.7496 68.5213 68.5195 68.6108 68.2496 68.6108ZM72.7521 74.1165L72.7564 71.9389H73.0206L75.1172 69.4545H77.201L74.3842 72.7443H73.9538L72.7521 74.1165ZM71.1072 76V67.2727H72.9226V76H71.1072ZM75.1982 76L73.272 73.1491L74.4822 71.8665L77.3246 76H75.1982Z" fill="#FF7A00"/>
</svg>
