<svg width="119" height="110" viewBox="0 0 119 110" fill="none" xmlns="http://www.w3.org/2000/svg">
<rect x="0.666992" width="117.667" height="110" rx="8" fill="#F6F5FF"/>
<path opacity="0.35" d="M68.25 33H50.75C48.6788 33 47 34.6788 47 36.75V50.5C47 52.5712 48.6788 54.25 50.75 54.25H68.25C70.3212 54.25 72 52.5712 72 50.5V36.75C72 34.6788 70.3212 33 68.25 33Z" fill="#6863FB"/>
<path d="M53.875 44.25C55.6009 44.25 57 42.8509 57 41.125C57 39.3991 55.6009 38 53.875 38C52.1491 38 50.75 39.3991 50.75 41.125C50.75 42.8509 52.1491 44.25 53.875 44.25Z" fill="#6863FB"/>
<path d="M60.75 30.5C60.2925 30.5 58.7075 30.5 58.25 30.5C56.8687 30.5 55.75 31.6187 55.75 33H63.25C63.25 31.6187 62.1312 30.5 60.75 30.5Z" fill="#6863FB"/>
<path d="M67.4664 47.2015L59.4989 50.5015C58.8614 50.7652 58.1301 50.4627 57.8651 49.8252L56.9976 47.7302C56.7339 47.0927 57.0364 46.3615 57.6739 46.0965L65.6414 42.7965C66.2789 42.5327 67.0101 42.8352 67.2751 43.4727L68.1426 45.5677C68.4076 46.2065 68.1051 46.9377 67.4664 47.2015Z" fill="#6863FB"/>
<path d="M39.5495 76V67.2727H45.3279V68.794H41.3947V70.8736H44.9444V72.3949H41.3947V76H39.5495ZM47.035 76V69.4545H48.8503V76H47.035ZM47.9469 68.6108C47.677 68.6108 47.4455 68.5213 47.2523 68.3423C47.062 68.1605 46.9668 67.9432 46.9668 67.6903C46.9668 67.4403 47.062 67.2259 47.2523 67.0469C47.4455 66.8651 47.677 66.7741 47.9469 66.7741C48.2168 66.7741 48.4469 66.8651 48.6373 67.0469C48.8304 67.2259 48.927 67.4403 48.927 67.6903C48.927 67.9432 48.8304 68.1605 48.6373 68.3423C48.4469 68.5213 48.2168 68.6108 47.9469 68.6108ZM52.6199 72.2159V76H50.8045V69.4545H52.5346V70.6094H52.6113C52.7562 70.2287 52.9991 69.9276 53.34 69.706C53.6809 69.4815 54.0943 69.3693 54.5801 69.3693C55.0346 69.3693 55.4309 69.4688 55.769 69.6676C56.1071 69.8665 56.3699 70.1506 56.5574 70.5199C56.7449 70.8864 56.8386 71.3239 56.8386 71.8324V76H55.0233V72.1562C55.0261 71.7557 54.9238 71.4432 54.7164 71.2188C54.5091 70.9915 54.2235 70.8778 53.8599 70.8778C53.6156 70.8778 53.3997 70.9304 53.2122 71.0355C53.0275 71.1406 52.8826 71.294 52.7775 71.4957C52.6752 71.6946 52.6227 71.9347 52.6199 72.2159ZM60.6358 76.1236C60.2182 76.1236 59.8461 76.0511 59.5194 75.9062C59.1926 75.7585 58.9341 75.5412 58.7438 75.2543C58.5563 74.9645 58.4625 74.6037 58.4625 74.1719C58.4625 73.8082 58.5293 73.5028 58.6628 73.2557C58.7963 73.0085 58.9782 72.8097 59.2083 72.6591C59.4384 72.5085 59.6998 72.3949 59.9924 72.3182C60.2878 72.2415 60.5975 72.1875 60.9213 72.1562C61.302 72.1165 61.6088 72.0795 61.8418 72.0455C62.0748 72.0085 62.2438 71.9545 62.3489 71.8835C62.454 71.8125 62.5066 71.7074 62.5066 71.5682V71.5426C62.5066 71.2727 62.4213 71.0639 62.2509 70.9162C62.0833 70.7685 61.8446 70.6946 61.535 70.6946C61.2083 70.6946 60.9483 70.767 60.7551 70.9119C60.562 71.054 60.4341 71.233 60.3716 71.4489L58.6926 71.3125C58.7779 70.9148 58.9455 70.571 59.1955 70.2812C59.4455 69.9886 59.7679 69.7642 60.1628 69.608C60.5605 69.4489 61.0208 69.3693 61.5435 69.3693C61.9071 69.3693 62.2551 69.4119 62.5875 69.4972C62.9228 69.5824 63.2196 69.7145 63.4782 69.8935C63.7395 70.0724 63.9455 70.3026 64.0961 70.5838C64.2466 70.8622 64.3219 71.196 64.3219 71.5852V76H62.6003V75.0923H62.5492C62.4441 75.2969 62.3034 75.4773 62.1273 75.6335C61.9512 75.7869 61.7395 75.9077 61.4924 75.9957C61.2452 76.081 60.9597 76.1236 60.6358 76.1236ZM61.1557 74.8707C61.4228 74.8707 61.6586 74.8182 61.8631 74.7131C62.0676 74.6051 62.2282 74.4602 62.3446 74.2784C62.4611 74.0966 62.5194 73.8906 62.5194 73.6605V72.9659C62.4625 73.0028 62.3844 73.0369 62.285 73.0682C62.1884 73.0966 62.079 73.1236 61.9569 73.1491C61.8347 73.1719 61.7125 73.1932 61.5904 73.2131C61.4682 73.2301 61.3574 73.2457 61.258 73.2599C61.0449 73.2912 60.8588 73.3409 60.6998 73.4091C60.5407 73.4773 60.4171 73.5696 60.329 73.6861C60.2409 73.7997 60.1969 73.9418 60.1969 74.1122C60.1969 74.3594 60.2864 74.5483 60.4654 74.679C60.6472 74.8068 60.8773 74.8707 61.1557 74.8707ZM68.0456 72.2159V76H66.2303V69.4545H67.9604V70.6094H68.0371C68.182 70.2287 68.4249 69.9276 68.7658 69.706C69.1067 69.4815 69.5201 69.3693 70.0059 69.3693C70.4604 69.3693 70.8567 69.4688 71.1948 69.6676C71.5328 69.8665 71.7956 70.1506 71.9831 70.5199C72.1706 70.8864 72.2644 71.3239 72.2644 71.8324V76H70.449V72.1562C70.4519 71.7557 70.3496 71.4432 70.1422 71.2188C69.9348 70.9915 69.6493 70.8778 69.2857 70.8778C69.0414 70.8778 68.8255 70.9304 68.638 71.0355C68.4533 71.1406 68.3084 71.294 68.2033 71.4957C68.101 71.6946 68.0485 71.9347 68.0456 72.2159ZM79.6412 71.321L77.9792 71.4233C77.9508 71.2812 77.8897 71.1534 77.796 71.0398C77.7022 70.9233 77.5787 70.831 77.4252 70.7628C77.2747 70.6918 77.0943 70.6562 76.8841 70.6562C76.6028 70.6562 76.3656 70.7159 76.1724 70.8352C75.9792 70.9517 75.8826 71.108 75.8826 71.304C75.8826 71.4602 75.9451 71.5923 76.0701 71.7003C76.1951 71.8082 76.4096 71.8949 76.7136 71.9602L77.8983 72.1989C78.5346 72.3295 79.0091 72.5398 79.3216 72.8295C79.6341 73.1193 79.7903 73.5 79.7903 73.9716C79.7903 74.4006 79.6639 74.777 79.411 75.1009C79.161 75.4247 78.8173 75.6776 78.3798 75.8594C77.9451 76.0384 77.4437 76.1278 76.8755 76.1278C76.0091 76.1278 75.3187 75.9474 74.8045 75.5866C74.2931 75.223 73.9934 74.7287 73.9054 74.1037L75.6909 74.0099C75.7449 74.2741 75.8755 74.4759 76.0829 74.6151C76.2903 74.7514 76.5559 74.8196 76.8798 74.8196C77.198 74.8196 77.4537 74.7585 77.6468 74.6364C77.8429 74.5114 77.9423 74.3509 77.9451 74.1548C77.9423 73.9901 77.8727 73.8551 77.7363 73.75C77.6 73.642 77.3897 73.5597 77.1056 73.5028L75.9721 73.277C75.3329 73.1491 74.8571 72.9276 74.5446 72.6122C74.2349 72.2969 74.0801 71.8949 74.0801 71.4062C74.0801 70.9858 74.1937 70.6236 74.421 70.3196C74.6511 70.0156 74.9735 69.7812 75.3883 69.6165C75.8059 69.4517 76.2946 69.3693 76.8542 69.3693C77.6809 69.3693 78.3315 69.544 78.8059 69.8935C79.2832 70.2429 79.5616 70.7187 79.6412 71.321Z" fill="#6863FB"/>
</svg>
