<svg width="118" height="110" viewBox="0 0 118 110" fill="none" xmlns="http://www.w3.org/2000/svg">
<rect width="117.667" height="110" rx="8" fill="#FFEFF4"/>
<path opacity="0.35" d="M52.583 36.75C54.3089 36.75 55.708 35.3509 55.708 33.625C55.708 31.8991 54.3089 30.5 52.583 30.5C50.8571 30.5 49.458 31.8991 49.458 33.625C49.458 35.3509 50.8571 36.75 52.583 36.75Z" fill="#FA5087"/>
<path opacity="0.35" d="M65.083 36.75C66.8089 36.75 68.208 35.3509 68.208 33.625C68.208 31.8991 66.8089 30.5 65.083 30.5C63.3571 30.5 61.958 31.8991 61.958 33.625C61.958 35.3509 63.3571 36.75 65.083 36.75Z" fill="#FA5087"/>
<path opacity="0.35" d="M58.833 43C60.2137 43 61.333 41.8807 61.333 40.5C61.333 39.1193 60.2137 38 58.833 38C57.4523 38 56.333 39.1193 56.333 40.5C56.333 41.8807 57.4523 43 58.833 43Z" fill="#FA5087"/>
<path opacity="0.35" d="M60.083 44.25H57.583C56.2018 44.25 55.083 45.3687 55.083 46.75V50.5C55.083 51.19 55.643 51.75 56.333 51.75V54.25C56.333 54.94 56.893 55.5 57.583 55.5C58.273 55.5 59.393 55.5 60.083 55.5C60.773 55.5 61.333 54.94 61.333 54.25V51.75C62.023 51.75 62.583 51.19 62.583 50.5V46.75C62.583 45.3687 61.4643 44.25 60.083 44.25Z" fill="#FA5087"/>
<path d="M66.333 38H65.083H63.833C62.703 38 61.7018 38.51 61.0143 39.3013C61.2105 39.6588 61.333 40.0625 61.333 40.5C61.333 40.9575 61.208 41.3837 60.9918 41.75H60.9868C60.8893 41.9175 60.768 42.0675 60.6368 42.2075C60.6205 42.2238 60.6105 42.245 60.5943 42.2613C60.578 42.2775 60.5568 42.2875 60.5405 42.3038C60.4005 42.435 60.2505 42.5562 60.083 42.6537V42.6588C59.7155 42.875 59.2905 43 58.833 43C58.3755 43 57.9493 42.875 57.583 42.6588V42.6537C57.4155 42.5562 57.2655 42.435 57.1255 42.3038C57.1093 42.2875 57.088 42.2775 57.0718 42.2613C57.0555 42.245 57.0455 42.2238 57.0293 42.2075C56.898 42.0675 56.7768 41.9175 56.6793 41.75H56.6743C56.458 41.3837 56.333 40.9575 56.333 40.5C56.333 40.0625 56.4555 39.6588 56.6518 39.3013C55.9643 38.51 54.963 38 53.833 38H52.583H51.333C49.2618 38 47.583 39.6788 47.583 41.75V48.625C47.583 49.4475 48.1168 50.14 48.8543 50.3925C48.8518 50.4287 48.833 50.4613 48.833 50.5C48.833 50.7325 48.833 54.0175 48.833 54.25C48.833 54.94 49.393 55.5 50.083 55.5C50.773 55.5 51.333 54.94 51.333 54.25C51.333 54.0175 51.333 50.7325 51.333 50.5C51.333 49.81 51.893 49.25 52.583 49.25C53.273 49.25 53.833 49.81 53.833 50.5C53.833 50.7325 53.833 54.0175 53.833 54.25C53.833 54.94 54.393 55.5 55.083 55.5C55.773 55.5 56.333 54.94 56.333 54.25C56.333 54.1063 56.333 52.7863 56.333 51.75C55.643 51.75 55.083 51.19 55.083 50.5V46.75C55.083 45.3688 56.2018 44.25 57.583 44.25H60.083C61.4643 44.25 62.583 45.3688 62.583 46.75V50.5C62.583 51.19 62.023 51.75 61.333 51.75C61.333 52.7863 61.333 54.1063 61.333 54.25C61.333 54.94 61.893 55.5 62.583 55.5C63.273 55.5 63.833 54.94 63.833 54.25C63.833 54.0175 63.833 50.7325 63.833 50.5C63.833 49.81 64.393 49.25 65.083 49.25C65.773 49.25 66.333 49.81 66.333 50.5C66.333 50.7325 66.333 54.0175 66.333 54.25C66.333 54.94 66.893 55.5 67.583 55.5C68.273 55.5 68.833 54.94 68.833 54.25C68.833 54.0175 68.833 50.7325 68.833 50.5C68.833 50.4613 68.8143 50.4287 68.8118 50.3925C69.5493 50.14 70.083 49.4475 70.083 48.625V41.75C70.083 39.6788 68.4043 38 66.333 38Z" fill="#FA5087"/>
<path d="M29.9939 76H26.9001V67.2727H30.0194C30.8973 67.2727 31.653 67.4474 32.2865 67.7969C32.92 68.1435 33.4072 68.642 33.7481 69.2926C34.0919 69.9432 34.2638 70.7216 34.2638 71.6278C34.2638 72.5369 34.0919 73.3182 33.7481 73.9716C33.4072 74.625 32.9172 75.1264 32.278 75.4759C31.6416 75.8253 30.8802 76 29.9939 76ZM28.7453 74.419H29.9172C30.4626 74.419 30.9214 74.3224 31.2936 74.1293C31.6686 73.9332 31.9498 73.6307 32.1373 73.2216C32.3277 72.8097 32.4229 72.2784 32.4229 71.6278C32.4229 70.983 32.3277 70.456 32.1373 70.0469C31.9498 69.6378 31.67 69.3366 31.2979 69.1435C30.9257 68.9503 30.4669 68.8537 29.9214 68.8537H28.7453V74.419ZM39.0795 76.1278C38.4062 76.1278 37.8266 75.9915 37.3408 75.7188C36.8579 75.4432 36.4857 75.054 36.2243 74.5511C35.963 74.0455 35.8323 73.4474 35.8323 72.7571C35.8323 72.0838 35.963 71.4929 36.2243 70.9844C36.4857 70.4759 36.8536 70.0795 37.328 69.7955C37.8053 69.5114 38.365 69.3693 39.007 69.3693C39.4388 69.3693 39.8408 69.4389 40.213 69.5781C40.588 69.7145 40.9147 69.9205 41.1931 70.196C41.4743 70.4716 41.6931 70.8182 41.8493 71.2358C42.0056 71.6506 42.0837 72.1364 42.0837 72.6932V73.1918H36.5567V72.0668H40.3749C40.3749 71.8054 40.3181 71.5739 40.2045 71.3722C40.0908 71.1705 39.9332 71.0128 39.7314 70.8991C39.5326 70.7827 39.301 70.7244 39.0368 70.7244C38.7613 70.7244 38.517 70.7884 38.3039 70.9162C38.0937 71.0412 37.9289 71.2102 37.8096 71.4233C37.6903 71.6335 37.6292 71.8679 37.6263 72.1264V73.196C37.6263 73.5199 37.686 73.7997 37.8053 74.0355C37.9275 74.2713 38.0993 74.4531 38.3209 74.581C38.5425 74.7088 38.8053 74.7727 39.1093 74.7727C39.311 74.7727 39.4957 74.7443 39.6633 74.6875C39.8309 74.6307 39.9743 74.5455 40.0937 74.4318C40.213 74.3182 40.3039 74.179 40.3664 74.0142L42.0454 74.125C41.9601 74.5284 41.7854 74.8807 41.5212 75.1818C41.2599 75.4801 40.9218 75.7131 40.507 75.8807C40.0951 76.0455 39.6192 76.1278 39.0795 76.1278ZM43.7684 76V69.4545H45.4985V70.6094H45.5752C45.7116 70.2259 45.9388 69.9233 46.257 69.7017C46.5752 69.4801 46.9559 69.3693 47.3991 69.3693C47.8479 69.3693 48.23 69.4815 48.5454 69.706C48.8607 69.9276 49.0709 70.2287 49.176 70.6094H49.2442C49.3778 70.2344 49.6192 69.9347 49.9687 69.7102C50.3209 69.483 50.7371 69.3693 51.2172 69.3693C51.828 69.3693 52.3238 69.5639 52.7045 69.9531C53.088 70.3395 53.2797 70.8878 53.2797 71.598V76H51.4687V71.956C51.4687 71.5923 51.3721 71.3196 51.1789 71.1378C50.9857 70.956 50.7442 70.8651 50.4545 70.8651C50.1249 70.8651 49.8678 70.9702 49.6832 71.1804C49.4985 71.3878 49.4062 71.6619 49.4062 72.0028V76H47.6462V71.9176C47.6462 71.5966 47.5539 71.3409 47.3692 71.1506C47.1874 70.9602 46.9474 70.8651 46.6491 70.8651C46.4474 70.8651 46.2655 70.9162 46.1036 71.0185C45.9445 71.1179 45.8181 71.2585 45.7243 71.4403C45.6306 71.6193 45.5837 71.8295 45.5837 72.071V76H43.7684ZM58.1711 76.1278C57.5091 76.1278 56.9367 75.9872 56.4537 75.706C55.9736 75.4219 55.6029 75.027 55.3415 74.5213C55.0802 74.0128 54.9495 73.4233 54.9495 72.7528C54.9495 72.0767 55.0802 71.4858 55.3415 70.9801C55.6029 70.4716 55.9736 70.0767 56.4537 69.7955C56.9367 69.5114 57.5091 69.3693 58.1711 69.3693C58.833 69.3693 59.404 69.5114 59.8841 69.7955C60.3671 70.0767 60.7393 70.4716 61.0006 70.9801C61.262 71.4858 61.3927 72.0767 61.3927 72.7528C61.3927 73.4233 61.262 74.0128 61.0006 74.5213C60.7393 75.027 60.3671 75.4219 59.8841 75.706C59.404 75.9872 58.833 76.1278 58.1711 76.1278ZM58.1796 74.7216C58.4807 74.7216 58.7322 74.6364 58.9339 74.4659C59.1356 74.2926 59.2876 74.0568 59.3898 73.7585C59.4949 73.4602 59.5475 73.1207 59.5475 72.7401C59.5475 72.3594 59.4949 72.0199 59.3898 71.7216C59.2876 71.4233 59.1356 71.1875 58.9339 71.0142C58.7322 70.8409 58.4807 70.7543 58.1796 70.7543C57.8756 70.7543 57.6199 70.8409 57.4126 71.0142C57.208 71.1875 57.0532 71.4233 56.9481 71.7216C56.8458 72.0199 56.7947 72.3594 56.7947 72.7401C56.7947 73.1207 56.8458 73.4602 56.9481 73.7585C57.0532 74.0568 57.208 74.2926 57.4126 74.4659C57.6199 74.6364 57.8756 74.7216 58.1796 74.7216ZM66.0219 78.5909C65.4339 78.5909 64.9296 78.5099 64.5091 78.348C64.0915 78.1889 63.7591 77.9716 63.512 77.696C63.2648 77.4205 63.1043 77.1108 63.0305 76.767L64.7094 76.5412C64.7606 76.6719 64.8415 76.794 64.9523 76.9077C65.0631 77.0213 65.2094 77.1122 65.3912 77.1804C65.5759 77.2514 65.8003 77.2869 66.0645 77.2869C66.4594 77.2869 66.7847 77.1903 67.0404 76.9972C67.2989 76.8068 67.4282 76.4872 67.4282 76.0384V74.8409H67.3515C67.2719 75.0227 67.1526 75.1946 66.9935 75.3565C66.8344 75.5185 66.6299 75.6506 66.3799 75.7528C66.1299 75.8551 65.8316 75.9062 65.485 75.9062C64.9935 75.9062 64.5461 75.7926 64.1427 75.5653C63.7421 75.3352 63.4225 74.9844 63.1839 74.5128C62.9481 74.0384 62.8302 73.4389 62.8302 72.7145C62.8302 71.973 62.9509 71.3537 63.1924 70.8565C63.4339 70.3594 63.7549 69.9872 64.1555 69.7401C64.5589 69.4929 65.0006 69.3693 65.4807 69.3693C65.8472 69.3693 66.154 69.4318 66.4012 69.5568C66.6483 69.679 66.8472 69.8324 66.9978 70.017C67.1512 70.1989 67.2691 70.3778 67.3515 70.554H67.4197V69.4545H69.2222V76.0639C69.2222 76.6207 69.0858 77.0866 68.8131 77.4616C68.5404 77.8366 68.1626 78.1179 67.6796 78.3054C67.1995 78.4957 66.6469 78.5909 66.0219 78.5909ZM66.0603 74.5426C66.3529 74.5426 66.6001 74.4702 66.8018 74.3253C67.0063 74.1776 67.1626 73.9673 67.2705 73.6946C67.3813 73.419 67.4367 73.0895 67.4367 72.706C67.4367 72.3224 67.3827 71.9901 67.2748 71.7088C67.1668 71.4247 67.0106 71.2045 66.806 71.0483C66.6015 70.892 66.3529 70.8139 66.0603 70.8139C65.762 70.8139 65.5106 70.8949 65.306 71.0568C65.1015 71.2159 64.9466 71.4375 64.8415 71.7216C64.7364 72.0057 64.6839 72.3338 64.6839 72.706C64.6839 73.0838 64.7364 73.4105 64.8415 73.6861C64.9495 73.9588 65.1043 74.1705 65.306 74.321C65.5106 74.4687 65.762 74.5426 66.0603 74.5426ZM71.1668 76V69.4545H72.9268V70.5966H72.9949C73.1143 70.1903 73.3145 69.8835 73.5958 69.6761C73.877 69.4659 74.2009 69.3608 74.5674 69.3608C74.6583 69.3608 74.7563 69.3665 74.8614 69.3778C74.9665 69.3892 75.0589 69.4048 75.1384 69.4247V71.0355C75.0532 71.0099 74.9353 70.9872 74.7847 70.9673C74.6341 70.9474 74.4964 70.9375 74.3714 70.9375C74.1043 70.9375 73.8657 70.9957 73.6555 71.1122C73.4481 71.2259 73.2833 71.3849 73.1611 71.5895C73.0418 71.794 72.9822 72.0298 72.9822 72.2969V76H71.1668ZM78.2559 76.1236C77.8383 76.1236 77.4662 76.0511 77.1395 75.9062C76.8128 75.7585 76.5542 75.5412 76.3639 75.2543C76.1764 74.9645 76.0827 74.6037 76.0827 74.1719C76.0827 73.8082 76.1494 73.5028 76.2829 73.2557C76.4165 73.0085 76.5983 72.8097 76.8284 72.6591C77.0585 72.5085 77.3199 72.3949 77.6125 72.3182C77.9079 72.2415 78.2176 72.1875 78.5415 72.1562C78.9221 72.1165 79.229 72.0795 79.4619 72.0455C79.6949 72.0085 79.8639 71.9545 79.969 71.8835C80.0741 71.8125 80.1267 71.7074 80.1267 71.5682V71.5426C80.1267 71.2727 80.0415 71.0639 79.871 70.9162C79.7034 70.7685 79.4648 70.6946 79.1551 70.6946C78.8284 70.6946 78.5684 70.767 78.3753 70.9119C78.1821 71.054 78.0542 71.233 77.9917 71.4489L76.3128 71.3125C76.398 70.9148 76.5656 70.571 76.8156 70.2812C77.0656 69.9886 77.3881 69.7642 77.7829 69.608C78.1807 69.4489 78.6409 69.3693 79.1636 69.3693C79.5273 69.3693 79.8753 69.4119 80.2077 69.4972C80.5429 69.5824 80.8398 69.7145 81.0983 69.8935C81.3596 70.0724 81.5656 70.3026 81.7162 70.5838C81.8667 70.8622 81.942 71.196 81.942 71.5852V76H80.2204V75.0923H80.1693C80.0642 75.2969 79.9236 75.4773 79.7474 75.6335C79.5713 75.7869 79.3596 75.9077 79.1125 75.9957C78.8653 76.081 78.5798 76.1236 78.2559 76.1236ZM78.7758 74.8707C79.0429 74.8707 79.2787 74.8182 79.4832 74.7131C79.6878 74.6051 79.8483 74.4602 79.9648 74.2784C80.0812 74.0966 80.1395 73.8906 80.1395 73.6605V72.9659C80.0827 73.0028 80.0045 73.0369 79.9051 73.0682C79.8085 73.0966 79.6991 73.1236 79.577 73.1491C79.4548 73.1719 79.3327 73.1932 79.2105 73.2131C79.0883 73.2301 78.9775 73.2457 78.8781 73.2599C78.665 73.2912 78.479 73.3409 78.3199 73.4091C78.1608 73.4773 78.0372 73.5696 77.9491 73.6861C77.8611 73.7997 77.817 73.9418 77.817 74.1122C77.817 74.3594 77.9065 74.5483 78.0855 74.679C78.2673 74.8068 78.4974 74.8707 78.7758 74.8707ZM87.3703 69.4545V70.8182H83.3305V69.4545H87.3703ZM84.2552 76V68.9815C84.2552 68.5071 84.3476 68.1136 84.5322 67.8011C84.7197 67.4886 84.9754 67.2543 85.2993 67.098C85.6231 66.9418 85.991 66.8636 86.403 66.8636C86.6814 66.8636 86.9356 66.8849 87.1657 66.9276C87.3987 66.9702 87.572 67.0085 87.6856 67.0426L87.3618 68.4062C87.2907 68.3835 87.2027 68.3622 87.0976 68.3423C86.9953 68.3224 86.8902 68.3125 86.7822 68.3125C86.5152 68.3125 86.3291 68.375 86.224 68.5C86.1189 68.6222 86.0663 68.794 86.0663 69.0156V76H84.2552ZM88.9793 76V69.4545H90.7947V76H88.9793ZM89.8912 68.6108C89.6214 68.6108 89.3898 68.5213 89.1966 68.3423C89.0063 68.1605 88.9111 67.9432 88.9111 67.6903C88.9111 67.4403 89.0063 67.2259 89.1966 67.0469C89.3898 66.8651 89.6214 66.7741 89.8912 66.7741C90.1611 66.7741 90.3912 66.8651 90.5816 67.0469C90.7748 67.2259 90.8714 67.4403 90.8714 67.6903C90.8714 67.9432 90.7748 68.1605 90.5816 68.3423C90.3912 68.5213 90.1611 68.6108 89.8912 68.6108Z" fill="#FA5087"/>
</svg>
