<?xml version="1.0" encoding="UTF-8"?> <svg xmlns="http://www.w3.org/2000/svg" width="140" height="109" viewBox="0 0 140 109" fill="none"><path opacity="0.35" d="M21.8575 11.6937L19.3775 8.595C18.19 7.1125 16.395 6.25 14.4975 6.25H8.24C6.48375 6.25 4.85625 7.17125 3.9525 8.6775L1.66 12.5C0.615 13.2875 0 14.52 0 15.8275V18.75C0 20.8212 1.67875 22.5 3.75 22.5H26.25C28.3212 22.5 30 20.8212 30 18.75V17.7413C30 15.74 28.82 13.915 26.9725 13.145C25.7512 12.635 24.0875 12.1087 21.8575 11.6937Z" fill="#0080FF"></path><path d="M5.625 25C7.35089 25 8.75 23.6009 8.75 21.875C8.75 20.1491 7.35089 18.75 5.625 18.75C3.89911 18.75 2.5 20.1491 2.5 21.875C2.5 23.6009 3.89911 25 5.625 25Z" fill="#0080FF"></path><path d="M24.375 25C26.1009 25 27.5 23.6009 27.5 21.875C27.5 20.1491 26.1009 18.75 24.375 18.75C22.6491 18.75 21.25 20.1491 21.25 21.875C21.25 23.6009 22.6491 25 24.375 25Z" fill="#0080FF"></path><path d="M5.27983 79H0.666193L7.69602 58.6364H13.2443L20.2642 79H15.6506L10.5497 63.2898H10.3906L5.27983 79ZM4.99148 70.9957H15.8892V74.3565H4.99148V70.9957ZM23.1357 79V63.7273H27.2422V66.392H27.4013C27.6797 65.4441 28.147 64.7282 28.8033 64.2443C29.4595 63.7538 30.2152 63.5085 31.0703 63.5085C31.2824 63.5085 31.5111 63.5218 31.7564 63.5483C32.0017 63.5748 32.2171 63.6113 32.4027 63.6577V67.4162C32.2038 67.3565 31.9287 67.3035 31.5774 67.2571C31.2261 67.2107 30.9046 67.1875 30.6129 67.1875C29.9898 67.1875 29.433 67.3234 28.9425 67.5952C28.4586 67.8603 28.0741 68.2315 27.7891 68.7088C27.5107 69.1861 27.3714 69.7363 27.3714 70.3594V79H23.1357ZM39.0103 79.2884C38.0359 79.2884 37.1675 79.1193 36.4052 78.7812C35.6429 78.4366 35.0397 77.9295 34.5955 77.2599C34.158 76.5838 33.9393 75.742 33.9393 74.7344C33.9393 73.8859 34.0951 73.1733 34.4066 72.5966C34.7182 72.0199 35.1424 71.5559 35.6793 71.2045C36.2163 70.8532 36.8261 70.5881 37.5089 70.4091C38.1983 70.2301 38.9208 70.1042 39.6765 70.0312C40.5647 69.9384 41.2807 69.8523 41.8242 69.7727C42.3678 69.6866 42.7622 69.5606 43.0075 69.3949C43.2527 69.2292 43.3754 68.9839 43.3754 68.6591V68.5994C43.3754 67.9697 43.1765 67.4825 42.7788 67.1378C42.3877 66.7931 41.8308 66.6207 41.1083 66.6207C40.346 66.6207 39.7395 66.7898 39.2887 67.1278C38.8379 67.4593 38.5397 67.8769 38.3938 68.3807L34.4762 68.0625C34.6751 67.1345 35.0662 66.3324 35.6495 65.6562C36.2328 64.9735 36.9852 64.4498 37.9066 64.0852C38.8346 63.714 39.9085 63.5284 41.1282 63.5284C41.9767 63.5284 42.7887 63.6278 43.5643 63.8267C44.3465 64.0256 45.0392 64.3338 45.6424 64.7514C46.2522 65.169 46.7328 65.706 47.0842 66.3622C47.4355 67.0118 47.6112 67.7907 47.6112 68.6989V79H43.5941V76.8821H43.4748C43.2295 77.3594 42.9014 77.7803 42.4904 78.1449C42.0794 78.5028 41.5856 78.7846 41.0089 78.9901C40.4322 79.1889 39.766 79.2884 39.0103 79.2884ZM40.2234 76.3651C40.8465 76.3651 41.3967 76.2424 41.8739 75.9972C42.3512 75.7453 42.7257 75.4072 42.9975 74.983C43.2693 74.5587 43.4052 74.0781 43.4052 73.5412V71.9205C43.2726 72.0066 43.0903 72.0862 42.8583 72.1591C42.6329 72.2254 42.3777 72.2884 42.0927 72.348C41.8076 72.401 41.5226 72.4508 41.2376 72.4972C40.9525 72.5369 40.694 72.5734 40.462 72.6065C39.9648 72.6795 39.5307 72.7955 39.1594 72.9545C38.7882 73.1136 38.4999 73.3291 38.2944 73.6009C38.0889 73.866 37.9862 74.1974 37.9862 74.5952C37.9862 75.1719 38.195 75.6127 38.6126 75.9176C39.0368 76.2159 39.5737 76.3651 40.2234 76.3651ZM58.2979 79.2983C56.7335 79.2983 55.3879 78.9669 54.261 78.304C53.1407 77.6345 52.279 76.7064 51.6758 75.5199C51.0792 74.3333 50.7809 72.9678 50.7809 71.4233C50.7809 69.8589 51.0825 68.4867 51.6857 67.3068C52.2956 66.1203 53.1606 65.1955 54.2809 64.5327C55.4012 63.8632 56.7335 63.5284 58.2781 63.5284C59.6104 63.5284 60.7771 63.7704 61.7781 64.2543C62.779 64.7382 63.5711 65.4176 64.1545 66.2926C64.7378 67.1676 65.0593 68.1951 65.119 69.375H61.1218C61.0091 68.6127 60.7108 67.9995 60.2269 67.5355C59.7496 67.0649 59.1232 66.8295 58.3477 66.8295C57.6914 66.8295 57.118 67.0085 56.6275 67.3665C56.1436 67.7178 55.7657 68.2315 55.494 68.9077C55.2222 69.5838 55.0863 70.4025 55.0863 71.3636C55.0863 72.3381 55.2189 73.1667 55.484 73.8494C55.7558 74.5322 56.137 75.0526 56.6275 75.4105C57.118 75.7685 57.6914 75.9474 58.3477 75.9474C58.8316 75.9474 59.2657 75.848 59.6502 75.6491C60.0413 75.4503 60.3628 75.1619 60.6147 74.7841C60.8732 74.3996 61.0423 73.9389 61.1218 73.402H65.119C65.0527 74.5687 64.7345 75.5961 64.1644 76.4844C63.601 77.366 62.8221 78.0554 61.8278 78.5526C60.8335 79.0497 59.6568 79.2983 58.2979 79.2983ZM57.3036 78.9205H59.2525L59.0934 79.7855C59.7762 79.8916 60.333 80.1468 60.7638 80.5511C61.2013 80.9555 61.4234 81.5057 61.43 82.2017C61.4367 83.1894 60.9793 83.9749 60.0579 84.5582C59.1365 85.1482 57.8439 85.4432 56.18 85.4432L56.1403 83.554C56.9755 83.554 57.6284 83.4512 58.0991 83.2457C58.5763 83.0469 58.8249 82.7353 58.8448 82.3111C58.8581 81.9067 58.7023 81.5985 58.3775 81.3864C58.0527 81.1742 57.5456 81.0251 56.8562 80.9389L57.3036 78.9205Z" fill="#0080FF"></path><path opacity="0.2" d="M0 108.5H140" stroke="#7C88B1"></path></svg> 