<?xml version="1.0" encoding="UTF-8"?> <svg xmlns="http://www.w3.org/2000/svg" width="18" height="14" viewBox="0 0 18 14" fill="none"><path fill-rule="evenodd" clip-rule="evenodd" d="M7.28033 1.28033C7.57322 0.987437 7.57322 0.512563 7.28033 0.21967C6.98744 -0.0732233 6.51256 -0.0732233 6.21967 0.21967L0.21967 6.21967C0.147763 6.29158 0.0935089 6.37445 0.0569091 6.46291C0.0202392 6.55134 0 6.64831 0 6.75C0 6.85169 0.0202392 6.94866 0.0569091 7.03709C0.0935089 7.12555 0.147763 7.20842 0.21967 7.28033L6.21967 13.2803C6.51256 13.5732 6.98744 13.5732 7.28033 13.2803C7.57322 12.9874 7.57322 12.5126 7.28033 12.2197L2.56066 7.5H16.75C17.1642 7.5 17.5 7.16421 17.5 6.75C17.5 6.33579 17.1642 6 16.75 6H2.56066L7.28033 1.28033Z" fill="#7C88B1"></path></svg> 