<?xml version="1.0" encoding="UTF-8"?> <svg xmlns="http://www.w3.org/2000/svg" width="210" height="232" viewBox="0 0 210 232" fill="none"><path d="M170.75 80H134.25C124.171 80 116 88.1708 116 98.25V134.75C116 144.829 124.171 153 134.25 153H170.75C180.829 153 189 144.829 189 134.75V98.25C189 88.1708 180.829 80 170.75 80Z" fill="url(#paint0_linear_124_38719)" fill-opacity="0.1"></path><path d="M56.75 9H20.25C10.1708 9 2 17.1708 2 27.25V63.75C2 73.8292 10.1708 82 20.25 82H56.75C66.8292 82 75 73.8292 75 63.75V27.25C75 17.1708 66.8292 9 56.75 9Z" fill="url(#paint1_linear_124_38719)" fill-opacity="0.1"></path><path d="M139 232H131V21H136.753C137.922 21 139 21.314 139 22.0569V232Z" fill="url(#paint2_linear_124_38719)"></path><path d="M40.749 126.5H101.093V46.5H40.749C38.299 46.5 36.8649 49.03 38.2709 51.036L59.7169 81.509C61.6709 84.296 61.6709 87.951 59.7169 90.738L38.2709 121.531C36.8649 123.536 38.3 126.5 40.749 126.5Z" fill="url(#paint3_linear_124_38719)"></path><path d="M76.925 20.5H136.917C138.021 20.5 139.093 20.942 139.093 22.046V100.5H75.093V22.046C75.093 20.942 75.821 20.5 76.925 20.5Z" fill="url(#paint4_linear_124_38719)"></path><path opacity="0.15" d="M100.876 126.496L74.8801 100.5H100.922L100.876 126.496Z" fill="black"></path><path d="M134.917 20.0468C139.335 20.0468 142.916 16.4656 142.916 12.0478C142.916 7.63011 139.335 4.04883 134.917 4.04883C130.499 4.04883 126.918 7.63011 126.918 12.0478C126.918 16.4656 130.499 20.0468 134.917 20.0468Z" fill="url(#paint5_linear_124_38719)"></path><path d="M206.049 25.9833C205.479 25.9833 204.902 25.8213 204.391 25.4813C203.011 24.5633 202.637 22.7013 203.554 21.3223C203.85 20.8783 204.151 20.4373 204.459 20.0033C205.416 18.6513 207.287 18.3303 208.64 19.2883C209.992 20.2453 210.313 22.1173 209.355 23.4693C209.082 23.8573 208.812 24.2483 208.549 24.6443C207.972 25.5143 207.02 25.9833 206.049 25.9833Z" fill="url(#paint6_linear_124_38719)"></path><path d="M99.493 72.2022L90.908 63.6172C90.127 62.8362 90.127 61.5702 90.908 60.7892C91.689 60.0082 92.955 60.0082 93.736 60.7892L100.877 67.9302L120.077 47.9102C120.841 47.1132 122.107 47.0872 122.904 47.8512L122.905 47.8522C123.702 48.6162 123.728 49.8822 122.964 50.6792L102.351 72.1722C101.574 72.9812 100.286 72.9942 99.493 72.2022Z" fill="white"></path><path d="M75.093 46.5H71.093V100.5H75.093V46.5Z" fill="url(#paint7_linear_124_38719)"></path><path d="M142.916 12.0483C142.916 16.4673 139.337 20.0473 134.917 20.0473C132.197 20.0473 129.798 18.6873 128.358 16.6073C129.658 17.5073 131.238 18.0473 132.917 18.0473C137.336 18.0473 140.916 14.4673 140.916 10.0483C140.916 8.36826 140.376 6.78826 139.476 5.48926C141.556 6.92826 142.916 9.32826 142.916 12.0483Z" fill="url(#paint8_linear_124_38719)"></path><path d="M139.093 100.5H131.093V104.5H139.093V100.5Z" fill="url(#paint9_linear_124_38719)"></path><path d="M2.09302 90.5C3.19759 90.5 4.09302 89.6046 4.09302 88.5C4.09302 87.3954 3.19759 86.5 2.09302 86.5C0.988448 86.5 0.0930176 87.3954 0.0930176 88.5C0.0930176 89.6046 0.988448 90.5 2.09302 90.5Z" fill="#3662FF"></path><path d="M58.093 4.5C59.1976 4.5 60.093 3.60457 60.093 2.5C60.093 1.39543 59.1976 0.5 58.093 0.5C56.9884 0.5 56.093 1.39543 56.093 2.5C56.093 3.60457 56.9884 4.5 58.093 4.5Z" fill="#3662FF"></path><path d="M69.397 180.725L70.438 184.085C70.596 184.595 70.995 184.994 71.505 185.152L74.865 186.193C75.165 186.286 75.165 186.711 74.865 186.804L71.505 187.845C70.995 188.003 70.596 188.402 70.438 188.912L69.397 192.272C69.304 192.572 68.879 192.572 68.786 192.272L67.745 188.912C67.587 188.402 67.188 188.003 66.678 187.845L63.318 186.804C63.018 186.711 63.018 186.286 63.318 186.193L66.678 185.152C67.188 184.994 67.587 184.595 67.745 184.085L68.786 180.725C68.879 180.425 69.304 180.425 69.397 180.725Z" fill="#3662FF"></path><path d="M183.397 46.725L184.438 50.085C184.596 50.595 184.995 50.994 185.505 51.152L188.865 52.193C189.165 52.286 189.165 52.711 188.865 52.804L185.505 53.845C184.995 54.003 184.596 54.402 184.438 54.912L183.397 58.272C183.304 58.572 182.879 58.572 182.786 58.272L181.745 54.912C181.587 54.402 181.188 54.003 180.678 53.845L177.318 52.804C177.018 52.711 177.018 52.286 177.318 52.193L180.678 51.152C181.188 50.994 181.587 50.595 181.745 50.085L182.786 46.725C182.879 46.425 183.304 46.425 183.397 46.725Z" fill="#3662FF"></path><defs><linearGradient id="paint0_linear_124_38719" x1="152.5" y1="80" x2="152.5" y2="153" gradientUnits="userSpaceOnUse"><stop stop-color="#0437F2"></stop><stop offset="1" stop-color="#0437F2" stop-opacity="0"></stop></linearGradient><linearGradient id="paint1_linear_124_38719" x1="38.5" y1="9" x2="38.5" y2="82" gradientUnits="userSpaceOnUse"><stop stop-color="#0437F2"></stop><stop offset="1" stop-color="#0437F2" stop-opacity="0"></stop></linearGradient><linearGradient id="paint2_linear_124_38719" x1="135" y1="231.153" x2="135" y2="19.8652" gradientUnits="userSpaceOnUse"><stop stop-color="#F0F0F0" stop-opacity="0"></stop><stop offset="0.3335" stop-color="#EDEDED"></stop><stop offset="0.6012" stop-color="#E3E3E3"></stop><stop offset="0.8453" stop-color="#D2D2D2"></stop><stop offset="1" stop-color="#C3C3C3"></stop></linearGradient><linearGradient id="paint3_linear_124_38719" x1="69.4051" y1="43.3421" x2="69.4051" y2="131.763" gradientUnits="userSpaceOnUse"><stop stop-color="#87E475"></stop><stop offset="0.0729167" stop-color="#2EC70F"></stop><stop offset="1" stop-color="#209600"></stop></linearGradient><linearGradient id="paint4_linear_124_38719" x1="107.093" y1="18.3947" x2="107.093" y2="102.607" gradientUnits="userSpaceOnUse"><stop stop-color="#65E04D"></stop><stop offset="1" stop-color="#18AD00"></stop></linearGradient><linearGradient id="paint5_linear_124_38719" x1="134.917" y1="3.04873" x2="134.917" y2="18.8461" gradientUnits="userSpaceOnUse"><stop stop-color="#EDEDED"></stop><stop offset="1" stop-color="#DDDDDD"></stop></linearGradient><linearGradient id="paint6_linear_124_38719" x1="202.539" y1="26.3017" x2="209.664" y2="19.1765" gradientUnits="userSpaceOnUse"><stop stop-color="#FFFFED" stop-opacity="0"></stop><stop offset="0.4031" stop-color="#FFFFF6" stop-opacity="0.1612"></stop><stop offset="1" stop-color="white" stop-opacity="0.4"></stop></linearGradient><linearGradient id="paint7_linear_124_38719" x1="71.093" y1="73.5" x2="75.093" y2="73.5" gradientUnits="userSpaceOnUse"><stop stop-color="#882E26" stop-opacity="0"></stop><stop offset="1" stop-color="#7C2200" stop-opacity="0.05"></stop></linearGradient><linearGradient id="paint8_linear_124_38719" x1="135.637" y1="5.48876" x2="135.637" y2="20.0469" gradientUnits="userSpaceOnUse"><stop stop-color="#000400" stop-opacity="0"></stop><stop offset="1" stop-opacity="0.05"></stop></linearGradient><linearGradient id="paint9_linear_124_38719" x1="135.093" y1="104.667" x2="135.093" y2="100.351" gradientUnits="userSpaceOnUse"><stop stop-color="#000400" stop-opacity="0"></stop><stop offset="1" stop-opacity="0.05"></stop></linearGradient></defs></svg> 