<?xml version="1.0" encoding="UTF-8"?> <svg xmlns="http://www.w3.org/2000/svg" width="36" height="37" viewBox="0 0 36 37" fill="none"><rect x="1" y="2" width="34" height="34" rx="8" fill="#3662FF"></rect><path fill-rule="evenodd" clip-rule="evenodd" d="M10.2192 12.2925C9.92612 11.9998 9.92573 11.525 10.2184 11.2318C10.511 10.9387 10.9859 10.9383 11.279 11.231L18.5 18.4402L25.721 11.231C26.0141 10.9383 26.489 10.9387 26.7817 11.2318C27.0743 11.525 27.0739 11.9998 26.7808 12.2925L19.5617 19.4999L26.7808 26.7073C27.0739 27 27.0743 27.4749 26.7817 27.768C26.489 28.0611 26.0141 28.0615 25.721 27.7688L18.5 20.5596L11.279 27.7688C10.9859 28.0615 10.511 28.0611 10.2184 27.768C9.92573 27.4749 9.92612 27 10.2192 26.7073L17.4384 19.4999L10.2192 12.2925Z" fill="#F8FBFF"></path></svg> 