<?xml version="1.0" encoding="UTF-8"?> <svg xmlns="http://www.w3.org/2000/svg" width="148" height="109" viewBox="0 0 148 109" fill="none"><path opacity="0.35" d="M8.75 8.75C10.4759 8.75 11.875 7.35089 11.875 5.625C11.875 3.89911 10.4759 2.5 8.75 2.5C7.02411 2.5 5.625 3.89911 5.625 5.625C5.625 7.35089 7.02411 8.75 8.75 8.75Z" fill="#FA5087"></path><path opacity="0.35" d="M21.25 8.75C22.9759 8.75 24.375 7.35089 24.375 5.625C24.375 3.89911 22.9759 2.5 21.25 2.5C19.5241 2.5 18.125 3.89911 18.125 5.625C18.125 7.35089 19.5241 8.75 21.25 8.75Z" fill="#FA5087"></path><path opacity="0.35" d="M15 15C16.3807 15 17.5 13.8807 17.5 12.5C17.5 11.1193 16.3807 10 15 10C13.6193 10 12.5 11.1193 12.5 12.5C12.5 13.8807 13.6193 15 15 15Z" fill="#FA5087"></path><path opacity="0.35" d="M16.25 16.25H13.75C12.3687 16.25 11.25 17.3687 11.25 18.75V22.5C11.25 23.19 11.81 23.75 12.5 23.75V26.25C12.5 26.94 13.06 27.5 13.75 27.5C14.44 27.5 15.56 27.5 16.25 27.5C16.94 27.5 17.5 26.94 17.5 26.25V23.75C18.19 23.75 18.75 23.19 18.75 22.5V18.75C18.75 17.3687 17.6312 16.25 16.25 16.25Z" fill="#FA5087"></path><path d="M22.5 10H21.25H20C18.87 10 17.8687 10.51 17.1812 11.3013C17.3775 11.6588 17.5 12.0625 17.5 12.5C17.5 12.9575 17.375 13.3837 17.1588 13.75H17.1537C17.0562 13.9175 16.935 14.0675 16.8038 14.2075C16.7875 14.2238 16.7775 14.245 16.7613 14.2613C16.745 14.2775 16.7238 14.2875 16.7075 14.3038C16.5675 14.435 16.4175 14.5562 16.25 14.6537V14.6588C15.8825 14.875 15.4575 15 15 15C14.5425 15 14.1163 14.875 13.75 14.6588V14.6537C13.5825 14.5562 13.4325 14.435 13.2925 14.3038C13.2762 14.2875 13.255 14.2775 13.2387 14.2613C13.2225 14.245 13.2125 14.2238 13.1962 14.2075C13.065 14.0675 12.9438 13.9175 12.8463 13.75H12.8412C12.625 13.3837 12.5 12.9575 12.5 12.5C12.5 12.0625 12.6225 11.6588 12.8188 11.3013C12.1313 10.51 11.13 10 10 10H8.75H7.5C5.42875 10 3.75 11.6788 3.75 13.75V20.625C3.75 21.4475 4.28375 22.14 5.02125 22.3925C5.01875 22.4287 5 22.4613 5 22.5C5 22.7325 5 26.0175 5 26.25C5 26.94 5.56 27.5 6.25 27.5C6.94 27.5 7.5 26.94 7.5 26.25C7.5 26.0175 7.5 22.7325 7.5 22.5C7.5 21.81 8.06 21.25 8.75 21.25C9.44 21.25 10 21.81 10 22.5C10 22.7325 10 26.0175 10 26.25C10 26.94 10.56 27.5 11.25 27.5C11.94 27.5 12.5 26.94 12.5 26.25C12.5 26.1063 12.5 24.7863 12.5 23.75C11.81 23.75 11.25 23.19 11.25 22.5V18.75C11.25 17.3688 12.3687 16.25 13.75 16.25H16.25C17.6313 16.25 18.75 17.3688 18.75 18.75V22.5C18.75 23.19 18.19 23.75 17.5 23.75C17.5 24.7863 17.5 26.1063 17.5 26.25C17.5 26.94 18.06 27.5 18.75 27.5C19.44 27.5 20 26.94 20 26.25C20 26.0175 20 22.7325 20 22.5C20 21.81 20.56 21.25 21.25 21.25C21.94 21.25 22.5 21.81 22.5 22.5C22.5 22.7325 22.5 26.0175 22.5 26.25C22.5 26.94 23.06 27.5 23.75 27.5C24.44 27.5 25 26.94 25 26.25C25 26.0175 25 22.7325 25 22.5C25 22.4613 24.9812 22.4287 24.9788 22.3925C25.7162 22.14 26.25 21.4475 26.25 20.625V13.75C26.25 11.6788 24.5712 10 22.5 10Z" fill="#FA5087"></path><path d="M8.98864 79H1.76989V58.6364H9.0483C11.0966 58.6364 12.8598 59.044 14.3381 59.8594C15.8163 60.6681 16.9531 61.8314 17.7486 63.3494C18.5507 64.8674 18.9517 66.6837 18.9517 68.7983C18.9517 70.9195 18.5507 72.7424 17.7486 74.267C16.9531 75.7917 15.8097 76.9616 14.3182 77.777C12.8333 78.5923 11.0568 79 8.98864 79ZM6.07528 75.3111H8.80966C10.0824 75.3111 11.1529 75.0857 12.0213 74.6349C12.8963 74.1776 13.5526 73.4716 13.9901 72.517C14.4342 71.5559 14.6562 70.3163 14.6562 68.7983C14.6562 67.2936 14.4342 66.0639 13.9901 65.1094C13.5526 64.1548 12.8996 63.4522 12.0312 63.0014C11.1629 62.5507 10.0923 62.3253 8.8196 62.3253H6.07528V75.3111ZM29.5217 79.2983C27.9506 79.2983 26.5984 78.9801 25.4648 78.3438C24.3379 77.7008 23.4696 76.7926 22.8597 75.6193C22.2499 74.4394 21.945 73.044 21.945 71.4332C21.945 69.8622 22.2499 68.4834 22.8597 67.2969C23.4696 66.1103 24.328 65.1856 25.435 64.5227C26.5487 63.8598 27.8545 63.5284 29.3526 63.5284C30.3602 63.5284 31.2982 63.6908 32.1665 64.0156C33.0415 64.3338 33.8039 64.8144 34.4535 65.4574C35.1097 66.1004 35.6201 66.9091 35.9847 67.8835C36.3493 68.8513 36.5316 69.9848 36.5316 71.2841V72.4474H23.6353V69.8224H32.5444C32.5444 69.2126 32.4118 68.6723 32.1467 68.2017C31.8815 67.7311 31.5136 67.3632 31.043 67.098C30.579 66.8262 30.0387 66.6903 29.4222 66.6903C28.7792 66.6903 28.2092 66.8395 27.712 67.1378C27.2215 67.4295 26.837 67.8239 26.5586 68.321C26.2802 68.8116 26.1377 69.3584 26.131 69.9616V72.4574C26.131 73.2131 26.2702 73.866 26.5487 74.4162C26.8337 74.9664 27.2347 75.3906 27.7518 75.6889C28.2688 75.9872 28.882 76.1364 29.5913 76.1364C30.0619 76.1364 30.4928 76.0701 30.8839 75.9375C31.275 75.8049 31.6097 75.6061 31.8881 75.3409C32.1665 75.0758 32.3787 74.7509 32.5245 74.3665L36.4421 74.625C36.2433 75.5663 35.8356 76.3883 35.2191 77.0909C34.6093 77.7869 33.8204 78.3305 32.8526 78.7216C31.8915 79.1061 30.7811 79.2983 29.5217 79.2983ZM39.7958 79V63.7273H43.8327V66.4219H44.0117C44.3299 65.527 44.8602 64.821 45.6026 64.304C46.3451 63.7869 47.2333 63.5284 48.2674 63.5284C49.3147 63.5284 50.2063 63.7902 50.9421 64.3139C51.6779 64.831 52.1684 65.5336 52.4137 66.4219H52.5728C52.8844 65.5469 53.4478 64.8475 54.2631 64.3239C55.0851 63.7936 56.0562 63.5284 57.1765 63.5284C58.6017 63.5284 59.7584 63.9825 60.6467 64.8906C61.5415 65.7921 61.989 67.0715 61.989 68.7287V79H57.7631V69.5639C57.7631 68.7154 57.5378 68.0791 57.087 67.6548C56.6362 67.2306 56.0728 67.0185 55.3967 67.0185C54.6277 67.0185 54.0278 67.2637 53.5969 67.7543C53.1661 68.2382 52.9506 68.8778 52.9506 69.6733V79H48.8441V69.4744C48.8441 68.7254 48.6287 68.1288 48.1978 67.6847C47.7736 67.2405 47.2134 67.0185 46.5174 67.0185C46.0468 67.0185 45.6225 67.1378 45.2447 67.3764C44.8735 67.6084 44.5785 67.9366 44.3597 68.3608C44.141 68.7784 44.0316 69.2689 44.0316 69.8324V79H39.7958ZM72.7354 79.2983C71.1909 79.2983 69.8552 78.9702 68.7283 78.3139C67.6081 77.651 66.743 76.7296 66.1332 75.5497C65.5233 74.3632 65.2184 72.9877 65.2184 71.4233C65.2184 69.8456 65.5233 68.4669 66.1332 67.2869C66.743 66.1004 67.6081 65.179 68.7283 64.5227C69.8552 63.8598 71.1909 63.5284 72.7354 63.5284C74.2799 63.5284 75.6123 63.8598 76.7326 64.5227C77.8595 65.179 78.7279 66.1004 79.3377 67.2869C79.9476 68.4669 80.2525 69.8456 80.2525 71.4233C80.2525 72.9877 79.9476 74.3632 79.3377 75.5497C78.7279 76.7296 77.8595 77.651 76.7326 78.3139C75.6123 78.9702 74.2799 79.2983 72.7354 79.2983ZM72.7553 76.017C73.458 76.017 74.0446 75.8182 74.5153 75.4205C74.9859 75.0161 75.3406 74.4659 75.5792 73.7699C75.8245 73.0739 75.9471 72.2817 75.9471 71.3935C75.9471 70.5052 75.8245 69.7131 75.5792 69.017C75.3406 68.321 74.9859 67.7708 74.5153 67.3665C74.0446 66.9621 73.458 66.7599 72.7553 66.7599C72.046 66.7599 71.4495 66.9621 70.9656 67.3665C70.4883 67.7708 70.127 68.321 69.8817 69.017C69.6431 69.7131 69.5238 70.5052 69.5238 71.3935C69.5238 72.2817 69.6431 73.0739 69.8817 73.7699C70.127 74.4659 70.4883 75.0161 70.9656 75.4205C71.4495 75.8182 72.046 76.017 72.7553 76.017ZM90.3874 85.0455C89.0153 85.0455 87.8387 84.8565 86.8576 84.4787C85.8832 84.1075 85.1076 83.6004 84.5309 82.9574C83.9542 82.3144 83.5797 81.5919 83.4073 80.7898L87.3249 80.2628C87.4442 80.5677 87.6332 80.8527 87.8917 81.1179C88.1502 81.383 88.4916 81.5952 88.9158 81.7543C89.3467 81.92 89.8704 82.0028 90.4869 82.0028C91.4083 82.0028 92.1673 81.7775 92.7638 81.3267C93.3671 80.8826 93.6687 80.1368 93.6687 79.0895V76.2955H93.4897C93.3041 76.7197 93.0257 77.1207 92.6545 77.4986C92.2833 77.8764 91.806 78.1847 91.2227 78.4233C90.6393 78.6619 89.9433 78.7812 89.1346 78.7812C87.9878 78.7812 86.9438 78.5161 86.0025 77.9858C85.0678 77.4489 84.3221 76.6302 83.7653 75.5298C83.2151 74.4228 82.94 73.0241 82.94 71.3338C82.94 69.6037 83.2217 68.1586 83.7852 66.9986C84.3486 65.8385 85.0977 64.9702 86.0323 64.3935C86.9736 63.8168 88.0044 63.5284 89.1246 63.5284C89.9798 63.5284 90.6957 63.6742 91.2724 63.9659C91.8491 64.2509 92.3131 64.6089 92.6644 65.0398C93.0224 65.464 93.2975 65.8816 93.4897 66.2926H93.6488V63.7273H97.8548V79.1491C97.8548 80.4484 97.5366 81.5355 96.9002 82.4105C96.2638 83.2855 95.3822 83.9418 94.2553 84.3793C93.1351 84.8234 91.8458 85.0455 90.3874 85.0455ZM90.4769 75.5994C91.1597 75.5994 91.7364 75.4304 92.207 75.0923C92.6843 74.7476 93.0489 74.2571 93.3008 73.6207C93.5593 72.9777 93.6886 72.2088 93.6886 71.3139C93.6886 70.419 93.5626 69.6435 93.3107 68.9872C93.0588 68.3243 92.6942 67.8106 92.217 67.446C91.7397 67.0814 91.1597 66.8991 90.4769 66.8991C89.7809 66.8991 89.1942 67.0881 88.717 67.4659C88.2397 67.8371 87.8784 68.3542 87.6332 69.017C87.3879 69.6799 87.2653 70.4455 87.2653 71.3139C87.2653 72.1955 87.3879 72.9579 87.6332 73.6009C87.8851 74.2372 88.2463 74.7311 88.717 75.0824C89.1942 75.4271 89.7809 75.5994 90.4769 75.5994ZM101.725 79V63.7273H105.832V66.392H105.991C106.27 65.4441 106.737 64.7282 107.393 64.2443C108.049 63.7538 108.805 63.5085 109.66 63.5085C109.872 63.5085 110.101 63.5218 110.346 63.5483C110.592 63.5748 110.807 63.6113 110.993 63.6577V67.4162C110.794 67.3565 110.519 67.3035 110.167 67.2571C109.816 67.2107 109.494 67.1875 109.203 67.1875C108.58 67.1875 108.023 67.3234 107.532 67.5952C107.048 67.8603 106.664 68.2315 106.379 68.7088C106.1 69.1861 105.961 69.7363 105.961 70.3594V79H101.725ZM117.6 79.2884C116.626 79.2884 115.757 79.1193 114.995 78.7812C114.233 78.4366 113.629 77.9295 113.185 77.2599C112.748 76.5838 112.529 75.742 112.529 74.7344C112.529 73.8859 112.685 73.1733 112.996 72.5966C113.308 72.0199 113.732 71.5559 114.269 71.2045C114.806 70.8532 115.416 70.5881 116.099 70.4091C116.788 70.2301 117.511 70.1042 118.266 70.0312C119.155 69.9384 119.871 69.8523 120.414 69.7727C120.958 69.6866 121.352 69.5606 121.597 69.3949C121.843 69.2292 121.965 68.9839 121.965 68.6591V68.5994C121.965 67.9697 121.766 67.4825 121.369 67.1378C120.978 66.7931 120.421 66.6207 119.698 66.6207C118.936 66.6207 118.329 66.7898 117.879 67.1278C117.428 67.4593 117.129 67.8769 116.984 68.3807L113.066 68.0625C113.265 67.1345 113.656 66.3324 114.239 65.6562C114.823 64.9735 115.575 64.4498 116.496 64.0852C117.424 63.714 118.498 63.5284 119.718 63.5284C120.567 63.5284 121.379 63.6278 122.154 63.8267C122.936 64.0256 123.629 64.3338 124.232 64.7514C124.842 65.169 125.323 65.706 125.674 66.3622C126.025 67.0118 126.201 67.7907 126.201 68.6989V79H122.184V76.8821H122.065C121.819 77.3594 121.491 77.7803 121.08 78.1449C120.669 78.5028 120.175 78.7846 119.599 78.9901C119.022 79.1889 118.356 79.2884 117.6 79.2884ZM118.813 76.3651C119.436 76.3651 119.987 76.2424 120.464 75.9972C120.941 75.7453 121.316 75.4072 121.587 74.983C121.859 74.5587 121.995 74.0781 121.995 73.5412V71.9205C121.862 72.0066 121.68 72.0862 121.448 72.1591C121.223 72.2254 120.968 72.2884 120.683 72.348C120.397 72.401 120.112 72.4508 119.827 72.4972C119.542 72.5369 119.284 72.5734 119.052 72.6065C118.555 72.6795 118.121 72.7955 117.749 72.9545C117.378 73.1136 117.09 73.3291 116.884 73.6009C116.679 73.866 116.576 74.1974 116.576 74.5952C116.576 75.1719 116.785 75.6127 117.202 75.9176C117.627 76.2159 118.164 76.3651 118.813 76.3651ZM138.2 63.7273V66.9091H128.774V63.7273H138.2ZM130.932 79V62.6236C130.932 61.5166 131.147 60.5985 131.578 59.8693C132.016 59.1402 132.612 58.5933 133.368 58.2287C134.124 57.8641 134.982 57.6818 135.943 57.6818C136.593 57.6818 137.186 57.7315 137.723 57.831C138.267 57.9304 138.671 58.0199 138.936 58.0994L138.18 61.2812C138.015 61.2282 137.809 61.1785 137.564 61.1321C137.325 61.0857 137.08 61.0625 136.828 61.0625C136.205 61.0625 135.771 61.2083 135.526 61.5C135.28 61.785 135.158 62.1861 135.158 62.7031V79H130.932ZM141.288 79V63.7273H145.524V79H141.288ZM143.416 61.7585C142.786 61.7585 142.246 61.5497 141.795 61.1321C141.351 60.7079 141.129 60.2008 141.129 59.6108C141.129 59.0275 141.351 58.527 141.795 58.1094C142.246 57.6851 142.786 57.473 143.416 57.473C144.046 57.473 144.583 57.6851 145.027 58.1094C145.477 58.527 145.703 59.0275 145.703 59.6108C145.703 60.2008 145.477 60.7079 145.027 61.1321C144.583 61.5497 144.046 61.7585 143.416 61.7585Z" fill="#FA5087"></path><path opacity="0.2" d="M0 108.5H140" stroke="#7C88B1"></path></svg> 