<?xml version="1.0" encoding="UTF-8"?> <svg xmlns="http://www.w3.org/2000/svg" width="140" height="109" viewBox="0 0 140 109" fill="none"><path opacity="0.35" d="M22.5 26.2501H7.5C5.42875 26.2501 3.75 24.5713 3.75 22.5001V10.9563C3.75 9.59383 4.48875 8.34008 5.67875 7.67883L13.1788 3.51258C14.3113 2.88383 15.6887 2.88383 16.8212 3.51258L24.3213 7.67883C25.5113 8.34008 26.25 9.59508 26.25 10.9563V22.5001C26.25 24.5713 24.5712 26.2501 22.5 26.2501Z" fill="#FFB800"></path><path d="M18.75 26.25H11.25V18.75C11.25 17.3687 12.3687 16.25 13.75 16.25H16.25C17.6312 16.25 18.75 17.3687 18.75 18.75V26.25Z" fill="#FFB800"></path><path d="M25.6237 11.5377C25.315 11.5377 25.0037 11.4614 24.715 11.3014L16.1662 6.55145C15.4362 6.14645 14.5662 6.14645 13.8362 6.55145L5.28749 11.3014C4.38124 11.8039 3.24124 11.4789 2.73749 10.5727C2.23499 9.6677 2.55999 8.52645 3.46624 8.0227L12.015 3.2727C13.885 2.2327 16.1175 2.23395 17.9875 3.2727L26.5362 8.0227C27.4412 8.5252 27.7675 9.66645 27.265 10.5727C26.9212 11.1902 26.2825 11.5377 25.6237 11.5377Z" fill="#FFB800"></path><path d="M1.76989 79V58.6364H15.4915V62.1861H6.07528V67.0384H14.7855V70.5881H6.07528V75.4503H15.5312V79H1.76989ZM19.3349 79V63.7273H23.3718V66.4219H23.5508C23.869 65.527 24.3993 64.821 25.1417 64.304C25.8841 63.7869 26.7724 63.5284 27.8065 63.5284C28.8538 63.5284 29.7454 63.7902 30.4812 64.3139C31.217 64.831 31.7075 65.5336 31.9528 66.4219H32.1119C32.4234 65.5469 32.9869 64.8475 33.8022 64.3239C34.6242 63.7936 35.5953 63.5284 36.7156 63.5284C38.1407 63.5284 39.2975 63.9825 40.1857 64.8906C41.0806 65.7921 41.5281 67.0715 41.5281 68.7287V79H37.3022V69.5639C37.3022 68.7154 37.0768 68.0791 36.6261 67.6548C36.1753 67.2306 35.6119 67.0185 34.9357 67.0185C34.1668 67.0185 33.5669 67.2637 33.136 67.7543C32.7051 68.2382 32.4897 68.8778 32.4897 69.6733V79H28.3832V69.4744C28.3832 68.7254 28.1677 68.1288 27.7369 67.6847C27.3126 67.2405 26.7525 67.0185 26.0565 67.0185C25.5858 67.0185 25.1616 67.1378 24.7837 67.3764C24.4125 67.6084 24.1175 67.9366 23.8988 68.3608C23.68 68.7784 23.5707 69.2689 23.5707 69.8324V79H19.3349ZM49.6097 58.6364V79H45.3739V58.6364H49.6097ZM57.858 79.2884C56.8835 79.2884 56.0152 79.1193 55.2528 78.7812C54.4905 78.4366 53.8873 77.9295 53.4432 77.2599C53.0057 76.5838 52.7869 75.742 52.7869 74.7344C52.7869 73.8859 52.9427 73.1733 53.2543 72.5966C53.5658 72.0199 53.9901 71.5559 54.527 71.2045C55.0639 70.8532 55.6738 70.5881 56.3565 70.4091C57.0459 70.2301 57.7685 70.1042 58.5241 70.0312C59.4124 69.9384 60.1283 69.8523 60.6719 69.7727C61.2154 69.6866 61.6098 69.5606 61.8551 69.3949C62.1004 69.2292 62.223 68.9839 62.223 68.6591V68.5994C62.223 67.9697 62.0241 67.4825 61.6264 67.1378C61.2353 66.7931 60.6785 66.6207 59.956 66.6207C59.1937 66.6207 58.5871 66.7898 58.1364 67.1278C57.6856 67.4593 57.3873 67.8769 57.2415 68.3807L53.3239 68.0625C53.5227 67.1345 53.9138 66.3324 54.4972 65.6562C55.0805 64.9735 55.8329 64.4498 56.7543 64.0852C57.6823 63.714 58.7562 63.5284 59.9759 63.5284C60.8243 63.5284 61.6364 63.6278 62.4119 63.8267C63.1941 64.0256 63.8868 64.3338 64.4901 64.7514C65.0999 65.169 65.5805 65.706 65.9318 66.3622C66.2831 67.0118 66.4588 67.7907 66.4588 68.6989V79H62.4418V76.8821H62.3224C62.0772 77.3594 61.7491 77.7803 61.3381 78.1449C60.9271 78.5028 60.4332 78.7846 59.8565 78.9901C59.2798 79.1889 58.6136 79.2884 57.858 79.2884ZM59.071 76.3651C59.6941 76.3651 60.2443 76.2424 60.7216 75.9972C61.1989 75.7453 61.5734 75.4072 61.8452 74.983C62.117 74.5587 62.2528 74.0781 62.2528 73.5412V71.9205C62.1203 72.0066 61.938 72.0862 61.706 72.1591C61.4806 72.2254 61.2254 72.2884 60.9403 72.348C60.6553 72.401 60.3703 72.4508 60.0852 72.4972C59.8002 72.5369 59.5417 72.5734 59.3097 72.6065C58.8125 72.6795 58.3783 72.7955 58.0071 72.9545C57.6359 73.1136 57.3475 73.3291 57.142 73.6009C56.9366 73.866 56.8338 74.1974 56.8338 74.5952C56.8338 75.1719 57.0426 75.6127 57.4602 75.9176C57.8845 76.2159 58.4214 76.3651 59.071 76.3651ZM74.0831 74.6051L74.093 69.5241H74.7095L79.6016 63.7273H84.4638L77.8913 71.4034H76.8871L74.0831 74.6051ZM70.245 79V58.6364H74.4808V79H70.245ZM79.7905 79L75.2962 72.348L78.12 69.3551L84.7521 79H79.7905Z" fill="#FFB800"></path><path opacity="0.2" d="M0 108.5H140" stroke="#7C88B1"></path></svg> 