<?xml version="1.0" encoding="UTF-8"?> <svg xmlns="http://www.w3.org/2000/svg" width="140" height="109" viewBox="0 0 140 109" fill="none"><path opacity="0.35" d="M23.75 5H6.25C4.17875 5 2.5 6.67875 2.5 8.75V22.5C2.5 24.5712 4.17875 26.25 6.25 26.25H23.75C25.8212 26.25 27.5 24.5712 27.5 22.5V8.75C27.5 6.67875 25.8212 5 23.75 5Z" fill="#6863FB"></path><path d="M9.375 16.25C11.1009 16.25 12.5 14.8509 12.5 13.125C12.5 11.3991 11.1009 10 9.375 10C7.64911 10 6.25 11.3991 6.25 13.125C6.25 14.8509 7.64911 16.25 9.375 16.25Z" fill="#6863FB"></path><path d="M16.25 2.5C15.7925 2.5 14.2075 2.5 13.75 2.5C12.3687 2.5 11.25 3.61875 11.25 5H18.75C18.75 3.61875 17.6313 2.5 16.25 2.5Z" fill="#6863FB"></path><path d="M22.9663 19.2015L14.9988 22.5015C14.3613 22.7652 13.63 22.4627 13.365 21.8252L12.4975 19.7302C12.2338 19.0927 12.5363 18.3615 13.1738 18.0965L21.1413 14.7965C21.7788 14.5327 22.51 14.8352 22.775 15.4727L23.6425 17.5677C23.9075 18.2065 23.605 18.9377 22.9663 19.2015Z" fill="#6863FB"></path><path d="M1.76989 79V58.6364H15.2528V62.1861H6.07528V67.0384H14.358V70.5881H6.07528V79H1.76989ZM18.5692 79V63.7273H22.805V79H18.5692ZM20.6971 61.7585C20.0674 61.7585 19.5271 61.5497 19.0763 61.1321C18.6322 60.7079 18.4102 60.2008 18.4102 59.6108C18.4102 59.0275 18.6322 58.527 19.0763 58.1094C19.5271 57.6851 20.0674 57.473 20.6971 57.473C21.3268 57.473 21.8638 57.6851 22.3079 58.1094C22.7586 58.527 22.984 59.0275 22.984 59.6108C22.984 60.2008 22.7586 60.7079 22.3079 61.1321C21.8638 61.5497 21.3268 61.7585 20.6971 61.7585ZM30.9339 70.1705V79H26.6982V63.7273H30.7351V66.4219H30.9141C31.2521 65.5336 31.8189 64.831 32.6143 64.3139C33.4098 63.7902 34.3743 63.5284 35.5078 63.5284C36.5684 63.5284 37.4931 63.7604 38.282 64.2244C39.0708 64.6884 39.6839 65.3513 40.1214 66.2131C40.5589 67.0682 40.7777 68.089 40.7777 69.2756V79H36.5419V70.0312C36.5485 69.0966 36.3099 68.3674 35.826 67.8438C35.3421 67.3134 34.6759 67.0483 33.8274 67.0483C33.2573 67.0483 32.7536 67.1709 32.3161 67.4162C31.8852 67.6615 31.5471 68.0194 31.3018 68.4901C31.0632 68.9541 30.9406 69.5142 30.9339 70.1705ZM48.9712 79.2884C47.9968 79.2884 47.1284 79.1193 46.3661 78.7812C45.6038 78.4366 45.0006 77.9295 44.5565 77.2599C44.119 76.5838 43.9002 75.742 43.9002 74.7344C43.9002 73.8859 44.056 73.1733 44.3675 72.5966C44.6791 72.0199 45.1033 71.5559 45.6403 71.2045C46.1772 70.8532 46.7871 70.5881 47.4698 70.4091C48.1592 70.2301 48.8817 70.1042 49.6374 70.0312C50.5257 69.9384 51.2416 69.8523 51.7852 69.7727C52.3287 69.6866 52.7231 69.5606 52.9684 69.3949C53.2137 69.2292 53.3363 68.9839 53.3363 68.6591V68.5994C53.3363 67.9697 53.1374 67.4825 52.7397 67.1378C52.3486 66.7931 51.7918 66.6207 51.0692 66.6207C50.3069 66.6207 49.7004 66.7898 49.2496 67.1278C48.7989 67.4593 48.5006 67.8769 48.3548 68.3807L44.4371 68.0625C44.636 67.1345 45.0271 66.3324 45.6104 65.6562C46.1938 64.9735 46.9461 64.4498 47.8675 64.0852C48.7956 63.714 49.8694 63.5284 51.0891 63.5284C51.9376 63.5284 52.7496 63.6278 53.5252 63.8267C54.3074 64.0256 55.0001 64.3338 55.6033 64.7514C56.2132 65.169 56.6938 65.706 57.0451 66.3622C57.3964 67.0118 57.5721 67.7907 57.5721 68.6989V79H53.555V76.8821H53.4357C53.1905 77.3594 52.8623 77.7803 52.4513 78.1449C52.0404 78.5028 51.5465 78.7846 50.9698 78.9901C50.3931 79.1889 49.7269 79.2884 48.9712 79.2884ZM50.1843 76.3651C50.8074 76.3651 51.3576 76.2424 51.8349 75.9972C52.3121 75.7453 52.6867 75.4072 52.9585 74.983C53.2302 74.5587 53.3661 74.0781 53.3661 73.5412V71.9205C53.2335 72.0066 53.0513 72.0862 52.8192 72.1591C52.5939 72.2254 52.3387 72.2884 52.0536 72.348C51.7686 72.401 51.4835 72.4508 51.1985 72.4972C50.9135 72.5369 50.6549 72.5734 50.4229 72.6065C49.9258 72.6795 49.4916 72.7955 49.1204 72.9545C48.7492 73.1136 48.4608 73.3291 48.2553 73.6009C48.0498 73.866 47.9471 74.1974 47.9471 74.5952C47.9471 75.1719 48.1559 75.6127 48.5735 75.9176C48.9978 76.2159 49.5347 76.3651 50.1843 76.3651ZM65.5941 70.1705V79H61.3583V63.7273H65.3952V66.4219H65.5742C65.9123 65.5336 66.479 64.831 67.2745 64.3139C68.07 63.7902 69.0344 63.5284 70.168 63.5284C71.2286 63.5284 72.1533 63.7604 72.9421 64.2244C73.7309 64.6884 74.3441 65.3513 74.7816 66.2131C75.2191 67.0682 75.4379 68.089 75.4379 69.2756V79H71.2021V70.0312C71.2087 69.0966 70.9701 68.3674 70.4862 67.8438C70.0022 67.3134 69.3361 67.0483 68.4876 67.0483C67.9175 67.0483 67.4137 67.1709 66.9762 67.4162C66.5453 67.6615 66.2073 68.0194 65.962 68.4901C65.7234 68.9541 65.6007 69.5142 65.5941 70.1705ZM91.9837 68.0824L88.1058 68.321C88.0395 67.9896 87.897 67.6913 87.6783 67.4261C87.4595 67.1544 87.1712 66.9389 86.8132 66.7798C86.4619 66.6141 86.041 66.5312 85.5504 66.5312C84.8942 66.5312 84.3407 66.6705 83.8899 66.9489C83.4392 67.2206 83.2138 67.5852 83.2138 68.0426C83.2138 68.4072 83.3596 68.7154 83.6513 68.9673C83.9429 69.2192 84.4434 69.4214 85.1527 69.5739L87.9169 70.1307C89.4018 70.4356 90.5088 70.9261 91.2379 71.6023C91.9671 72.2784 92.3317 73.1667 92.3317 74.267C92.3317 75.268 92.0367 76.1463 91.4467 76.902C90.8634 77.6577 90.0613 78.2476 89.0405 78.6719C88.0263 79.0895 86.8563 79.2983 85.5305 79.2983C83.5088 79.2983 81.898 78.8774 80.6982 78.0355C79.505 77.187 78.8056 76.0336 78.6001 74.5753L82.7663 74.3565C82.8923 74.973 83.1972 75.4437 83.6811 75.7685C84.165 76.0866 84.7848 76.2457 85.5405 76.2457C86.2829 76.2457 86.8795 76.1032 87.3303 75.8182C87.7876 75.5265 88.0197 75.152 88.0263 74.6946C88.0197 74.3101 87.8572 73.9953 87.5391 73.75C87.2209 73.4981 86.7304 73.3059 86.0675 73.1733L83.4226 72.6463C81.9311 72.348 80.8208 71.831 80.0916 71.0952C79.3691 70.3594 79.0078 69.4214 79.0078 68.2812C79.0078 67.3002 79.273 66.455 79.8033 65.7457C80.3402 65.0365 81.0926 64.4896 82.0604 64.1051C83.0348 63.7206 84.175 63.5284 85.4808 63.5284C87.4098 63.5284 88.9278 63.9361 90.0348 64.7514C91.1484 65.5668 91.7981 66.6771 91.9837 68.0824Z" fill="#6863FB"></path><path opacity="0.2" d="M0 108.5H140" stroke="#7C88B1"></path></svg> 