<?xml version="1.0" encoding="UTF-8"?> <svg xmlns="http://www.w3.org/2000/svg" width="1440" height="1024" viewBox="0 0 1440 1024" fill="none"><g clip-path="url(#clip0_124_38548)"><rect width="1440" height="1024" fill="#3662FF"></rect><g style="mix-blend-mode:multiply" opacity="0.6"><path fill-rule="evenodd" clip-rule="evenodd" d="M322.021 128.819H310.251C300.501 128.819 292.596 136.792 292.596 146.628V158.501C292.596 168.336 300.501 176.31 310.251 176.31H322.021C331.772 176.31 339.677 168.336 339.677 158.501V146.628C339.677 136.792 331.772 128.819 322.021 128.819ZM520.934 223.801H532.704C542.454 223.801 550.359 231.774 550.359 241.61V253.483C550.359 263.318 542.454 271.292 532.704 271.292H520.934C511.183 271.292 503.279 263.318 503.279 253.483V241.61C503.279 231.774 511.183 223.801 520.934 223.801ZM758.689 707.612C763.985 702.269 771.636 698.707 779.286 698.707H897.575C914.053 698.707 927 685.648 927 669.026V538.426C927 521.804 914.053 508.745 897.575 508.745H768.105C751.627 508.745 738.68 521.804 738.68 538.426V647.655C738.68 655.372 735.737 663.089 729.852 668.432L629.219 769.944C621.568 777.661 609.21 772.318 609.21 761.633V585.323C609.21 568.702 622.157 555.642 638.635 555.642C655.113 555.642 668.06 542.582 668.06 525.96V419.106C668.06 402.484 655.113 389.424 638.635 389.424H532.705C516.227 389.424 503.28 402.484 503.28 419.106V525.96C503.28 542.582 516.227 555.642 532.705 555.642C549.183 555.642 562.13 568.702 562.13 585.323V825.151C562.13 832.869 559.187 840.586 553.302 845.929L382.049 1018.68C374.398 1026.39 362.04 1021.05 362.04 1010.37V467.19C362.04 450.568 374.987 437.508 391.465 437.508H403.235C419.713 437.508 432.66 424.448 432.66 407.827V277.227C432.66 260.605 419.713 247.546 403.235 247.546H273.765C257.287 247.546 244.34 260.605 244.34 277.227V407.827C244.34 424.448 257.287 437.508 273.765 437.508H285.535C302.013 437.508 314.96 450.568 314.96 467.19V731.357C314.96 742.043 302.013 747.385 294.951 739.668L159.007 602.539C153.711 597.196 150.18 589.479 150.18 581.762V467.19C150.18 450.568 137.233 437.508 120.755 437.508H-8.71501C-25.193 437.508 -38.14 450.568 -38.14 467.19V597.79C-38.14 614.411 -25.193 627.471 -8.71501 627.471H104.866C112.516 627.471 120.167 630.44 125.463 636.376L306.132 818.622C311.429 823.964 314.96 831.682 314.96 839.399V1182.52C314.96 1193.2 302.013 1198.55 294.951 1190.83L-76.3925 816.247C-81.689 810.904 -85.22 803.187 -85.22 795.47V704.644C-85.22 688.022 -98.167 674.962 -114.645 674.962H-220.575C-237.053 674.962 -250 688.022 -250 704.644V811.498C-250 828.12 -237.053 841.18 -220.575 841.18H-130.535C-122.884 841.18 -115.233 844.148 -109.937 850.084L284.946 1248.41C292.597 1256.13 287.3 1268.6 276.707 1268.6H-74.0385C-80.512 1268.6 -85.8085 1273.94 -85.8085 1280.47V1304.21C-85.8085 1310.74 -80.512 1316.09 -74.0385 1316.09H751.039C757.512 1316.09 762.808 1310.74 762.808 1304.21V1280.47C762.808 1273.94 757.512 1268.6 751.039 1268.6H391.465C374.987 1268.6 362.04 1255.54 362.04 1238.91V1119.59C362.04 1111.88 364.982 1104.16 370.867 1098.82L476.209 992.556C481.505 987.214 489.156 983.652 496.806 983.652H709.255C725.733 983.652 738.68 996.712 738.68 1013.33V1025.21C738.68 1041.83 751.627 1054.89 768.105 1054.89H897.575C914.053 1054.89 927 1041.83 927 1025.21V894.607C927 877.985 914.053 864.925 897.575 864.925H768.105C751.627 864.925 738.68 877.985 738.68 894.607V906.479C738.68 923.101 725.733 936.161 709.255 936.161H559.776C549.183 936.161 543.886 923.101 551.537 915.978L758.1 707.612H758.689ZM120.756 247.546H61.9061C45.6552 247.546 32.4811 260.834 32.4811 277.227V336.591C32.4811 352.983 45.6552 366.272 61.9061 366.272H120.756C137.007 366.272 150.181 352.983 150.181 336.591V277.227C150.181 260.834 137.007 247.546 120.756 247.546ZM768.105 295.036H826.955C843.206 295.036 856.38 308.325 856.38 324.718V384.081C856.38 400.474 843.206 413.763 826.955 413.763H768.105C751.854 413.763 738.68 400.474 738.68 384.081V324.718C738.68 308.325 751.854 295.036 768.105 295.036ZM-91.1068 1007.4H-149.957C-166.208 1007.4 -179.382 1020.69 -179.382 1037.08V1096.44C-179.382 1112.84 -166.208 1126.12 -149.957 1126.12H-91.1068C-74.8558 1126.12 -61.6818 1112.84 -61.6818 1096.44V1037.08C-61.6818 1020.69 -74.8558 1007.4 -91.1068 1007.4ZM61.9061 698.707H50.1361C40.3855 698.707 32.4811 706.681 32.4811 716.516V728.389C32.4811 738.225 40.3855 746.198 50.1361 746.198H61.9061C71.6567 746.198 79.5611 738.225 79.5611 728.389V716.516C79.5611 706.681 71.6567 698.707 61.9061 698.707ZM615.094 1031.14H626.864C636.615 1031.14 644.519 1039.12 644.519 1048.95V1060.82C644.519 1070.66 636.615 1078.63 626.864 1078.63H615.094C605.344 1078.63 597.439 1070.66 597.439 1060.82V1048.95C597.439 1039.12 605.344 1031.14 615.094 1031.14ZM191.377 841.18H156.067C139.816 841.18 126.642 854.469 126.642 870.861V906.479C126.642 922.872 139.816 936.161 156.067 936.161H191.377C207.628 936.161 220.802 922.872 220.802 906.479V870.861C220.802 854.469 207.628 841.18 191.377 841.18ZM485.624 1078.63H520.934C537.185 1078.63 550.359 1091.92 550.359 1108.32V1143.93C550.359 1160.33 537.185 1173.62 520.934 1173.62H485.624C469.373 1173.62 456.199 1160.33 456.199 1143.93V1108.32C456.199 1091.92 469.373 1078.63 485.624 1078.63ZM-143.483 343.714H-121.709C-105.458 343.714 -92.2836 357.003 -92.2836 373.396V395.36C-92.2836 411.753 -105.458 425.042 -121.709 425.042H-143.483C-159.734 425.042 -172.908 411.753 -172.908 395.36V373.396C-172.908 357.003 -159.734 343.714 -143.483 343.714Z" fill="#0437F2"></path></g><path d="M784 433H1327C1354.61 433 1377 455.386 1377 483V961H834C806.386 961 784 938.614 784 911V433Z" stroke="#1FD0A3" stroke-width="2"></path><path d="M59 60H504C531.614 60 554 82.3858 554 110V540H109C81.3858 540 59 517.614 59 490V60Z" stroke="#1FD0A3" stroke-width="2"></path><circle cx="275.5" cy="793.5" r="96.5" stroke="#1FD0A3" stroke-width="2"></circle><path d="M274 587H419C446.614 587 469 609.386 469 637V782H324C296.386 782 274 759.614 274 732V587Z" fill="#0075E8"></path><path d="M964 168H1172C1199.61 168 1222 190.386 1222 218V442H1014C986.386 442 964 419.614 964 392V168Z" fill="#0437F2"></path><circle cx="847" cy="753" r="29" stroke="#2291FF"></circle><path d="M1358.84 195.5H1230" stroke="#1FD0A3" stroke-width="6" stroke-linecap="round" stroke-linejoin="round" stroke-dasharray="1 40"></path><path d="M1358.84 155.5H1230" stroke="#1FD0A3" stroke-width="6" stroke-linecap="round" stroke-linejoin="round" stroke-dasharray="1 40"></path><path d="M1358.84 115.5H1230" stroke="#1FD0A3" stroke-width="6" stroke-linecap="round" stroke-linejoin="round" stroke-dasharray="1 40"></path><path d="M1358.84 75.5H1230" stroke="#1FD0A3" stroke-width="6" stroke-linecap="round" stroke-linejoin="round" stroke-dasharray="1 40"></path></g><defs><clipPath id="clip0_124_38548"><rect width="1440" height="1024" fill="white"></rect></clipPath></defs></svg> 