<?xml version="1.0" encoding="UTF-8"?> <svg xmlns="http://www.w3.org/2000/svg" width="190" height="109" viewBox="0 0 190 109" fill="none"><path opacity="0.35" fill-rule="evenodd" clip-rule="evenodd" d="M24.3538 10.24C22.9312 6.45125 19.2862 3.75 15 3.75C12.42 3.75 10.075 4.73625 8.30125 6.34C8.0425 6.28375 7.77625 6.25 7.5 6.25C5.42875 6.25 3.75 7.92875 3.75 10C3.75 11.0437 4.1775 11.9863 4.865 12.6663C2.0825 13.2975 0 15.7762 0 18.75C0 22.2013 2.79875 25 6.25 25H22.5C26.6425 25 30 21.6425 30 17.5C30 13.9987 27.5975 11.0675 24.3538 10.24Z" fill="#00D59F"></path><path fill-rule="evenodd" clip-rule="evenodd" d="M14.5487 9.3L12.8675 8.53875C12.63 8.43 12.4412 8.23625 12.3413 7.995C12.2413 7.75375 12.2375 7.48375 12.3287 7.23875L12.9788 5.51125C13.085 5.22875 13.0162 4.91 12.8025 4.69625C12.5887 4.4825 12.27 4.41375 11.9875 4.52L10.26 5.17C10.015 5.2625 9.745 5.2575 9.50375 5.1575C9.2625 5.0575 9.0675 4.87 8.96 4.63125L8.20125 2.9525C8.07625 2.67625 7.8025 2.5 7.5 2.5C7.1975 2.5 6.92375 2.67625 6.79875 2.9525L6.0375 4.63375C5.92875 4.87125 5.735 5.06 5.49375 5.16C5.2525 5.26 4.9825 5.26375 4.7375 5.17125L3.01 4.52125C2.7275 4.415 2.40875 4.48375 2.195 4.6975C1.9825 4.91 1.91375 5.22875 2.02 5.51125L2.67125 7.23875C2.76375 7.48375 2.75875 7.75375 2.65875 7.995C2.55875 8.23625 2.37125 8.43125 2.1325 8.53875L0.4525 9.29875C0.17625 9.42375 0 9.6975 0 10C0 10.3025 0.17625 10.5763 0.45125 10.7L2.1325 11.4612C2.37 11.57 2.55875 11.7638 2.65875 12.005C2.75875 12.2463 2.7625 12.5162 2.67125 12.7612L2.02125 14.4887C1.915 14.7712 1.98375 15.09 2.1975 15.3038C2.41125 15.5175 2.73 15.5862 3.0125 15.48L4.74 14.83C4.985 14.7375 5.255 14.7425 5.49625 14.8425C5.7375 14.9425 5.9325 15.13 6.04 15.3687L6.80125 17.05C6.92375 17.3238 7.1975 17.5 7.5 17.5C7.8025 17.5 8.07625 17.3237 8.2 17.0487L8.96125 15.3675C9.07 15.13 9.26375 14.9412 9.505 14.8413C9.74625 14.7413 10.0162 14.7375 10.2612 14.8287L11.9887 15.4788C12.2712 15.585 12.59 15.5162 12.8038 15.3025C13.0175 15.0887 13.0862 14.77 12.98 14.4875L12.33 12.76C12.2375 12.515 12.2425 12.245 12.3425 12.0037C12.4425 11.7625 12.63 11.5675 12.8687 11.46L14.55 10.6987C14.8238 10.5763 15 10.3025 15 10C15 9.6975 14.8237 9.42375 14.5487 9.3ZM7.50375 13.2662C5.7025 13.2662 4.2425 11.8062 4.2425 10.005C4.2425 8.20375 5.7025 6.74375 7.50375 6.74375C9.305 6.74375 10.765 8.205 10.765 10.005C10.765 11.8062 9.305 13.2662 7.50375 13.2662Z" fill="#00D59F"></path><path fill-rule="evenodd" clip-rule="evenodd" d="M16.25 25.6252C16.25 26.6602 15.41 27.5002 14.375 27.5002C13.34 27.5002 12.5 26.6602 12.5 25.6252C12.5 25.0027 13.1788 23.6952 13.7188 22.7527C14.01 22.2452 14.7387 22.2452 15.0312 22.7527C15.5712 23.6952 16.25 25.0027 16.25 25.6252Z" fill="#00D59F"></path><path fill-rule="evenodd" clip-rule="evenodd" d="M22.5 20.6252C22.5 21.6602 21.66 22.5002 20.625 22.5002C19.59 22.5002 18.75 21.6602 18.75 20.6252C18.75 20.0027 19.4288 18.6952 19.9688 17.7527C20.26 17.2452 20.9887 17.2452 21.2812 17.7527C21.8212 18.6952 22.5 20.0027 22.5 20.6252Z" fill="#00D59F"></path><path d="M1.76989 79V58.6364H6.07528V67.0384H14.8153V58.6364H19.1108V79H14.8153V70.5881H6.07528V79H1.76989ZM27.4361 79.2884C26.4616 79.2884 25.5933 79.1193 24.831 78.7812C24.0687 78.4366 23.4654 77.9295 23.0213 77.2599C22.5838 76.5838 22.3651 75.742 22.3651 74.7344C22.3651 73.8859 22.5208 73.1733 22.8324 72.5966C23.1439 72.0199 23.5682 71.5559 24.1051 71.2045C24.642 70.8532 25.2519 70.5881 25.9347 70.4091C26.6241 70.2301 27.3466 70.1042 28.1023 70.0312C28.9905 69.9384 29.7064 69.8523 30.25 69.7727C30.7936 69.6866 31.188 69.5606 31.4332 69.3949C31.6785 69.2292 31.8011 68.9839 31.8011 68.6591V68.5994C31.8011 67.9697 31.6023 67.4825 31.2045 67.1378C30.8134 66.7931 30.2566 66.6207 29.5341 66.6207C28.7718 66.6207 28.1652 66.7898 27.7145 67.1278C27.2637 67.4593 26.9654 67.8769 26.8196 68.3807L22.902 68.0625C23.1009 67.1345 23.492 66.3324 24.0753 65.6562C24.6586 64.9735 25.411 64.4498 26.3324 64.0852C27.2604 63.714 28.3343 63.5284 29.554 63.5284C30.4025 63.5284 31.2145 63.6278 31.9901 63.8267C32.7723 64.0256 33.465 64.3338 34.0682 64.7514C34.678 65.169 35.1586 65.706 35.5099 66.3622C35.8613 67.0118 36.0369 67.7907 36.0369 68.6989V79H32.0199V76.8821H31.9006C31.6553 77.3594 31.3272 77.7803 30.9162 78.1449C30.5052 78.5028 30.0114 78.7846 29.4347 78.9901C28.858 79.1889 28.1918 79.2884 27.4361 79.2884ZM28.6491 76.3651C29.2723 76.3651 29.8224 76.2424 30.2997 75.9972C30.777 75.7453 31.1515 75.4072 31.4233 74.983C31.6951 74.5587 31.831 74.0781 31.831 73.5412V71.9205C31.6984 72.0066 31.5161 72.0862 31.2841 72.1591C31.0587 72.2254 30.8035 72.2884 30.5185 72.348C30.2334 72.401 29.9484 72.4508 29.6634 72.4972C29.3783 72.5369 29.1198 72.5734 28.8878 72.6065C28.3906 72.6795 27.9564 72.7955 27.5852 72.9545C27.214 73.1136 26.9257 73.3291 26.7202 73.6009C26.5147 73.866 26.4119 74.1974 26.4119 74.5952C26.4119 75.1719 26.6207 75.6127 27.0384 75.9176C27.4626 76.2159 27.9995 76.3651 28.6491 76.3651ZM53.5149 63.7273L48.1754 79H43.4027L38.0632 63.7273H42.5376L45.7095 74.6548H45.8686L49.0305 63.7273H53.5149ZM60.1275 79.2884C59.1531 79.2884 58.2847 79.1193 57.5224 78.7812C56.7601 78.4366 56.1568 77.9295 55.7127 77.2599C55.2752 76.5838 55.0565 75.742 55.0565 74.7344C55.0565 73.8859 55.2122 73.1733 55.5238 72.5966C55.8353 72.0199 56.2596 71.5559 56.7965 71.2045C57.3335 70.8532 57.9433 70.5881 58.6261 70.4091C59.3155 70.2301 60.038 70.1042 60.7937 70.0312C61.6819 69.9384 62.3978 69.8523 62.9414 69.7727C63.485 69.6866 63.8794 69.5606 64.1246 69.3949C64.3699 69.2292 64.4925 68.9839 64.4925 68.6591V68.5994C64.4925 67.9697 64.2937 67.4825 63.896 67.1378C63.5049 66.7931 62.948 66.6207 62.2255 66.6207C61.4632 66.6207 60.8567 66.7898 60.4059 67.1278C59.9551 67.4593 59.6568 67.8769 59.511 68.3807L55.5934 68.0625C55.7923 67.1345 56.1834 66.3324 56.7667 65.6562C57.35 64.9735 58.1024 64.4498 59.0238 64.0852C59.9518 63.714 61.0257 63.5284 62.2454 63.5284C63.0939 63.5284 63.9059 63.6278 64.6815 63.8267C65.4637 64.0256 66.1564 64.3338 66.7596 64.7514C67.3694 65.169 67.85 65.706 68.2013 66.3622C68.5527 67.0118 68.7283 67.7907 68.7283 68.6989V79H64.7113V76.8821H64.592C64.3467 77.3594 64.0186 77.7803 63.6076 78.1449C63.1966 78.5028 62.7028 78.7846 62.1261 78.9901C61.5494 79.1889 60.8832 79.2884 60.1275 79.2884ZM61.3406 76.3651C61.9637 76.3651 62.5138 76.2424 62.9911 75.9972C63.4684 75.7453 63.8429 75.4072 64.1147 74.983C64.3865 74.5587 64.5224 74.0781 64.5224 73.5412V71.9205C64.3898 72.0066 64.2075 72.0862 63.9755 72.1591C63.7501 72.2254 63.4949 72.2884 63.2099 72.348C62.9248 72.401 62.6398 72.4508 62.3548 72.4972C62.0697 72.5369 61.8112 72.5734 61.5792 72.6065C61.082 72.6795 60.6478 72.7955 60.2766 72.9545C59.9054 73.1136 59.6171 73.3291 59.4116 73.6009C59.2061 73.866 59.1033 74.1974 59.1033 74.5952C59.1033 75.1719 59.3121 75.6127 59.7298 75.9176C60.154 76.2159 60.6909 76.3651 61.3406 76.3651ZM86.7933 79H79.5746V58.6364H86.853C88.9013 58.6364 90.6645 59.044 92.1428 59.8594C93.621 60.6681 94.7578 61.8314 95.5533 63.3494C96.3554 64.8674 96.7564 66.6837 96.7564 68.7983C96.7564 70.9195 96.3554 72.7424 95.5533 74.267C94.7578 75.7917 93.6143 76.9616 92.1229 77.777C90.638 78.5923 88.8615 79 86.7933 79ZM83.88 75.3111H86.6143C87.8871 75.3111 88.9576 75.0857 89.826 74.6349C90.701 74.1776 91.3572 73.4716 91.7947 72.517C92.2389 71.5559 92.4609 70.3163 92.4609 68.7983C92.4609 67.2936 92.2389 66.0639 91.7947 65.1094C91.3572 64.1548 90.7043 63.4522 89.8359 63.0014C88.9676 62.5507 87.897 62.3253 86.6243 62.3253H83.88V75.3111ZM110.16 72.4972V63.7273H114.396V79H110.329V76.2259H110.17C109.825 77.1207 109.252 77.84 108.45 78.3835C107.654 78.9271 106.683 79.1989 105.537 79.1989C104.516 79.1989 103.618 78.9669 102.842 78.5028C102.066 78.0388 101.46 77.3793 101.022 76.5241C100.592 75.669 100.373 74.6449 100.366 73.4517V63.7273H104.602V72.696C104.609 73.5975 104.85 74.3101 105.328 74.8338C105.805 75.3575 106.445 75.6193 107.247 75.6193C107.757 75.6193 108.234 75.5033 108.679 75.2713C109.123 75.0327 109.481 74.6813 109.752 74.2173C110.031 73.7533 110.167 73.1799 110.16 72.4972ZM118.284 79V63.7273H122.391V66.392H122.55C122.828 65.4441 123.295 64.7282 123.952 64.2443C124.608 63.7538 125.364 63.5085 126.219 63.5085C126.431 63.5085 126.66 63.5218 126.905 63.5483C127.15 63.5748 127.366 63.6113 127.551 63.6577V67.4162C127.352 67.3565 127.077 67.3035 126.726 67.2571C126.375 67.2107 126.053 67.1875 125.761 67.1875C125.138 67.1875 124.581 67.3234 124.091 67.5952C123.607 67.8603 123.223 68.2315 122.938 68.7088C122.659 69.1861 122.52 69.7363 122.52 70.3594V79H118.284ZM140.035 72.4972V63.7273H144.271V79H140.204V76.2259H140.045C139.7 77.1207 139.127 77.84 138.325 78.3835C137.529 78.9271 136.558 79.1989 135.412 79.1989C134.391 79.1989 133.493 78.9669 132.717 78.5028C131.941 78.0388 131.335 77.3793 130.897 76.5241C130.467 75.669 130.248 74.6449 130.241 73.4517V63.7273H134.477V72.696C134.484 73.5975 134.725 74.3101 135.203 74.8338C135.68 75.3575 136.32 75.6193 137.122 75.6193C137.632 75.6193 138.109 75.5033 138.554 75.2713C138.998 75.0327 139.356 74.6813 139.627 74.2173C139.906 73.7533 140.042 73.1799 140.035 72.4972ZM148.159 79V63.7273H152.196V66.4219H152.375C152.693 65.527 153.223 64.821 153.966 64.304C154.708 63.7869 155.597 63.5284 156.631 63.5284C157.678 63.5284 158.57 63.7902 159.305 64.3139C160.041 64.831 160.532 65.5336 160.777 66.4219H160.936C161.248 65.5469 161.811 64.8475 162.626 64.3239C163.448 63.7936 164.42 63.5284 165.54 63.5284C166.965 63.5284 168.122 63.9825 169.01 64.8906C169.905 65.7921 170.352 67.0715 170.352 68.7287V79H166.126V69.5639C166.126 68.7154 165.901 68.0791 165.45 67.6548C165 67.2306 164.436 67.0185 163.76 67.0185C162.991 67.0185 162.391 67.2637 161.96 67.7543C161.529 68.2382 161.314 68.8778 161.314 69.6733V79H157.207V69.4744C157.207 68.7254 156.992 68.1288 156.561 67.6847C156.137 67.2405 155.577 67.0185 154.881 67.0185C154.41 67.0185 153.986 67.1378 153.608 67.3764C153.237 67.6084 152.942 67.9366 152.723 68.3608C152.504 68.7784 152.395 69.2689 152.395 69.8324V79H148.159ZM183.992 72.4972V63.7273H188.228V79H184.161V76.2259H184.002C183.657 77.1207 183.084 77.84 182.282 78.3835C181.487 78.9271 180.515 79.1989 179.369 79.1989C178.348 79.1989 177.45 78.9669 176.674 78.5028C175.898 78.0388 175.292 77.3793 174.854 76.5241C174.424 75.669 174.205 74.6449 174.198 73.4517V63.7273H178.434V72.696C178.441 73.5975 178.683 74.3101 179.16 74.8338C179.637 75.3575 180.277 75.6193 181.079 75.6193C181.589 75.6193 182.067 75.5033 182.511 75.2713C182.955 75.0327 183.313 74.6813 183.585 74.2173C183.863 73.7533 183.999 73.1799 183.992 72.4972Z" fill="#00D59F"></path><path opacity="0.2" d="M0 108.5H140" stroke="#7C88B1"></path></svg> 