<?xml version="1.0" encoding="UTF-8"?> <svg xmlns="http://www.w3.org/2000/svg" width="825" height="1024" viewBox="0 0 825 1024" fill="none"><g clip-path="url(#clip0_124_41069)"><rect width="825" height="1024" transform="matrix(-1 0 0 1 825 0)" fill="#3662FF"></rect><g style="mix-blend-mode:multiply" opacity="0.6"><path fill-rule="evenodd" clip-rule="evenodd" d="M202.026 134H192.786C185.132 134 178.928 140.259 178.928 147.98V157.3C178.928 165.02 185.132 171.279 192.786 171.279H202.026C209.68 171.279 215.884 165.02 215.884 157.3V147.98C215.884 140.259 209.68 134 202.026 134ZM358.168 208.559H367.407C375.061 208.559 381.266 214.818 381.266 222.539V231.858C381.266 239.579 375.061 245.838 367.407 245.838H358.168C350.514 245.838 344.309 239.579 344.309 231.858V222.539C344.309 214.818 350.514 208.559 358.168 208.559ZM44.0364 227.198H-2.15973C-14.9164 227.198 -25.2578 237.63 -25.2578 250.498V297.097C-25.2578 309.965 -14.9164 320.396 -2.15973 320.396H44.0364C56.7931 320.396 67.1344 309.965 67.1344 297.097V250.498C67.1344 237.63 56.7931 227.198 44.0364 227.198ZM560.97 581.351H653.824C666.759 581.351 676.922 571.1 676.922 558.052V455.534C676.922 442.486 666.759 432.234 653.824 432.234H552.193C539.258 432.234 529.095 442.486 529.095 455.534V541.276C529.095 547.334 526.785 553.392 522.165 557.586L443.17 637.27C437.164 643.328 427.463 639.134 427.463 630.747V492.347C427.463 479.299 437.626 469.048 450.561 469.048C463.496 469.048 473.659 458.796 473.659 445.748V361.87C473.659 348.822 463.496 338.57 450.561 338.57H367.408C354.473 338.57 344.31 348.822 344.31 361.87V445.748C344.31 458.796 354.473 469.048 367.408 469.048C380.343 469.048 390.506 479.299 390.506 492.347V680.608C390.506 686.665 388.196 692.723 383.577 696.917L249.146 832.521C243.141 838.579 233.44 834.385 233.44 825.997V399.615C233.44 386.567 243.603 376.315 256.538 376.315H265.777C278.712 376.315 288.875 366.064 288.875 353.016V250.498C288.875 237.45 278.712 227.198 265.777 227.198H164.145C151.21 227.198 141.047 237.45 141.047 250.498V353.016C141.047 366.064 151.21 376.315 164.145 376.315H173.385C186.32 376.315 196.483 386.567 196.483 399.615V606.981C196.483 615.369 186.32 619.563 180.776 613.505L74.063 505.861C69.9053 501.667 67.1335 495.609 67.1335 489.551V399.615C67.1335 386.567 56.9704 376.315 44.0355 376.315H-57.5959C-70.5309 376.315 -80.694 386.567 -80.694 399.615V502.133C-80.694 515.181 -70.5309 525.432 -57.5959 525.432H31.5626C37.5681 525.432 43.5735 527.762 47.7312 532.422L189.553 675.482C193.711 679.676 196.483 685.734 196.483 691.791V961.134C196.483 969.522 186.32 973.716 180.776 967.658L-110.721 673.618C-114.879 669.424 -117.651 663.366 -117.651 657.308V586.011C-117.651 572.964 -127.814 562.712 -140.749 562.712H-223.902C-236.837 562.712 -247 572.964 -247 586.011V669.89C-247 682.938 -236.837 693.189 -223.902 693.189H-153.222C-147.216 693.189 -141.211 695.519 -137.053 700.179L172.923 1012.86C178.928 1018.92 174.77 1028.7 166.455 1028.7H-108.874C-113.955 1028.7 -118.113 1032.9 -118.113 1038.02V1056.66C-118.113 1061.79 -113.955 1065.98 -108.874 1065.98H538.796C543.877 1065.98 548.035 1061.79 548.035 1056.66V1038.02C548.035 1032.9 543.877 1028.7 538.796 1028.7H256.538C243.603 1028.7 233.44 1018.45 233.44 1005.4V911.739C233.44 905.681 235.749 899.623 240.369 895.43L323.06 812.017C327.218 807.823 333.223 805.027 339.229 805.027H505.997C518.931 805.027 529.095 815.279 529.095 828.327V837.647C529.095 850.694 539.258 860.946 552.193 860.946H653.824C666.759 860.946 676.922 850.694 676.922 837.647V735.129C676.922 722.081 666.759 711.829 653.824 711.829H552.193C539.258 711.829 529.095 722.081 529.095 735.129V744.448C529.095 757.496 518.931 767.748 505.997 767.748H388.659C380.343 767.748 376.185 757.496 382.191 751.904L544.339 588.341H544.801C548.959 584.147 554.964 581.351 560.97 581.351ZM552.193 264.477H598.389C611.145 264.477 621.487 274.909 621.487 287.777V334.376C621.487 347.244 611.145 357.675 598.389 357.675H552.193C539.436 357.675 529.094 347.244 529.094 334.376V287.777C529.094 274.909 539.436 264.477 552.193 264.477ZM-122.272 823.667H-168.468C-181.225 823.667 -191.566 834.099 -191.566 846.967V893.566C-191.566 906.434 -181.225 916.866 -168.468 916.866H-122.272C-109.515 916.866 -99.1739 906.434 -99.1739 893.566V846.967C-99.1739 834.099 -109.515 823.667 -122.272 823.667ZM-2.15974 581.351H-11.399C-19.053 581.351 -25.2578 587.61 -25.2578 595.331V604.651C-25.2578 612.372 -19.053 618.631 -11.399 618.631H-2.15974C5.49428 618.631 11.6991 612.372 11.6991 604.651V595.331C11.6991 587.61 5.49428 581.351 -2.15974 581.351ZM432.082 842.307H441.321C448.975 842.307 455.18 848.565 455.18 856.286V865.606C455.18 873.327 448.975 879.586 441.321 879.586H432.082C424.428 879.586 418.223 873.327 418.223 865.606V856.286C418.223 848.565 424.428 842.307 432.082 842.307ZM99.472 693.189H71.7543C58.9976 693.189 48.6562 703.621 48.6562 716.489V744.448C48.6562 757.316 58.9976 767.748 71.7543 767.748H99.472C112.229 767.748 122.57 757.316 122.57 744.448V716.489C122.57 703.621 112.229 693.189 99.472 693.189ZM330.45 879.586H358.168C370.925 879.586 381.266 890.018 381.266 902.886V930.845C381.266 943.714 370.925 954.145 358.168 954.145H330.45C317.694 954.145 307.352 943.714 307.352 930.845V902.886C307.352 890.018 317.694 879.586 330.45 879.586ZM-163.386 302.689H-146.294C-133.537 302.689 -123.196 313.12 -123.196 325.988V343.23C-123.196 356.098 -133.537 366.529 -146.294 366.529H-163.386C-176.143 366.529 -186.484 356.098 -186.484 343.23V325.988C-186.484 313.12 -176.143 302.689 -163.386 302.689Z" fill="#0437F2"></path></g><path d="M198 462H741C768.614 462 791 484.386 791 512V990H248C220.386 990 198 967.614 198 940V462Z" stroke="#1FD0A3" stroke-width="2"></path><path d="M38 20H242C269.614 20 292 42.3858 292 70V267H88C60.3858 267 38 244.614 38 217V20Z" stroke="#1FD0A3" stroke-width="2"></path><circle cx="121" cy="818" r="29" stroke="#1FD0A3" stroke-width="2"></circle><path d="M444 42H731C758.614 42 781 64.3858 781 92V369H494C466.386 369 444 346.614 444 319V42Z" fill="#0437F2"></path><path d="M601 473H665C692.614 473 715 495.386 715 523V594H651C623.386 594 601 571.614 601 544V473Z" fill="#5A7EFF"></path><path d="M743.844 284.5H615" stroke="#1FD0A3" stroke-width="6" stroke-linecap="round" stroke-linejoin="round" stroke-dasharray="1 40"></path><path d="M743.844 244.5H615" stroke="#1FD0A3" stroke-width="6" stroke-linecap="round" stroke-linejoin="round" stroke-dasharray="1 40"></path><path d="M743.844 204.5H615" stroke="#1FD0A3" stroke-width="6" stroke-linecap="round" stroke-linejoin="round" stroke-dasharray="1 40"></path><path d="M743.844 164.5H615" stroke="#1FD0A3" stroke-width="6" stroke-linecap="round" stroke-linejoin="round" stroke-dasharray="1 40"></path></g><defs><clipPath id="clip0_124_41069"><rect width="825" height="1024" fill="white"></rect></clipPath></defs></svg> 