<?xml version="1.0" encoding="UTF-8"?> <svg xmlns="http://www.w3.org/2000/svg" width="140" height="109" viewBox="0 0 140 109" fill="none"><path d="M15 17.5C16.3807 17.5 17.5 16.3807 17.5 15C17.5 13.6193 16.3807 12.5 15 12.5C13.6193 12.5 12.5 13.6193 12.5 15C12.5 16.3807 13.6193 17.5 15 17.5Z" fill="#FF7A00"></path><path d="M15 10C16.3807 10 17.5 8.88071 17.5 7.5C17.5 6.11929 16.3807 5 15 5C13.6193 5 12.5 6.11929 12.5 7.5C12.5 8.88071 13.6193 10 15 10Z" fill="#FF7A00"></path><path d="M15 25C16.3807 25 17.5 23.8807 17.5 22.5C17.5 21.1193 16.3807 20 15 20C13.6193 20 12.5 21.1193 12.5 22.5C12.5 23.8807 13.6193 25 15 25Z" fill="#FF7A00"></path><path opacity="0.35" d="M25 6.68V6.25C25 5.56 24.44 5 23.75 5H23.52C23.0037 3.54625 21.63 2.5 20 2.5H10C8.37 2.5 6.99625 3.54625 6.48 5H6.25C5.56 5 5 5.56 5 6.25V6.68C5 7.72625 5.49375 8.64875 6.25 9.25625V12.5C5.56 12.5 5 13.06 5 13.75V14.18C5 15.2262 5.49375 16.1487 6.25 16.7562V20C5.56 20 5 20.56 5 21.25V21.68C5 22.7525 5.5175 23.6962 6.30625 24.3025C6.575 26.11 8.11875 27.5 10 27.5H20C21.8813 27.5 23.425 26.11 23.6938 24.3025C24.4825 23.695 25 22.7525 25 21.68V21.25C25 20.56 24.44 20 23.75 20V16.7562C24.5063 16.1475 25 15.2262 25 14.18V13.75C25 13.06 24.44 12.5 23.75 12.5V9.25625C24.5063 8.6475 25 7.72625 25 6.68Z" fill="#FF7A00"></path><path d="M0.994318 62.1861V58.6364H17.7188V62.1861H11.4844V79H7.22869V62.1861H0.994318ZM19.3075 79V63.7273H23.4141V66.392H23.5732C23.8516 65.4441 24.3189 64.7282 24.9751 64.2443C25.6314 63.7538 26.3871 63.5085 27.2422 63.5085C27.4543 63.5085 27.683 63.5218 27.9283 63.5483C28.1735 63.5748 28.389 63.6113 28.5746 63.6577V67.4162C28.3757 67.3565 28.1006 67.3035 27.7493 67.2571C27.398 67.2107 27.0765 67.1875 26.7848 67.1875C26.1617 67.1875 25.6049 67.3234 25.1143 67.5952C24.6304 67.8603 24.246 68.2315 23.9609 68.7088C23.6825 69.1861 23.5433 69.7363 23.5433 70.3594V79H19.3075ZM35.1822 79.2884C34.2077 79.2884 33.3394 79.1193 32.5771 78.7812C31.8147 78.4366 31.2115 77.9295 30.7674 77.2599C30.3299 76.5838 30.1112 75.742 30.1112 74.7344C30.1112 73.8859 30.2669 73.1733 30.5785 72.5966C30.89 72.0199 31.3143 71.5559 31.8512 71.2045C32.3881 70.8532 32.998 70.5881 33.6808 70.4091C34.3701 70.2301 35.0927 70.1042 35.8484 70.0312C36.7366 69.9384 37.4525 69.8523 37.9961 69.7727C38.5397 69.6866 38.9341 69.5606 39.1793 69.3949C39.4246 69.2292 39.5472 68.9839 39.5472 68.6591V68.5994C39.5472 67.9697 39.3484 67.4825 38.9506 67.1378C38.5595 66.7931 38.0027 66.6207 37.2802 66.6207C36.5179 66.6207 35.9113 66.7898 35.4606 67.1278C35.0098 67.4593 34.7115 67.8769 34.5657 68.3807L30.6481 68.0625C30.8469 67.1345 31.238 66.3324 31.8214 65.6562C32.4047 64.9735 33.1571 64.4498 34.0785 64.0852C35.0065 63.714 36.0804 63.5284 37.3001 63.5284C38.1486 63.5284 38.9606 63.6278 39.7362 63.8267C40.5183 64.0256 41.2111 64.3338 41.8143 64.7514C42.4241 65.169 42.9047 65.706 43.256 66.3622C43.6074 67.0118 43.783 67.7907 43.783 68.6989V79H39.766V76.8821H39.6467C39.4014 77.3594 39.0733 77.7803 38.6623 78.1449C38.2513 78.5028 37.7575 78.7846 37.1808 78.9901C36.604 79.1889 35.9379 79.2884 35.1822 79.2884ZM36.3952 76.3651C37.0183 76.3651 37.5685 76.2424 38.0458 75.9972C38.5231 75.7453 38.8976 75.4072 39.1694 74.983C39.4412 74.5587 39.5771 74.0781 39.5771 73.5412V71.9205C39.4445 72.0066 39.2622 72.0862 39.0302 72.1591C38.8048 72.2254 38.5496 72.2884 38.2646 72.348C37.9795 72.401 37.6945 72.4508 37.4094 72.4972C37.1244 72.5369 36.8659 72.5734 36.6339 72.6065C36.1367 72.6795 35.7025 72.7955 35.3313 72.9545C34.9601 73.1136 34.6718 73.3291 34.4663 73.6009C34.2608 73.866 34.158 74.1974 34.158 74.5952C34.158 75.1719 34.3668 75.6127 34.7844 75.9176C35.2087 76.2159 35.7456 76.3651 36.3952 76.3651ZM55.7823 63.7273V66.9091H46.3562V63.7273H55.7823ZM48.5138 79V62.6236C48.5138 61.5166 48.7293 60.5985 49.1602 59.8693C49.5977 59.1402 50.1942 58.5933 50.9499 58.2287C51.7056 57.8641 52.564 57.6818 53.5252 57.6818C54.1748 57.6818 54.7681 57.7315 55.305 57.831C55.8486 57.9304 56.253 58.0199 56.5181 58.0994L55.7624 61.2812C55.5967 61.2282 55.3912 61.1785 55.146 61.1321C54.9073 61.0857 54.6621 61.0625 54.4102 61.0625C53.7871 61.0625 53.3529 61.2083 53.1076 61.5C52.8623 61.785 52.7397 62.1861 52.7397 62.7031V79H48.5138ZM58.87 79V63.7273H63.1058V79H58.87ZM60.9979 61.7585C60.3681 61.7585 59.8279 61.5497 59.3771 61.1321C58.933 60.7079 58.7109 60.2008 58.7109 59.6108C58.7109 59.0275 58.933 58.527 59.3771 58.1094C59.8279 57.6851 60.3681 57.473 60.9979 57.473C61.6276 57.473 62.1645 57.6851 62.6087 58.1094C63.0594 58.527 63.2848 59.0275 63.2848 59.6108C63.2848 60.2008 63.0594 60.7079 62.6087 61.1321C62.1645 61.5497 61.6276 61.7585 60.9979 61.7585ZM70.837 74.6051L70.8469 69.5241H71.4634L76.3555 63.7273H81.2177L74.6452 71.4034H73.641L70.837 74.6051ZM66.9989 79V58.6364H71.2347V79H66.9989ZM76.5444 79L72.0501 72.348L74.8739 69.3551L81.506 79H76.5444Z" fill="#FF7A00"></path><path opacity="0.2" d="M0 108.5H140" stroke="#7C88B1"></path></svg> 